<ttFont>
          <CharString index="0">
            298 -5 rmoveto
            207 105 172 188 40 hvcurveto
            75 355 -92 callgsubr
            -75 -355 rlineto
            -166 -35 -91 -174 -203 hhcurveto
            -149 -49 94 120 40 6 43 9 43 hvcurveto
            75 355 -92 callgsubr
            -75 -355 rlineto
            -9 -44 -6 -44 -41 vvcurveto
            -127 53 -104 162 vhcurveto
            return
          </CharString>
          <CharString index="1">
            215 -10 rmoveto
            148 150 152 166 121 -75 98 -109 -146 -153 -151 -169 -119 73 -98 112 hvcurveto
            3 20 rmoveto
            -100 -68 89 110 156 142 142 133 99 69 -91 -111 -155 -141 -140 -134 hvcurveto
            return
          </CharString>
          <CharString index="2">
            69 -25 -58 60 -93 hhcurveto
            -150 -140 -157 -160 -113 70 -107 115 hvcurveto
            2 20 rmoveto
            -96 -71 94 106 140 123 157 139 94 70 -72 -79 11 hvcurveto
            -40 -187 rlineto
            -84 -23 -122 -75 -85 hhcurveto
            return
          </CharString>
          <CharString index="3">
            rmoveto
            -23 -17 23 26 3 0 4 1 4 hvcurveto
            -19 hlineto
            -1 -5 -1 -5 -5 vvcurveto
            -35 24 -27 33 37 41 36 41 9 vhcurveto
            -18 hlineto
            -33 -10 -30 -27 -26 hhcurveto
            endchar
          </CharString>
          <CharString index="4">
            -56 callsubr
            71 5 callsubr
            363 hlineto
            4 20 rlineto
            -363 hlineto
            68 317 rlineto
            414 hlineto
            4 20 rlineto
            -434 hlineto
            return
          </CharString>
          <CharString index="5">
            53 hmoveto
            59 279 rlineto
            250 hlineto
            111 -279 rlineto
            24 hlineto
            -111 279 rlineto
            120 9 102 123 122 vvcurveto
            90 -55 87 -94 vhcurveto
            -275 -16 callsubr
            84 299 rmoveto
            83 391 rlineto
            254 hlineto
            81 53 -75 -85 -108 -93 -123 -117 hvcurveto
            return
          </CharString>
          <CharString index="6">
            -39 hmoveto
            22 hlineto
            159 -2 callsubr
            351 hlineto
            51 -254 rlineto
            22 hlineto
            -142 710 rlineto
            -18 hlineto
            -252 -436 rmoveto
            255 407 80 -407 rlineto
            return
          </CharString>
          <CharString index="7">
            rmoveto
            94 63 68 -63 18 12 -73 74 rlineto
            -16 hlineto
            -104 -74 rlineto
            endchar
          </CharString>
          <CharString index="8">
            33 hmoveto
            217 hlineto
            233 170 188 252 151 -79 119 -173 hvcurveto
            -217 hlineto
            -127 -690 rmoveto
            143 670 rlineto
            197 hlineto
            156 80 -106 -149 -218 -142 -197 -237 hvcurveto
            return
          </CharString>
          <CharString index="9">
            -1 3 3 0 3 hhcurveto
            4 20 rlineto
            -9 -3 5 7 4 1 5 1 3 hvcurveto
            102 475 -1 callgsubr
            -26 -121 rlineto
            return
          </CharString>
          <CharString index="10">
            -35 -224 rmoveto
            83 13 34 35 95 150 82 129 rcurveline
            134 211 37 76 36 129 rrcurveto
            -21 hlineto
            -35 -121 -40 -81 -126 -200 -58 -92 rcurveline
            -112 494 rlineto
            -22 hlineto
            119 -519 -41 -63 -61 -94 -25 -34 -81 -16 rlinecurve
            return
          </CharString>
          <CharString index="11">
            -93 -95 -88 -41 -88 hhcurveto
            -142 -92 129 149 186 164 216 203 105 74 -41 -100 30 hvcurveto
            20 6 rlineto
            90 -23 -62 65 -139 hhcurveto
            -206 -186 -217 -206 -150 90 -147 160 91 90 42 84 88 hvcurveto
            return
          </CharString>
          <CharString index="12">
            rmoveto
            -33 hlineto
            -76 -73 13 -12 rlineto
            endchar
          </CharString>
          <CharString index="13">
            -20 hstem
            243 hmoveto
            22 hlineto
            243 389 77 -389 rlineto
            22 hlineto
            444 710 rlineto
            -22 hlineto
            -427 -685 -79 389 183 290 rlineto
            -22 hlineto
            -167 -266 -52 266 rlineto
            -22 hlineto
            59 -290 -242 -389 -137 685 rlineto
            -22 hlineto
            return
          </CharString>
          <CharString index="14">
            396 -48 callsubr
            -371 hlineto
            476 479 4 20 rlineto
            -395 -85 callgsubr
            370 hlineto
            -477 -479 rlineto
            return
          </CharString>
          <CharString index="15">
            216 -10 rmoveto
            78 85 49 69 56 hvcurveto
            -14 -70 -1 -3 -6 vvcurveto
            -15 6 -9 13 -4 vhcurveto
            return
          </CharString>
          <CharString index="16">
            -20 hstem
            96 -5 rmoveto
            18 33 6 6 18 hvcurveto
            -3 16 rlineto
            -5 -17 -23 -4 -14 hhcurveto
            -33 -19 17 30 5 1 5 1 6 hvcurveto
            139 653 -92 callgsubr
            -139 -653 rlineto
            -2 -8 0 -7 -6 vvcurveto
            -37 23 -24 37 vhcurveto
            return
          </CharString>
          <CharString index="17">
            rmoveto
            25 58 12 59 rlineto
            -25 hlineto
            -13 -59 rlineto
            9 hlineto
            -22 -58 rlineto
            endchar
          </CharString>
          <CharString index="18">
            -10 rmoveto
            68 115 34 87 58 hvcurveto
            -73 28 62 -48 82 hhcurveto
            85 95 53 71 42 hvcurveto
            -18 5 rlineto
            -64 -41 -82 -45 -76 hhcurveto
            -103 -68 83 113 13 1 14 2 15 hvcurveto
            450 hlineto
            10 21 3 37 22 vvcurveto
            114 -82 85 -109 -84 -83 -50 -74 -57 vhcurveto
            81 -7 -56 43 -77 hhcurveto
            -55 -59 -22 -46 -74 hvcurveto
            8 -16 rlineto
            41 64 60 23 52 hhcurveto
            78 47 -51 -80 hvcurveto
            -19 -31 -15 -33 -9 -35 rrcurveto
            12 -39 -48 8 -45 hhcurveto
            -134 -106 -71 -106 -69 45 -61 91 hvcurveto
            6 20 rmoveto
            -86 -36 56 58 93 91 60 127 43 46 -7 -14 40 hvcurveto
            -4 -20 -2 -19 -18 vvcurveto
            -22 3 -21 5 -19 vhcurveto
            -74 -25 -118 -53 -84 hhcurveto
            248 258 rmoveto
            137 36 112 102 117 hhcurveto
            115 57 -88 -94 -19 -2 -19 -5 -19 hvcurveto
            return
          </CharString>
          <CharString index="19">
            535 hlineto
            4 20 rlineto
            -510 hlineto
            656 670 -52 callsubr
            -534 hlineto
            -5 -20 rlineto
            509 hlineto
            -656 -670 rlineto
            return
          </CharString>
          <CharString index="20">
            69 20 58 9 2 hvcurveto
            -19 hlineto
            -4 -1 -13 -44 -52 hhcurveto
            return
          </CharString>
          <CharString index="21">
            -15 callgsubr
            vhcurveto
            4 20 rmoveto
            4 callgsubr
            138 121 156 147 80 78 -68 -83 11 hvcurveto
            -40 -187 rlineto
            -85 -23 -126 -74 -77 hhcurveto
            return
          </CharString>
          <CharString index="22">
            218 -55 callsubr
            59 275 366 435 rlineto
            -23 hlineto
            -348 -412 -172 412 rlineto
            -23 hlineto
            180 -433 rlineto
            return
          </CharString>
          <CharString index="23">
            -40 callgsubr
            2 callsubr
            return
          </CharString>
          <CharString index="24">
            4 19 rlineto
            -246 hlineto
            8 40 22 65 107 36 rrcurveto
            63 21 103 21 97 vvcurveto
            48 -31 41 -74 -92 -58 -62 -5 -4 vhcurveto
            12 -12 rlineto
            return
          </CharString>
          <CharString index="25">
            rmoveto
            679 700 -13 12 -679 -700 rlineto
            return
          </CharString>
          <CharString index="26">
            -405 21 -21 918 -20 -71 callgsubr
            return
          </CharString>
          <CharString index="27">
            6 18 35 10 27 hhcurveto
            23 16 -8 -21 -32 -20 -15 -45 -32 -29 9 9 -18 hvcurveto
            endchar
          </CharString>
          <CharString index="28">
            4 19 rlineto
            -200 hlineto
            -2 -8 -75 -170 -14 -32 rrcurveto
            20 hlineto
            30 30 44 19 42 hhcurveto
            53 48 -31 -55 -69 -68 -54 -77 return
          </CharString>
          <CharString index="29">
            32 -18 30 -39 -43 -35 -38 -39 -8 vhcurveto
            endchar
          </CharString>
          <CharString index="30">
            rmoveto
            86 78 50 68 40 -29 33 -48 9 hvcurveto
            70 15 35 36 51 vvcurveto
            return
          </CharString>
          <CharString index="31">
            rmoveto
            -145 -86 128 147 194 return
          </CharString>
          <CharString index="32">
            rmoveto
            18 -58 callsubr
            endchar
          </CharString>
          <CharString index="33">
            rmoveto
            -101 callgsubr
            return
          </CharString>
          <CharString index="34">
            rmoveto
            18 14 -13 -20 -28 -28 -21 -21 -19 -12 14 19 29 24 20 24 hvcurveto
            return
          </CharString>
          <CharString index="35">
            rmoveto
            4 20 rlineto
            -266 -85 callgsubr
            endchar
          </CharString>
          <CharString index="36">
            52 -46 39 -70 -58 -56 -26 -40 -27 vhcurveto
            12 -12 rlineto
            35 23 49 25 53 hhcurveto
            59 40 -31 -45 hvcurveto
            return
          </CharString>
          <CharString index="37">
            47 -8 -42 29 -56 hhcurveto
            -120 -85 -123 -147 -75 48 -46 72 91 85 69 83 hvcurveto
            -171 -134 rmoveto
            -61 -44 43 53 69 75 61 77 61 44 -44 -53 -69 -75 -60 -77 hvcurveto
            endchar
          </CharString>
          <CharString index="38">
            -46 73 rlineto
            -32 hlineto
            return
          </CharString>
          <CharString index="39">
            rmoveto
            -26 17 -20 26 35 33 31 37 26 -17 20 -26 -35 -33 -31 -37 vhcurveto
            return
          </CharString>
          <CharString index="40">
            -31 0 -57 callsubr
            return
          </CharString>
          <CharString index="41">
            41 200 rmoveto
            -44 -47 24 41 52 63 34 60 49 44 -24 -41 32 callsubr
            hvcurveto
            return
          </CharString>
          <CharString index="42">
            -37 callsubr
            258 hlineto
            4 20 rlineto
            -536 -85 callgsubr
            258 hlineto
            return
          </CharString>
          <CharString index="43">
            -10 -62 callgsubr
            return
          </CharString>
          <CharString index="44">
            -44 callsubr
            -20 hlineto
            return
          </CharString>
          <CharString index="45">
            hstem
            -84 hmoveto
            25 hlineto
            212 -2 callsubr
            266 hlineto
            -54 -254 26 callgsubr
            -422 hlineto
            70 5 callsubr
            363 -48 callsubr
            -363 hlineto
            67 317 rlineto
            414 -48 callsubr
            -440 hlineto
            -342 -436 rmoveto
            340 404 -85 -404 rlineto
            return
          </CharString>
          <CharString index="46">
            rmoveto
            119 94 124 106 74 -39 84 -92 -118 -96 -125 -105 -75 39 -83 93 hvcurveto
            return
          </CharString>
          <CharString index="47">
            21 -57 callgsubr
            return
          </CharString>
          <CharString index="48">
            20 -31 callgsubr
            return
          </CharString>
          <CharString index="49">
            12 -69 callsubr
            return
          </CharString>
          <CharString index="50">
            20 333 -12 callgsubr
            return
          </CharString>
          <CharString index="51">
            33 hmoveto
            -54 callsubr
            return
          </CharString>
          <CharString index="52">
            hmoveto
            20 hlineto
            return
          </CharString>
          <CharString index="53">
            443 hlineto
            4 20 rlineto
            -423 hlineto
            return
          </CharString>
          <CharString index="54">
            -21 507 20 return
          </CharString>
          <CharString index="55">
            5 20 rlineto
            return
          </CharString>
          <CharString index="56">
            rlineto
            20 hlineto
            return
          </CharString>
          <CharString index="57">
            -39 -40 -13 -26 -32 hvcurveto
            71 162 rlineto
            184 hlineto
            return
          </CharString>
          <CharString index="58">
            -21 507 -19 callgsubr
            455 21 return
          </CharString>
          <CharString index="59">
            hlineto
            -52 callsubr
            return
          </CharString>
          <CharString index="60">
            85 77 124 113 77 38 -72 -70 -84 -77 -124 -112 return
          </CharString>
          <CharString index="61">
            -170 rmoveto
            59 79 56 78 17 hvcurveto
            118 555 -92 callgsubr
            -118 -555 rlineto
            -64 -14 -66 -50 -52 hhcurveto
            -26 -29 -70 callgsubr
            return
          </CharString>
          <CharString index="62">
            -370 -7 callgsubr
            return
          </CharString>
          <CharString index="63">
            110 519 rlineto
            return
          </CharString>
          <CharString index="64">
            21 vstem
            429 -7 rmoveto
            207 154 155 207 206 -154 154 -207 -207 -154 -154 -206 -207 154 -155 207 hvcurveto
            return
          </CharString>
          <CharString index="65">
            -19 callsubr
            61 289 rlineto
            return
          </CharString>
          <CharString index="66">
            rmoveto
            84 83 49 74 42 -30 32 -44 13 hvcurveto
            return
          </CharString>
          <CharString index="67">
            107 -5 -29 callsubr
            return
          </CharString>
          <CharString index="68">
            rlineto
            119 hlineto
            4 20 rlineto
            return
          </CharString>
          <CharString index="69">
            rmoveto
            -11 -13 -15 0 -19 -61 -46 41 -62 hhcurveto
            -24 -21 -8 -11 -13 hvcurveto
            13 -16 rlineto
            9 12 15 6 18 48 50 -41 71 hhcurveto
            24 19 6 9 16 hvcurveto
            return
          </CharString>
          <CharString index="70">
            147 690 rlineto
            return
          </CharString>
          <CharString index="71">
            -38 -10 20 445 20 220 20 hstem
            49 22 436 21 vstem
            237 -10 rmoveto
            148 143 132 154 111 -74 88 -110 return
          </CharString>
          <CharString index="72">
            -106 -499 -51 callsubr
            106 499 rlineto
            return
          </CharString>
          <CharString index="73">
            211 200 return
          </CharString>
          <CharString index="74">
            rmoveto
            42 -31 32 -43 13 vhcurveto
            51 15 47 34 49 vvcurveto
            51 -52 28 -56 -68 -80 -38 -67 -34 28 -26 34 -12 vhcurveto
            -54 -15 -63 -41 -60 vvcurveto
            return
          </CharString>
          <CharString index="75">
            168 -199 rmoveto
            -40 -34 14 23 -28 hvcurveto
            324 407 rlineto
            33 -37 20 -53 -59 vvcurveto
            -155 -141 -140 -134 vhcurveto
            endchar
          </CharString>
          <CharString index="76">
            21 -21 499 20 161 20 20 20 hstem
            33 -55 callsubr
            106 499 rlineto
            177 22 callsubr
            return
          </CharString>
          <CharString index="77">
            -62 callgsubr
            203 -13 callsubr
            return
          </CharString>
          <CharString index="78">
            20 680 20 return
          </CharString>
          <CharString index="79">
            96 85 rlineto
            -33 hlineto
            -76 -73 rlineto
            endchar
          </CharString>
          <CharString index="80">
            124 27 68 71 78 hhcurveto
            49 37 -28 -40 6 hvcurveto
            17 10 rlineto
            return
          </CharString>
          <CharString index="81">
            20 11 27 callsubr
            return
          </CharString>
          <CharString index="82">
            31 21 413 21 return
          </CharString>
          <CharString index="83">
            39 -40 -53 24 -64 hhcurveto
            -202 -197 -210 -218 -83 26 -80 50 -55 hvcurveto
            -57 -69 rlineto
            25 hlineto
            45 55 rlineto
            return
          </CharString>
          <CharString index="84">
            -37 40 53 -23 64 hhcurveto
            202 197 209 217 82 -27 79 -49 56 hvcurveto
            59 72 rlineto
            -608 -420 rmoveto
            return
          </CharString>
          <CharString index="85">
            31 86 16 74 rlineto
            -26 hlineto
            -15 -74 rlineto
            9 hlineto
            -28 -86 rlineto
            return
          </CharString>
          <CharString index="86">
            hvcurveto
            -19 6 rlineto
            return
          </CharString>
          <CharString index="87">
            -10 -26 callsubr
            return
          </CharString>
          <CharString index="88">
            hvcurveto
            -61 -289 -51 callsubr
            return
          </CharString>
          <CharString index="89">
            16 74 rlineto
            -25 hlineto
            -16 -74 rlineto
            9 hlineto
            return
          </CharString>
          <CharString index="90">
            -159 -203 -21 743 -20 return
          </CharString>
          <CharString index="91">
            hlineto
            -151 -710 rlineto
            return
          </CharString>
          <CharString index="92">
            7 28 37 5 27 57 29 -20 56 hhcurveto
            33 34 7 15 38 hvcurveto
            -2 19 rlineto
            -15 -42 -30 -6 -26 hhcurveto
            return
          </CharString>
          <CharString index="93">
            rmoveto
            -189 169 -5 -22 174 -156 -240 -157 -5 -22 262 170 rlineto
            endchar
          </CharString>
          <CharString index="94">
            -20 hstemhm
            31 20 return
          </CharString>
          <CharString index="95">
            57 10 -20 hstemhm
            return
          </CharString>
          <CharString index="96">
            rlineto
            354 hlineto
            4 20 rlineto
            -353 hlineto
            67 316 rlineto
            414 hlineto
            4 20 rlineto
            -434 hlineto
            return
          </CharString>
          <CharString index="97">
            123 147 75 -48 46 -72 -91 return
          </CharString>
          <CharString index="98">
            -3 -16 callgsubr
            return
          </CharString>
          <CharString index="99">
            218 -17 186 return
          </CharString>
          <CharString index="100">
            -4 -18 rlineto
            21 hlineto
            return
          </CharString>
          <CharString index="101">
            52 20 605 20 return
          </CharString>
          <CharString index="102">
            75 86 49 69 56 hvcurveto
            return
          </CharString>
          <CharString index="103">
            -55 callgsubr
            hstem
            return
          </CharString>
          <CharString index="104">
            -24 callgsubr
            -20 return
          </CharString>
          <CharString index="105">
            254 rlineto
            return
          </CharString>
          <CharString index="106">
            -51 44 -43 75 84 84 49 74 vhcurveto
            -20 -2 rmoveto
            -63 -78 -40 -64 -51 -54 29 49 vhcurveto
            return
          </CharString>
          <CharString index="107">
            -100 261 20 hstem
            443 261 rmoveto
            4 20 rlineto
            -384 -85 callgsubr
            endchar
          </CharString>
          <CharString index="108">
            -62 14 -21 378 20 299 20 hstem
            25 20 80 20 320 20 29 20 vstem
            return
          </CharString>
          <CharString index="109">
            17 -55 callsubr
            -63 callsubr
            return
          </CharString>
          <CharString index="110">
            13 64 rlineto
            -19 hlineto
            -14 -64 rlineto
            return
          </CharString>
          <CharString index="111">
            -21 383 -20 hstem
            return
          </CharString>
          <CharString index="112">
            333 rlineto
            return
          </CharString>
          <CharString index="113">
            23 hlineto
            497 710 rlineto
            -438 -85 callgsubr
            404 hlineto
            endchar
          </CharString>
          <CharString index="114">
            -85 -88 55 96 125 138 85 109 85 88 -56 -96 return
          </CharString>
          <CharString index="115">
            -11 12 callsubr
          </CharString>
          <CharString index="116">
            21 -21 520 20 hstem
            return
          </CharString>
          <CharString index="117">
            -191 -21 202 -26 callsubr
            hstemhm
            hintmask 11010000
            return
          </CharString>
          <CharString index="118">
            rmoveto
            -50 callsubr
            return
          </CharString>
          <CharString index="119">
            -82 callsubr
            endchar
          </CharString>
          <CharString index="120">
            rmoveto
            16 17 rlineto
            -22 5 -12 13 19 vvcurveto
            33 21 23 return
          </CharString>
          <CharString index="121">
            -30 -50 vhcurveto
            -192 162 rmoveto
            return
          </CharString>
          <CharString index="122">
            hlineto
            54 -2 callsubr
            return
          </CharString>
          <CharString index="123">
            64 72 hhcurveto
            29 27 -11 -16 12 hvcurveto
            18 12 rlineto
            return
          </CharString>
          <CharString index="124">
            -65 -45 -22 -29 -35 -54 callgsubr
            return
          </CharString>
          <CharString index="125">
            hmoveto
            278 661 277 -661 rlineto
            endchar
          </CharString>
          <CharString index="126">
            81 -112 -148 -143 -132 -154 return
          </CharString>
          <CharString index="127">
            60 61 34 49 29 vhcurveto
            -123 -27 -68 -71 return
          </CharString>
          <CharString index="128">
            -49 -29 20 -58 hhcurveto
            -23 -25 -3 -4 -21 hvcurveto
            return
          </CharString>
          <CharString index="129">
            hlineto
            -35 callsubr
            return
          </CharString>
          <CharString index="130">
            -21 709 -20 21 -20 hstemhm
            return
          </CharString>
          <CharString index="131">
            -169 -51 callgsubr
            return
          </CharString>
          <CharString index="132">
            -162 26 callsubr
            return
          </CharString>
          <CharString index="133">
            0 20 479 20 return
          </CharString>
          <CharString index="134">
            -21 519 -20 return
          </CharString>
          <CharString index="135">
            346 rmoveto
            112 hlineto
            5 -20 3 -21 return
          </CharString>
          <CharString index="136">
            730 rmoveto
            -33 hlineto
            -76 -73 13 -12 rlineto
            return
          </CharString>
          <CharString index="137">
            246 -68 -20 69 161 -19 -20 hstemhm
            return
          </CharString>
          <CharString index="138">
            -20 39 -20 hstemhm
            return
          </CharString>
          <CharString index="139">
            -54 -71 -32 -54 return
          </CharString>
        <CharString name=".notdef">
          -619 endchar
        </CharString>
        <CharString name="A">
          -61 callgsubr
          hstem
          -101 callsubr
          endchar
        </CharString>
        <CharString name="A.sc">
          -62 -4 callgsubr
          -31 hmoveto
          22 hlineto
          125 190 rlineto
          285 hlineto
          44 -190 rlineto
          21 hlineto
          -124 540 rlineto
          -18 hlineto
          -197 -331 rmoveto
          200 303 70 -303 rlineto
          endchar
        </CharString>
        <CharString name="AE">
          302 0 20 234 20 79 -12 callgsubr
          -62 callsubr
          endchar
        </CharString>
        <CharString name="AEacute">
          302 0 20 234 20 79 -12 callgsubr
          208 -20 -62 callsubr
          204 644 -95 callsubr
        </CharString>
        <CharString name="Aacute">
          -61 callgsubr
          228 -20 hstem
          -101 callsubr
          35 644 -95 callsubr
        </CharString>
        <CharString name="Abreve">
          -61 callgsubr
          228 -20 hstem
          -101 callsubr
          -51 584 -104 callsubr
        </CharString>
        <CharString name="Acircumflex">
          -61 callgsubr
          228 -20 hstem
          -101 callsubr
          -130 558 -100 callsubr
        </CharString>
        <CharString name="Adblgrave">
          -61 callgsubr
          228 -20 hstem
          -101 callsubr
          14 559 rmoveto
          19 12 -88 callgsubr
        </CharString>
        <CharString name="Adieresis">
          -61 callgsubr
          228 -20 hstem
          -101 callsubr
          -95 567 -95 callgsubr
        </CharString>
        <CharString name="Agrave">
          -61 callgsubr
          228 -20 hstem
          -101 callsubr
          -43 559 -75 callsubr
        </CharString>
        <CharString name="Ainvertedbreve">
          -61 callgsubr
          228 -20 hstem
          -101 callsubr
          -111 567 -98 callgsubr
          -78 callsubr
        </CharString>
        <CharString name="Amacron">
          -61 callgsubr
          184 20 hstem
          -101 callsubr
          90 600 -72 callsubr
        </CharString>
        <CharString name="Aogonek">
          28 -138 -21 180 -57 callgsubr
          hstem
          447 20 vstem
          485 -159 rmoveto
          -76 callgsubr
          -142 710 rlineto
          -18 hlineto
          -445 -710 rlineto
          22 hlineto
          159 -2 callsubr
          351 hlineto
          50 -250 rlineto
          -72 -47 -24 -30 -37 -54 callgsubr
          -331 433 rmoveto
          255 407 80 -407 rlineto
          endchar
        </CharString>
        <CharString name="Aring">
          -61 callgsubr
          114 114 hstem
          389 111 vstem
          -101 callsubr
          -100 576 -68 callsubr
          64 52 -73 callsubr
          endchar
        </CharString>
        <CharString name="Aringacute">
          29 -60 callsubr
          228 -20 hstem
          369 111 vstem
          369 740 rmoveto
          -21 11 -17 17 -6 vhcurveto
          -436 -696 rlineto
          22 hlineto
          159 -2 callsubr
          351 hlineto
          51 -254 rlineto
          22 hlineto
          -139 696 rlineto
          29 7 24 27 32 vvcurveto
          26 -17 20 -26 -35 -33 -31 -37 vhcurveto
          -215 -466 rmoveto
          255 407 80 -407 rlineto
          -56 518 -73 callsubr
          133 126 -95 callsubr
        </CharString>
        <CharString name="Atilde">
          -61 callgsubr
          161 -12 callsubr
          hintmask 11110000
          -101 callsubr
          8 577 rmoveto
          hintmask 11101000
          -87 callsubr
          hintmask 11110000
          -97 callgsubr
        </CharString>
        <CharString name="B">
          9 0 20 328 20 322 20 hstem
          537 21 25 20 vstem
          33 hmoveto
          313 hlineto
          104 108 104 114 66 -33 60 -59 20 hvcurveto
          78 34 59 80 87 vvcurveto
          74 -41 71 -79 vhcurveto
          -299 hlineto
          -127 -690 rmoveto
          -11 callgsubr
          rlineto
          299 hlineto
          69 42 -62 -71 -96 -93 -99 -94 hvcurveto
          -219 348 rmoveto
          69 322 rlineto
          278 hlineto
          67 38 -59 -69 -94 -86 -100 -93 hvcurveto
          endchar
        </CharString>
        <CharString name="B.sc">
          -75 9 callsubr
          439 20 11 21 vstem
          29 hmoveto
          257 hlineto
          87 86 77 87 51 -28 46 -49 16 hvcurveto
          63 25 46 60 66 vvcurveto
          57 -34 55 -66 vhcurveto
          -247 hlineto
          -91 -521 rmoveto
          52 244 rlineto
          242 hlineto
          57 35 -47 -54 -71 -74 -72 -75 hvcurveto
          -181 263 rmoveto
          50 238 rlineto
          226 hlineto
          54 31 -44 -52 -70 -65 -72 -75 hvcurveto
          endchar
        </CharString>
        <CharString name="C">
          44 -6 -29 callsubr
          -96 callgsubr
          endchar
        </CharString>
        <CharString name="C.sc">
          -48 -5 20 508 20 hstem
          41 20 vstem
          246 -5 rmoveto
          83 107 45 81 55 hvcurveto
          -17 6 rlineto
          -78 -59 -90 -34 -72 hhcurveto
          -117 -75 98 114 137 123 159 175 69 70 -27 -79 25 hvcurveto
          20 8 rlineto
          68 -19 -60 50 -98 hhcurveto
          -189 -136 -171 -145 -118 75 -114 130 hvcurveto
          endchar
        </CharString>
        <CharString name="CR">
          -619 endchar
        </CharString>
        <CharString name="Cacute">
          44 -6 -29 callsubr
          204 -20 -96 callgsubr
          274 924 -95 callsubr
        </CharString>
        <CharString name="Ccaron">
          44 -6 -29 callsubr
          204 -20 -96 callgsubr
          174 838 -91 callgsubr
        </CharString>
        <CharString name="Ccedilla">
          41 -162 111 -16 81 680 20 hstemhm
          49 20 hintmask 10110000
          186 -143 -79 callgsubr
          39 52 101 4 122 57 67 103 rlinecurve
          -18 5 rlineto
          hintmask 01110000
          -104 -74 -113 -46 -89 hhcurveto
          -141 -91 128 151 185 158 216 216 86 85 -37 -104 30 hvcurveto
          20 6 rlineto
          90 -21 -72 65 -120 hhcurveto
          -232 -170 -228 -193 -150 85 -142 148 -6 hvcurveto
          -58 -78 rlineto
          -80 callsubr
        </CharString>
        <CharString name="Ccircumflex">
          44 -6 -29 callsubr
          204 -20 -96 callgsubr
          109 838 -100 callsubr
        </CharString>
        <CharString name="Cdotaccent">
          44 -6 -29 callsubr
          204 -20 -96 callgsubr
          202 847 -74 callsubr
          endchar
        </CharString>
        <CharString name="D">
          65 27 callgsubr
          hstem
          633 20 vstem
          -99 callsubr
          endchar
        </CharString>
        <CharString name="D.sc">
          -29 9 callsubr
          513 21 vstem
          29 hmoveto
          179 hlineto
          188 138 140 190 118 -66 92 -145 hvcurveto
          -179 hlineto
          -91 -521 rmoveto
          106 501 rlineto
          159 hlineto
          130 65 -80 -113 -163 -111 -145 -190 hvcurveto
          endchar
        </CharString>
        <CharString name="Dcaron">
          65 27 callgsubr
          208 -20 hstem
          633 20 vstem
          -99 callsubr
          183 812 -91 callgsubr
        </CharString>
        <CharString name="Dcroat">
          -72 callgsubr
        </CharString>
        <CharString name="Ddotbelow">
          65 -106 -21 127 20 670 20 hstem
          633 20 vstem
          -99 callsubr
          -10 -147 -74 callsubr
          endchar
        </CharString>
        <CharString name="Delta">
          23 0 20 690 -20 hstem
          298 710 rmoveto
          -18 hlineto
          -291 -690 rlineto
          -20 599 20 vlineto
          -577 18 callsubr
        </CharString>
        <CharString name="E">
          -31 0 20 333 20 317 -42 callgsubr
          endchar
        </CharString>
        <CharString name="E.sc">
          -111 9 callsubr
          29 hmoveto
          364 -37 callgsubr
          -344 hlineto
          52 247 rlineto
          296 -37 callgsubr
          -296 hlineto
          50 235 rlineto
          338 hlineto
          4 20 rlineto
          -357 hlineto
          endchar
        </CharString>
        <CharString name="Eacute">
          -67 callsubr
          208 -20 hstem
          -103 callsubr
          310 208 -95 callsubr
        </CharString>
        <CharString name="Ebreve">
          -67 callsubr
          -20 168 60 -20 hstemhm
          hintmask 11101000
          -103 callsubr
          hintmask 11011000
          245 148 -104 callsubr
        </CharString>
        <CharString name="Ecaron">
          -67 callsubr
          208 -20 hstem
          -103 callsubr
          229 122 -91 callgsubr
        </CharString>
        <CharString name="Ecircumflex">
          -67 callsubr
          208 -20 hstem
          -103 callsubr
          167 122 -100 callsubr
        </CharString>
        <CharString name="Edblgrave">
          -67 callsubr
          -20 228 hstemhm
          hintmask 11100000
          -103 callsubr
          287 123 rmoveto
          19 12 rlineto
          hintmask 11010000
          -88 callgsubr
        </CharString>
        <CharString name="Edieresis">
          -67 callsubr
          208 -20 hstem
          -103 callsubr
          197 131 -95 callgsubr
        </CharString>
        <CharString name="Edotaccent">
          -67 callsubr
          208 -20 hstem
          -103 callsubr
          259 131 -74 callsubr
          endchar
        </CharString>
        <CharString name="Edotbelow">
          -31 -106 -21 127 20 333 20 317 -42 callgsubr
          52 -837 -74 callsubr
          endchar
        </CharString>
        <CharString name="Egrave">
          -67 callsubr
          208 -20 hstem
          -103 callsubr
          244 123 -75 callsubr
        </CharString>
        <CharString name="Einvertedbreve">
          -67 callsubr
          -20 228 hstemhm
          hintmask 11100000
          -103 callsubr
          177 131 -98 callgsubr
          hintmask 11010000
          -78 callsubr
        </CharString>
        <CharString name="Emacron">
          -67 callsubr
          164 -42 callgsubr
          384 164 -72 callsubr
        </CharString>
        <CharString name="Eng">
          125 -170 20 171 23 callsubr
          hintmask 11100000
          419 -170 rmoveto
          60 79 56 78 17 hvcurveto
          158 745 -92 callgsubr
          -145 -680 rlineto
          hintmask 11010000
          -369 681 rlineto
          -15 -16 callsubr
          -26 callgsubr
          366 -675 -7 -32 rlineto
          -64 -14 -66 -50 -52 hhcurveto
          -27 -28 5 21 -19 hvcurveto
          -18 -12 rlineto
          -26 20 31 -8 37 hhcurveto
          endchar
        </CharString>
        <CharString name="Eogonek">
          -31 -138 -21 159 -57 callsubr
          hstem
          159 20 vstem
          33 hmoveto
          215 hlineto
          -66 -45 -23 -29 -36 -54 callgsubr
          -76 callgsubr
          198 hlineto
          4 20 rlineto
          -423 hlineto
          71 5 callsubr
          363 hlineto
          4 20 rlineto
          -363 hlineto
          68 317 rlineto
          414 hlineto
          4 20 rlineto
          -434 hlineto
          endchar
        </CharString>
        <CharString name="Eth">
          -72 callgsubr
        </CharString>
        <CharString name="Etilde">
          -67 callsubr
          -20 180 -19 -12 callsubr
          hintmask 11101000
          -103 callsubr
          294 141 rmoveto
          hintmask 11010100
          -87 callsubr
          hintmask 11101000
          -97 callgsubr
        </CharString>
        <CharString name="Euro">
          157 -6 20 277 20 70 20 293 20 hstem
          146 20 vstem
          101 401 rmoveto
          -14 -20 rlineto
          70 hlineto
          -6 -24 -4 -23 -1 -23 rrcurveto
          -102 hlineto
          -14 -20 rlineto
          116 hlineto
          -153 1 88 -144 155 hhcurveto
          103 130 58 107 69 hvcurveto
          -17 5 rlineto
          -104 -75 -113 -46 -89 hhcurveto
          -141 -90 127 150 -1 hvcurveto
          322 hlineto
          14 20 rlineto
          -336 hlineto
          1 23 4 23 6 24 rrcurveto
          368 hlineto
          14 20 rlineto
          -377 hlineto
          152 46 137 141 175 hhcurveto
          86 85 -37 -104 30 hvcurveto
          20 6 rlineto
          90 -21 -72 65 -120 hhcurveto
          -190 -148 -152 -161 -48 hvcurveto
          endchar
        </CharString>
        <CharString name="F">
          -31 21 -21 354 20 316 20 hstem
          33 -55 callsubr
          75 354 -11 callsubr
          endchar
        </CharString>
        <CharString name="F.sc">
          -115 21 -21 266 20 234 20 hstem
          29 -55 callsubr
          56 266 rlineto
          288 hlineto
          4 20 rlineto
          -287 hlineto
          49 234 rlineto
          337 hlineto
          4 20 rlineto
          -356 hlineto
          endchar
        </CharString>
        <CharString name="G">
          -41 callgsubr
          hstemhm
          52 20 hintmask 01111000
          -75 callgsubr
          hintmask 10111000
          -96 callsubr
          endchar
        </CharString>
        <CharString name="G.alt">
          86 -5 20 294 20 366 20 hstem
          52 20 vstem
          297 -5 rmoveto
          166 158 149 164 55 hvcurveto
          3 9 2 6 1 6 rrcurveto
          -255 -85 callgsubr
          233 hlineto
          -151 -51 -143 -143 -159 hhcurveto
          -145 -86 129 145 194 175 212 199 104 75 -62 -89 33 hvcurveto
          17 14 rlineto
          91 -35 -77 66 -111 hhcurveto
          -203 -197 -210 -217 -154 91 -139 154 hvcurveto
          endchar
        </CharString>
        <CharString name="G.sc">
          -28 -4 20 5 -21 524 31 callsubr
          40 20 hintmask 01101000
          446 -55 callsubr
          55 258 rlineto
          -149 hlineto
          -4 -19 rlineto
          129 hlineto
          -26 -123 rlineto
          hintmask 10101000
          -69 -75 -72 -31 -71 hhcurveto
          -116 -77 97 114 138 129 159 163 84 62 -31 -75 25 hvcurveto
          20 8 rlineto
          hintmask 10011000
          68 -21 -52 49 -114 hhcurveto
          -168 -148 -162 -156 -116 76 -113 132 75 72 31 63 70 hvcurveto
          endchar
        </CharString>
        <CharString name="Gacute">
          -41 callgsubr
          203 -20 hstemhm
          52 20 hintmask 01111100
          -75 callgsubr
          hintmask 10111100
          -96 callsubr
          hintmask 01111100
          -18 797 -95 callsubr
        </CharString>
        <CharString name="Gbreve">
          -41 callgsubr
          -20 163 60 -20 hstemhm
          52 20 hintmask 01110110
          -75 callgsubr
          hintmask 10110110
          -96 callsubr
          hintmask 01101110
          -102 737 -104 callsubr
        </CharString>
        <CharString name="Gcircumflex">
          -41 callgsubr
          203 -20 hstemhm
          52 20 hintmask 01111100
          -75 callgsubr
          hintmask 10111100
          -96 callsubr
          hintmask 01111100
          -183 711 -100 callsubr
        </CharString>
        <CharString name="Gcommaaccent">
          69 -146 -21 162 20 6 -21 318 20 357 20 hstemhm
          52 20 hintmask 10111100
          -75 callgsubr
          hintmask 11011100
          -96 callsubr
          hintmask 10111100
          -313 -288 -90 callsubr
        </CharString>
        <CharString name="Gdotaccent">
          -41 callgsubr
          203 -20 hstemhm
          52 20 hintmask 01111100
          -75 callgsubr
          hintmask 10111100
          -96 callsubr
          hintmask 01111100
          -89 720 -74 callsubr
          endchar
        </CharString>
        <CharString name="H">
          82 21 -21 353 20 337 -20 hstem
          33 -55 callsubr
          75 353 rlineto
          467 hlineto
          -75 -353 -51 callsubr
          151 710 -92 callgsubr
          -72 -337 rlineto
          -467 hlineto
          72 337 -92 callgsubr
          endchar
        </CharString>
        <CharString name="H.sc">
          -15 21 -21 266 20 254 -20 hstem
          29 -55 callsubr
          56 266 rlineto
          378 hlineto
          -56 -266 -51 callsubr
          115 540 -92 callgsubr
          -54 -254 rlineto
          -378 15 callsubr
          -20 hlineto
          endchar
        </CharString>
        <CharString name="Hbar">
          90 21 -21 353 20 181 20 136 -20 hstem
          107 554 rmoveto
          48 hlineto
          -118 -554 -51 callsubr
          75 353 rlineto
          467 hlineto
          -75 -353 -51 callsubr
          118 554 rlineto
          47 hlineto
          4 20 rlineto
          -47 hlineto
          29 136 -92 callgsubr
          -29 -136 rlineto
          -467 hlineto
          29 136 -92 callgsubr
          -29 -136 rlineto
          -47 hlineto
          24 -201 rmoveto
          38 181 rlineto
          467 hlineto
          -38 -181 rlineto
          endchar
        </CharString>
        <CharString name="Hcircumflex">
          82 21 -21 353 20 337 -20 228 -20 hstem
          33 -55 callsubr
          75 353 rlineto
          467 hlineto
          -75 -353 -51 callsubr
          151 710 -92 callgsubr
          -72 -337 rlineto
          -467 hlineto
          72 337 -92 callgsubr
          199 122 -100 callsubr
        </CharString>
        <CharString name="Hdotbelow">
          82 -106 -21 148 -21 353 20 337 -20 hstem
          33 -55 callsubr
          75 353 rlineto
          467 hlineto
          -75 -353 -51 callsubr
          151 710 -92 callgsubr
          -72 -337 rlineto
          -467 hlineto
          72 337 -92 callgsubr
          86 -837 -74 callsubr
          endchar
        </CharString>
        <CharString name="I">
          -405 21 -21 709 -20 -71 callgsubr
          endchar
        </CharString>
        <CharString name="I.sc">
          -413 21 -21 539 -20 hstem
          29 -55 callsubr
          114 539 rlineto
          -19 hlineto
          endchar
        </CharString>
        <CharString name="IJ">
          53 -11 20 12 -21 709 -20 hstemhm
          hintmask 01100000
          -77 callgsubr
          hintmask 10100000
          135 -720 rmoveto
          178 52 144 216 46 hvcurveto
          77 360 -92 callgsubr
          -77 -360 rlineto
          -212 -45 -46 -128 -161 hhcurveto
          -54 -43 14 26 -30 hvcurveto
          -14 -16 rlineto
          -29 34 45 -15 58 hhcurveto
          endchar
        </CharString>
        <CharString name="Iacute">
          -81 callsubr
          121 209 -95 callsubr
        </CharString>
        <CharString name="Ibreve">
          -81 callsubr
          32 149 -104 callsubr
        </CharString>
        <CharString name="Icircumflex">
          -81 callsubr
          -45 123 -100 callsubr
        </CharString>
        <CharString name="Idblgrave">
          -81 callsubr
          97 124 rmoveto
          19 12 -88 callgsubr
        </CharString>
        <CharString name="Idieresis">
          -81 callsubr
          -10 132 -95 callgsubr
        </CharString>
        <CharString name="Idotaccent">
          -81 callsubr
          47 132 -74 callsubr
          endchar
        </CharString>
        <CharString name="Idotbelow">
          -405 -106 -21 148 -21 709 -20 -71 callgsubr
          -158 -836 -74 callsubr
          endchar
        </CharString>
        <CharString name="Igrave">
          -81 callsubr
          35 124 -75 callsubr
        </CharString>
        <CharString name="Iinvertedbreve">
          -81 callsubr
          -28 132 -98 callgsubr
          -78 callsubr
        </CharString>
        <CharString name="Imacron">
          -405 21 -21 874 20 -71 callgsubr
          177 165 -72 callsubr
        </CharString>
        <CharString name="Iogonek">
          -404 -138 -21 868 -20 hstem
          -65 20 vstem
          -27 -159 rmoveto
          -76 callgsubr
          151 709 -92 callgsubr
          -149 -700 rlineto
          -74 -50 -27 -31 -38 -54 callgsubr
          endchar
        </CharString>
        <CharString name="Itilde">
          -405 21 -21 851 -12 callsubr
          hintmask 11000000
          -77 callgsubr
          90 142 rmoveto
          hintmask 10100000
          -87 callsubr
          hintmask 11000000
          -97 callgsubr
        </CharString>
        <CharString name="J">
          -161 -11 20 700 -20 hstem
          105 -11 rmoveto
          178 52 144 216 46 hvcurveto
          77 360 -92 callgsubr
          -77 -360 rlineto
          -212 -45 -46 -128 -161 hhcurveto
          -54 -43 14 26 -30 hvcurveto
          -14 -16 rlineto
          -29 34 45 -15 58 hhcurveto
          endchar
        </CharString>
        <CharString name="J.sc">
          -216 13 -21 547 -20 hstem
          86 -8 rmoveto
          147 42 109 164 35 hvcurveto
          58 274 -92 callgsubr
          -58 -274 rlineto
          -159 -34 -35 -95 -131 hhcurveto
          -44 -36 11 19 -24 hvcurveto
          -13 -16 rlineto
          -22 28 37 -11 48 hhcurveto
          endchar
        </CharString>
        <CharString name="Jcircumflex">
          -161 -11 20 909 -20 hstem
          105 -11 rmoveto
          178 52 144 216 46 hvcurveto
          77 360 -92 callgsubr
          -77 -360 rlineto
          -212 -45 -46 -128 -161 hhcurveto
          -54 -43 14 26 -30 hvcurveto
          -14 -16 rlineto
          -29 34 45 -15 58 hhcurveto
          283 843 -100 callsubr
        </CharString>
        <CharString name="K">
          -28 21 23 callsubr
          hintmask 10100000
          -36 callgsubr
          hintmask 11000000
          98 460 -92 callgsubr
          endchar
        </CharString>
        <CharString name="K.sc">
          -104 21 -21 539 -20 21 -20 hstemhm
          hintmask 10100000
          29 -55 callsubr
          36 168 150 122 174 -290 rlineto
          25 hlineto
          -182 304 286 236 rlineto
          -28 hlineto
          -420 -346 rlineto
          hintmask 11000000
          73 345 rlineto
          -19 hlineto
          endchar
        </CharString>
        <CharString name="Kcommaaccent">
          -28 -146 -21 188 23 callsubr
          hintmask 11010000
          -36 callgsubr
          hintmask 11100000
          98 460 -92 callgsubr
          16 -876 -90 callsubr
        </CharString>
        <CharString name="L">
          -67 0 20 690 -20 hstem
          -56 callsubr
          -37 callsubr
          -20 hlineto
          endchar
        </CharString>
        <CharString name="L.sc">
          -146 -4 callgsubr
          29 hmoveto
          364 -37 callgsubr
          -344 hlineto
          111 521 -92 callgsubr
          endchar
        </CharString>
        <CharString name="Lacute">
          -67 0 20 690 -20 228 -20 hstem
          -56 callsubr
          -37 callsubr
          -20 hlineto
          125 208 -95 callsubr
        </CharString>
        <CharString name="Lcaron">
          -67 0 20 690 -20 40 -20 hstemhm
          hintmask 11000000
          -56 callsubr
          -37 callsubr
          -20 hlineto
          84 -65 rmoveto
          hintmask 10100000
          -28 callsubr
        </CharString>
        <CharString name="Lcommaaccent">
          -67 -146 -21 167 20 690 -20 hstem
          -56 callsubr
          -37 callsubr
          -20 hlineto
          32 -877 -90 callsubr
        </CharString>
        <CharString name="Ldot">
          -67 0 20 690 -20 hstem
          -56 callsubr
          -37 callsubr
          -20 hlineto
          170 -350 -20 callgsubr
        </CharString>
        <CharString name="Lslash">
          -59 0 20 690 -20 hstem
          28 221 rmoveto
          73 63 -60 -284 rlineto
          -54 callsubr
          61 285 234 201 -10 15 -218 -188 80 377 -92 callgsubr
          -85 -398 -89 -76 rlineto
          endchar
        </CharString>
        <CharString name="M">
          227 -4 callsubr
          33 -55 callsubr
          142 666 186 -526 rlineto
          16 hlineto
          409 526 -141 -666 -51 callsubr
          151 710 rlineto
          -16 hlineto
          -426 -546 -194 546 rlineto
          -16 hlineto
          endchar
        </CharString>
        <CharString name="M.sc">
          102 -4 callgsubr
          29 -55 callsubr
          106 498 157 -392 rlineto
          15 hlineto
          323 392 -105 -498 rlineto
          19 hlineto
          115 540 rlineto
          -17 hlineto
          -337 -409 -164 409 rlineto
          -17 hlineto
          endchar
        </CharString>
        <CharString name="N">
          124 21 23 callsubr
          hintmask 11000000
          -87 callgsubr
          rlineto
          hintmask 10100000
          -45 callsubr
          endchar
        </CharString>
        <CharString name="N.sc">
          19 21 -21 539 -20 21 -20 hstemhm
          hintmask 11000000
          29 -55 callsubr
          106 501 304 -501 rlineto
          22 hlineto
          114 539 -92 callgsubr
          -107 -508 rlineto
          hintmask 10100000
          -309 509 rlineto
          -15 hlineto
          endchar
        </CharString>
        <CharString name="NULL">
          -619 endchar
        </CharString>
        <CharString name="Nacute">
          124 9 callgsubr
          -87 callgsubr
          -45 callsubr
          390 208 -95 callsubr
        </CharString>
        <CharString name="Ncaron">
          124 9 callgsubr
          -87 callgsubr
          -45 callsubr
          296 122 -91 callgsubr
        </CharString>
        <CharString name="Ncommaaccent">
          124 -146 -21 188 23 callsubr
          hintmask 11100000
          -87 callgsubr
          rlineto
          hintmask 11010000
          -45 callsubr
          96 -877 -90 callsubr
        </CharString>
        <CharString name="Ndotaccent">
          124 9 callgsubr
          -87 callgsubr
          -45 callsubr
          323 131 -74 callsubr
          endchar
        </CharString>
        <CharString name="Ntilde">
          124 -55 callgsubr
          161 -12 callsubr
          hintmask 11100000
          -87 callgsubr
          -45 callsubr
          370 141 rmoveto
          hintmask 11010000
          -87 callsubr
          hintmask 11100000
          -97 callgsubr
        </CharString>
        <CharString name="O">
          -40 callsubr
          hstem
          -6 callsubr
          vstem
          -106 callgsubr
          endchar
        </CharString>
        <CharString name="O.sc">
          3 -4 20 508 31 callsubr
          40 21 487 20 hintmask 10111000
          247 -4 rmoveto
          165 156 157 163 116 -73 111 -132 -165 -158 -158 -163 -118 75 -108 132 32 callgsubr
          -119 -71 98 111 hvcurveto
          hintmask 11011000
          143 138 156 160 116 73 -98 -112 -141 -136 -157 -161 vhcurveto
          endchar
        </CharString>
        <CharString name="OE">
          530 0 20 -4 -21 358 20 337 -20 25 -20 hstemhm
          52 20 hintmask 01110100
          301 -5 rmoveto
          136 134 105 134 72 hvcurveto
          hintmask 10110100
          -50 -234 26 callgsubr
          -422 hlineto
          70 5 callsubr
          363 -48 callsubr
          -363 hlineto
          67 317 rlineto
          414 -48 callsubr
          -435 hlineto
          -50 -235 rlineto
          hintmask 01101100
          131 -14 -85 109 -143 hhcurveto
          -203 -197 -210 -217 -153 90 -140 159 hvcurveto
          2 20 -76 callsubr
          176 -34 callsubr
          141 -84 callgsubr
          endchar
        </CharString>
        <CharString name="Oacute">
          -40 callsubr
          203 -20 hstem
          -6 callsubr
          vstem
          -106 callgsubr
          259 903 -95 callsubr
        </CharString>
        <CharString name="Obreve">
          -40 callsubr
          -20 163 60 -20 -25 callgsubr
          hintmask 11011100
          -106 callgsubr
          hintmask 10111100
          172 843 -104 callsubr
        </CharString>
        <CharString name="Ocircumflex">
          -40 callsubr
          203 -20 hstem
          -6 callsubr
          vstem
          -106 callgsubr
          95 817 -100 callsubr
        </CharString>
        <CharString name="Odblgrave">
          -40 callsubr
          -20 223 -25 callgsubr
          hintmask 11011000
          -106 callgsubr
          240 818 rmoveto
          19 12 rlineto
          hintmask 10111000
          -88 callgsubr
        </CharString>
        <CharString name="Odieresis">
          -40 callsubr
          203 -20 hstem
          -6 callsubr
          vstem
          -106 callgsubr
          129 826 -95 callgsubr
        </CharString>
        <CharString name="Odotbelow">
          107 -106 -21 122 -29 callsubr
          hstem
          -6 callsubr
          vstem
          -106 callgsubr
          -21 -142 -74 callsubr
          endchar
        </CharString>
        <CharString name="Ograve">
          -40 callsubr
          203 -20 hstem
          -6 callsubr
          vstem
          -106 callgsubr
          182 818 -75 callsubr
        </CharString>
        <CharString name="Ohungarumlaut">
          -40 callsubr
          -20 223 -25 callgsubr
          hintmask 11011000
          -106 callgsubr
          hintmask 10111000
          190 903 rmoveto
          -33 hlineto
          -76 -73 13 -12 rlineto
          192 85 -95 callsubr
        </CharString>
        <CharString name="Oinvertedbreve">
          -40 callsubr
          -20 223 -25 callgsubr
          hintmask 11011000
          -106 callgsubr
          108 826 -98 callgsubr
          hintmask 10111000
          -78 callsubr
        </CharString>
        <CharString name="Omacron">
          -40 callsubr
          159 20 hstem
          -6 callsubr
          vstem
          -106 callgsubr
          312 859 -72 callsubr
        </CharString>
        <CharString name="Omega">
          -74 callgsubr
        </CharString>
        <CharString name="Oogonek">
          107 -142 -21 858 20 hstem
          52 20 122 20 463 20 vstem
          232 6 callgsubr
          197 9 188 204 212 vvcurveto
          150 -88 144 -158 -202 -197 -210 -218 -147 82 -136 148 -8 vhcurveto
          -66 -45 -22 -29 -36 -54 callgsubr
          71 178 -76 callsubr
          175 -34 callsubr
          142 -84 callgsubr
          endchar
        </CharString>
        <CharString name="Oslash">
          107 -5 20 6 -21 695 20 -5 -20 -25 callgsubr
          hintmask 10011100
          655 710 rmoveto
          -47 -58 rlineto
          hintmask 01101100
          -24 callsubr
          hintmask 10011100
          -23 callsubr
          hintmask 10101100
          -56 callgsubr
          endchar
        </CharString>
        <CharString name="Oslashacute">
          107 -5 20 6 -21 695 20 -5 -20 228 -20 -25 callgsubr
          hintmask 10011110
          655 710 rmoveto
          -47 -58 rlineto
          hintmask 01101110
          -24 callsubr
          hintmask 10011110
          -23 callsubr
          hintmask 10101110
          -56 callgsubr
          247 903 -95 callsubr
        </CharString>
        <CharString name="Otilde">
          -40 callsubr
          -20 175 -19 57 10 -20 -25 callgsubr
          hintmask 11010110
          -106 callgsubr
          232 836 rmoveto
          hintmask 10101110
          -87 callsubr
          hintmask 11010110
          -97 callgsubr
        </CharString>
        <CharString name="P">
          -24 -16 callgsubr
          hstem
          588 20 vstem
          33 -55 callsubr
          59 279 rlineto
          262 11 callgsubr
          -275 hlineto
          -67 -411 rmoveto
          83 391 rlineto
          254 hlineto
          81 53 -75 -85 -106 -92 -125 -118 hvcurveto
          endchar
        </CharString>
        <CharString name="P.sc">
          -104 21 -21 210 20 290 20 hstem
          474 21 vstem
          29 -55 callsubr
          45 210 rlineto
          211 hlineto
          103 87 99 93 70 -47 68 -79 hvcurveto
          -225 17 callgsubr
          66 43 -57 -64 -78 -71 -91 -94 hvcurveto
          endchar
        </CharString>
        <CharString name="Q">
          106 -5 20 6 -21 695 20 -25 callgsubr
          hintmask 01111000
          554 hmoveto
          25 hlineto
          -48 87 rlineto
          98 81 68 125 128 vvcurveto
          150 -87 144 -158 -203 -197 -210 -218 vhcurveto
          hintmask 10111000
          -152 89 -140 158 76 75 29 49 64 vhcurveto
          hintmask 01111000
          hintmask 10111000
          -211 -58 -76 callsubr
          176 -34 callsubr
          141 88 -129 -147 -115 -62 -122 -93 -79 hvcurveto
          -45 83 rlineto
          -25 hlineto
          53 -97 rlineto
          -46 -59 -70 -28 -73 hhcurveto
          endchar
        </CharString>
        <CharString name="Q.sc">
          2 -4 20 5 -21 524 31 callsubr
          40 20 487 21 hintmask 01011100
          454 hmoveto
          24 hlineto
          -41 66 rlineto
          77 61 54 93 96 vvcurveto
          116 -74 111 -131 -166 -157 -158 -163 vhcurveto
          hintmask 10011100
          -118 75 -108 132 62 60 22 36 52 vhcurveto
          hintmask 01011100
          hintmask 10101100
          -170 -38 rmoveto
          -119 -72 98 111 143 138 156 161 116 72 -98 -112 -84 -48 -88 -72 -59 hvcurveto
          -37 62 rlineto
          -23 hlineto
          44 -75 rlineto
          -33 -46 -56 -21 -58 hhcurveto
          endchar
        </CharString>
        <CharString name="R">
          -9 callsubr
          hstem
          588 20 vstem
          -102 callsubr
          endchar
        </CharString>
        <CharString name="R.sc">
          -85 21 -21 210 20 290 20 hstem
          475 21 vstem
          29 -55 callsubr
          45 210 rlineto
          201 hlineto
          94 -210 rlineto
          24 hlineto
          -95 212 rlineto
          97 8 81 91 91 vvcurveto
          70 -47 68 -79 vhcurveto
          -226 17 callgsubr
          67 43 -57 -63 -81 -74 -89 -92 hvcurveto
          endchar
        </CharString>
        <CharString name="Racute">
          -9 callsubr
          211 -20 hstem
          588 20 vstem
          -102 callsubr
          111 622 -95 callsubr
        </CharString>
        <CharString name="Rcaron">
          -9 callsubr
          211 -20 hstem
          588 20 vstem
          -102 callsubr
          37 536 -91 callgsubr
        </CharString>
        <CharString name="Rcommaaccent">
          -3 -146 -21 188 -39 callgsubr
          hstem
          588 20 vstem
          -102 callsubr
          -165 -466 -90 callsubr
        </CharString>
        <CharString name="Rdblgrave">
          -9 callsubr
          -20 228 hstemhm
          588 20 hintmask 11101000
          -102 callsubr
          105 534 rmoveto
          19 12 rlineto
          hintmask 11011000
          -88 callgsubr
        </CharString>
        <CharString name="Rdotbelow">
          -3 -106 -21 148 -39 callgsubr
          hstem
          588 20 vstem
          -102 callsubr
          -145 -426 -74 callsubr
          endchar
        </CharString>
        <CharString name="Rinvertedbreve">
          -9 callsubr
          -20 228 hstemhm
          588 20 hintmask 11101000
          -102 callsubr
          -18 542 -98 callgsubr
          hintmask 11011000
          -78 callsubr
        </CharString>
        <CharString name="S">
          -40 16 -21 720 -104 callgsubr
          endchar
        </CharString>
        <CharString name="S.sc">
          -115 17 -21 529 -20 38 -20 hstemhm
          84 20 301 21 hintmask 11011000
          198 -4 rmoveto
          137 91 59 103 76 -68 24 -104 21 hvcurveto
          -102 21 -48 20 58 vvcurveto
          83 60 64 145 66 41 -15 -46 33 vhcurveto
          15 15 rlineto
          hintmask 10111000
          46 -34 -48 18 -70 hhcurveto
          -134 -94 -63 -106 -70 60 -23 103 -20 hvcurveto
          106 -21 52 -26 -61 vvcurveto
          -94 -84 -46 -118 -85 -59 26 54 -42 vhcurveto
          -17 -14 rlineto
          -56 48 62 -27 88 hhcurveto
          endchar
        </CharString>
        <CharString name="Sacute">
          -40 16 -21 720 -20 245 -104 callgsubr
          250 945 -95 callsubr
        </CharString>
        <CharString name="Scaron">
          -40 16 -21 720 -20 245 -104 callgsubr
          171 859 -91 callgsubr
        </CharString>
        <CharString name="Schwa">
          88 -10 22 328 22 332 21 hstem
          32 23 598 23 vstem
          281 -10 rmoveto
          198 197 197 232 164 -98 132 -150 -111 -127 -72 -95 -55 hvcurveto
          18 -9 rlineto
          94 56 114 61 101 hhcurveto
          137 92 -112 -155 -23 -2 -20 -3 -22 hvcurveto
          -603 hlineto
          -9 -35 -4 -33 -32 vvcurveto
          -159 99 -113 150 vhcurveto
          22 vmoveto
          -157 -69 127 127 25 3 25 5 24 hvcurveto
          580 hlineto
          -185 -36 -159 -143 -167 hhcurveto
          endchar
        </CharString>
        <CharString name="Scircumflex">
          -40 16 -21 720 -20 245 -104 callgsubr
          101 859 -100 callsubr
        </CharString>
        <CharString name="Sdotbelow">
          -40 -106 -21 143 -21 720 -104 callgsubr
          -16 -122 -74 callsubr
          endchar
        </CharString>
        <CharString name="T">
          -45 21 -21 690 20 hstem
          209 -55 callsubr
          -65 callsubr
          endchar
        </CharString>
        <CharString name="T.sc">
          -124 9 callsubr
          172 -55 callsubr
          111 520 rlineto
          209 -48 callsubr
          -441 -85 callgsubr
          211 hlineto
          endchar
        </CharString>
        <CharString name="Tbar">
          -3 21 -21 404 20 266 20 hstem
          88 404 rmoveto
          229 hlineto
          -85 -404 -51 callsubr
          85 404 rlineto
          230 hlineto
          4 20 rlineto
          -230 hlineto
          57 266 rlineto
          258 -48 callsubr
          -537 -85 callgsubr
          258 hlineto
          -57 -266 rlineto
          -229 hlineto
          endchar
        </CharString>
        <CharString name="Tcaron">
          -45 21 -21 690 20 208 -20 hstem
          209 -55 callsubr
          -65 callsubr
          25 142 -91 callgsubr
        </CharString>
        <CharString name="Tdotbelow">
          -45 -106 -21 148 -21 690 20 hstem
          209 -55 callsubr
          -65 callsubr
          -153 -817 -74 callsubr
          endchar
        </CharString>
        <CharString name="Thorn">
          -45 21 -21 129 20 391 20 150 -20 hstem
          537 20 vstem
          33 -55 callsubr
          27 129 rlineto
          243 11 callgsubr
          -236 hlineto
          32 150 -92 callgsubr
          -99 -561 rmoveto
          83 391 rlineto
          235 hlineto
          81 53 -75 -85 -106 -92 -125 -118 hvcurveto
          endchar
        </CharString>
        <CharString name="U">
          104 -29 callgsubr
          hstem
          83 20 vstem
          -107 callsubr
          endchar
        </CharString>
        <CharString name="U.sc">
          2 -4 20 524 -20 hstem
          67 21 vstem
          247 -4 rmoveto
          169 85 130 144 31 hvcurveto
          57 270 rlineto
          -19 hlineto
          -57 -270 rlineto
          -125 -27 -73 -129 -163 hhcurveto
          -122 -40 73 92 28 4 31 6 30 hvcurveto
          57 270 -92 callgsubr
          -57 -270 rlineto
          -7 -31 -4 -31 -30 vvcurveto
          -100 45 -82 135 vhcurveto
          endchar
        </CharString>
        <CharString name="Uacute">
          -44 callgsubr
          228 -20 hstem
          83 20 vstem
          -107 callsubr
          243 923 -95 callsubr
        </CharString>
        <CharString name="Ubreve">
          -44 callgsubr
          228 -20 hstem
          83 20 vstem
          -107 callsubr
          176 863 -104 callsubr
        </CharString>
        <CharString name="Ucircumflex">
          -44 callgsubr
          228 -20 hstem
          83 20 vstem
          -107 callsubr
          98 837 -100 callsubr
        </CharString>
        <CharString name="Udblgrave">
          -44 callgsubr
          228 -20 hstem
          83 20 vstem
          -107 callsubr
          240 838 rmoveto
          19 12 -88 callgsubr
        </CharString>
        <CharString name="Udieresis">
          -44 callgsubr
          228 -20 hstem
          83 20 vstem
          -107 callsubr
          132 846 -95 callgsubr
        </CharString>
        <CharString name="Udotbelow">
          105 -106 -21 122 -2 callgsubr
          hstem
          83 20 vstem
          -107 callsubr
          -16 -122 -74 callsubr
          endchar
        </CharString>
        <CharString name="Ugrave">
          -44 callgsubr
          228 -20 hstem
          83 20 vstem
          -107 callsubr
          189 838 -75 callsubr
        </CharString>
        <CharString name="Uhungarumlaut">
          -44 callgsubr
          228 -20 hstem
          83 20 vstem
          -107 callsubr
          198 923 rmoveto
          -33 hlineto
          -76 -73 13 -12 rlineto
          192 85 -95 callsubr
        </CharString>
        <CharString name="Uinvertedbreve">
          -44 callgsubr
          228 -20 hstem
          83 20 vstem
          -107 callsubr
          110 846 -98 callgsubr
          -78 callsubr
        </CharString>
        <CharString name="Umacron">
          -44 callgsubr
          184 20 hstem
          83 20 vstem
          -107 callsubr
          315 879 -72 callsubr
        </CharString>
        <CharString name="Uogonek">
          105 -142 -21 873 -20 hstem
          83 20 89 20 vstem
          230 6 callgsubr
          199 6 102 168 39 185 75 355 rcurveline
          -20 hlineto
          -75 -355 rlineto
          -166 -35 -91 -174 -203 hhcurveto
          -149 -49 94 120 40 6 43 9 43 hvcurveto
          75 355 -92 callgsubr
          -75 -355 rlineto
          -9 -44 -6 -44 -41 vvcurveto
          -122 49 -101 148 -7 vhcurveto
          -66 -45 -22 -30 -35 -54 callgsubr
          endchar
        </CharString>
        <CharString name="Uring">
          -44 callgsubr
          114 114 hstem
          83 20 321 111 vstem
          -107 callsubr
          126 855 -68 callsubr
          64 52 -73 callsubr
          endchar
        </CharString>
        <CharString name="Utilde">
          -44 callgsubr
          161 -12 callsubr
          83 20 hintmask 11101000
          -107 callsubr
          235 856 rmoveto
          hintmask 11011000
          -87 callsubr
          hintmask 11101000
          -97 callgsubr
        </CharString>
        <CharString name="V">
          25 -4 callsubr
          243 hmoveto
          22 hlineto
          444 710 rlineto
          -22 hlineto
          -427 -685 -138 685 -1 callgsubr
          endchar
        </CharString>
        <CharString name="V.sc">
          -63 -4 callgsubr
          201 -55 callsubr
          355 540 rlineto
          -22 hlineto
          -337 -514 -120 514 -1 callgsubr
          endchar
        </CharString>
        <CharString name="W">
          367 21 -21 710 -94 callsubr
          endchar
        </CharString>
        <CharString name="W.alt">
          353 -4 callsubr
          174 hmoveto
          22 hlineto
          361 678 81 -678 rlineto
          22 hlineto
          369 710 rlineto
          -22 hlineto
          -353 -685 -80 685 rlineto
          -22 hlineto
          -362 -685 -62 685 -1 callgsubr
          endchar
        </CharString>
        <CharString name="W.sc">
          219 -4 callgsubr
          202 -55 callsubr
          192 292 68 -292 rlineto
          21 hlineto
          355 540 rlineto
          -22 hlineto
          -339 -515 -68 288 146 222 -1 callgsubr
          -132 -201 -45 201 -1 callgsubr
          51 -222 -189 -288 -120 515 rlineto
          -22 hlineto
          endchar
        </CharString>
        <CharString name="Wacute">
          367 21 -21 710 -20 228 -94 callsubr
          582 208 -95 callsubr
        </CharString>
        <CharString name="Wcircumflex">
          367 21 -21 710 -20 228 -94 callsubr
          420 122 -100 callsubr
        </CharString>
        <CharString name="Wdieresis">
          367 21 -21 710 -20 228 -94 callsubr
          452 131 -95 callgsubr
        </CharString>
        <CharString name="Wgrave">
          367 21 -21 710 -20 228 -94 callsubr
          526 123 -75 callsubr
        </CharString>
        <CharString name="X">
          -31 -4 callsubr
          -47 hmoveto
          26 hlineto
          323 334 180 -334 rlineto
          25 hlineto
          -190 350 349 360 rlineto
          -25 hlineto
          -333 -344 -186 344 rlineto
          -26 hlineto
          196 -360 rlineto
          endchar
        </CharString>
        <CharString name="X.sc">
          -107 -4 callgsubr
          -36 hmoveto
          25 hlineto
          256 250 151 -250 rlineto
          24 hlineto
          -159 266 280 274 rlineto
          -25 hlineto
          -264 -258 -155 258 rlineto
          -25 hlineto
          164 -274 rlineto
          endchar
        </CharString>
        <CharString name="Y">
          -25 -4 callsubr
          -85 callsubr
          endchar
        </CharString>
        <CharString name="Y.sc">
          -104 -4 callgsubr
          179 -55 callsubr
          45 208 294 332 rlineto
          -23 hlineto
          -277 -311 -143 311 rlineto
          -23 hlineto
          152 -331 rlineto
          endchar
        </CharString>
        <CharString name="Yacute">
          -25 9 callgsubr
          -85 callsubr
          193 641 -95 callsubr
        </CharString>
        <CharString name="Ycircumflex">
          -25 9 callgsubr
          -85 callsubr
          50 555 -100 callsubr
        </CharString>
        <CharString name="Ydieresis">
          -25 9 callgsubr
          -85 callsubr
          81 564 -95 callgsubr
        </CharString>
        <CharString name="Ygrave">
          -25 9 callgsubr
          -85 callsubr
          135 556 -75 callsubr
        </CharString>
        <CharString name="Ytilde">
          -25 -55 callgsubr
          161 -12 callsubr
          hintmask 11100000
          -85 callsubr
          172 574 rmoveto
          hintmask 11010000
          -87 callsubr
          hintmask 11100000
          -97 callgsubr
        </CharString>
        <CharString name="Z">
          -32 27 callgsubr
          hstem
          -40 hmoveto
          -88 callsubr
          endchar
        </CharString>
        <CharString name="Z.sc">
          -107 9 callsubr
          -29 hmoveto
          439 -37 callgsubr
          -414 hlineto
          524 502 4 19 rlineto
          -438 hlineto
          -5 -20 rlineto
          414 hlineto
          -524 -501 rlineto
          endchar
        </CharString>
        <CharString name="Zacute">
          -32 27 callgsubr
          208 -20 hstem
          -40 hmoveto
          -88 callsubr
          507 898 -95 callsubr
        </CharString>
        <CharString name="Zcaron">
          -32 27 callgsubr
          208 -20 hstem
          -40 hmoveto
          -88 callsubr
          431 812 -91 callgsubr
        </CharString>
        <CharString name="Zdotaccent">
          -32 27 callgsubr
          208 -20 hstem
          -40 hmoveto
          -88 callsubr
          455 821 -74 callsubr
          endchar
        </CharString>
        <CharString name="Zdotbelow">
          -32 -106 -21 127 20 670 20 hstem
          -40 hmoveto
          -88 callsubr
          250 -147 -74 callsubr
          endchar
        </CharString>
        <CharString name="a">
          -53 callgsubr
          -8 -13 callsubr
          hintmask 10101000
          -92 callsubr
          hintmask 01011000
          -98 callsubr
          hintmask 10101000
          -105 callsubr
          endchar
        </CharString>
        <CharString name="a.alt">
          -53 callgsubr
          hstemhm
          30 20 hintmask 10110000
          214 -10 rmoveto
          86 84 54 75 57 hvcurveto
          hintmask 01110000
          -26 -119 -51 callsubr
          110 517 -92 callgsubr
          -25 -120 rlineto
          74 -24 -59 56 -89 hhcurveto
          -147 -151 -153 -166 hvcurveto
          hintmask 10110000
          -113 67 -105 117 vhcurveto
          5 20 rmoveto
          -106 -63 93 107 137 127 160 147 91 62 -68 -88 13 hvcurveto
          -39 -184 rlineto
          -85 -49 -87 -72 -96 hhcurveto
          endchar
        </CharString>
        <CharString name="a.alt2">
          -118 -10 20 11 -21 277 20 210 20 hstemhm
          1 20 396 20 hintmask 10111100
          131 -10 rmoveto
          76 88 30 68 65 hvcurveto
          hintmask 01111100
          -19 -88 -51 callsubr
          70 327 rlineto
          4 19 2 19 18 vvcurveto
          84 -47 60 -98 -61 -65 -31 -37 -59 vhcurveto
          8 -16 rlineto
          41 64 61 23 48 hhcurveto
          82 47 -52 -78 -16 -2 -17 -4 -17 hvcurveto
          -13 -59 rlineto
          10 -23 -55 19 -80 hhcurveto
          -96 -143 -42 -134 hvcurveto
          hintmask 10111100
          -74 52 -57 78 vhcurveto
          4 20 rmoveto
          -63 -51 45 69 117 125 36 89 55 54 -9 -22 50 hvcurveto
          -22 -103 -3 -12 -7 -14 -13 -15 rlinecurve
          -64 -53 -89 -28 -72 hhcurveto
          endchar
        </CharString>
        <CharString name="aacute">
          -53 callgsubr
          -8 -20 231 -13 callsubr
          hintmask 10101100
          -92 callsubr
          hintmask 01011100
          -98 callsubr
          hintmask 10101100
          -105 callsubr
          219 720 -95 callsubr
        </CharString>
        <CharString name="abreve">
          -53 callgsubr
          -20 163 -151 -20 231 -13 callsubr
          hintmask 10100110
          -92 callsubr
          hintmask 01001110
          -98 callsubr
          hintmask 10100110
          -105 callsubr
          hintmask 10010110
          141 660 -104 callsubr
        </CharString>
        <CharString name="acircumflex">
          -53 callgsubr
          -8 -20 231 -13 callsubr
          hintmask 10101100
          -92 callsubr
          hintmask 01011100
          -98 callsubr
          hintmask 10101100
          -105 callsubr
          64 634 -100 callsubr
        </CharString>
        <CharString name="acute">
          -431 -3 callgsubr
          149 29 callsubr
          endchar
        </CharString>
        <CharString name="adblgrave">
          -53 callgsubr
          -20 223 -211 -13 callsubr
          hintmask 10100100
          -92 callsubr
          hintmask 01001100
          -98 callsubr
          hintmask 10100100
          -105 callsubr
          202 635 rmoveto
          19 12 rlineto
          hintmask 10010100
          -88 callgsubr
        </CharString>
        <CharString name="adieresis">
          -53 callgsubr
          -8 -20 231 -13 callsubr
          hintmask 10101100
          -92 callsubr
          hintmask 01011100
          -98 callsubr
          hintmask 10101100
          -105 callsubr
          97 643 -95 callgsubr
        </CharString>
        <CharString name="ae">
          264 30 callgsubr
          hstem
          1 20 341 22 444 22 vstem
          137 -89 callsubr
          endchar
        </CharString>
        <CharString name="aeacute">
          265 30 callgsubr
          203 -20 hstem
          2 20 341 22 444 22 vstem
          138 -89 callsubr
          -256 462 -95 callsubr
        </CharString>
        <CharString name="afii61352">
          435 21 -21 695 20 -5 -20 hstemhm
          739 22 299 22 hintmask 10111000
          560 hmoveto
          -67 callgsubr
          -45 callsubr
          -151 -710 rlineto
          -26 callgsubr
          rlineto
          676 -314 rmoveto
          108 102 101 110 hvcurveto
          hintmask 11011000
          81 -53 66 -81 -106 -103 -101 -111 -79 52 -67 81 vhcurveto
          -111 148 rmoveto
          102 93 88 90 69 47 -57 -73 -100 -93 -89 -91 -68 -47 57 72 vhcurveto
          endchar
        </CharString>
        <CharString name="agrave">
          -53 callgsubr
          -8 -20 231 -13 callsubr
          hintmask 10101100
          -92 callsubr
          hintmask 01011100
          -98 callsubr
          hintmask 10101100
          -105 callsubr
          170 635 -75 callsubr
        </CharString>
        <CharString name="ainvertedbreve">
          -53 callgsubr
          -20 223 -211 -20 214 -13 callsubr
          hintmask 10100110
          -92 callsubr
          hintmask 01001110
          -98 callsubr
          hintmask 10100110
          -105 callsubr
          73 643 -98 callgsubr
          hintmask 10010010
          -78 callsubr
        </CharString>
        <CharString name="amacron">
          -53 callgsubr
          -8 -20 187 20 hstemhm
          31 20 hintmask 10101100
          -92 callsubr
          hintmask 01011100
          -98 callsubr
          hintmask 10101100
          -105 callsubr
          284 676 -72 callsubr
        </CharString>
        <CharString name="ampersand">
          49 -10 21 10 -21 396 20 303 -20 hstemhm
          20 22 122 20 hintmask 01111100
          507 hmoveto
          29 hlineto
          -97 139 53 69 40 89 22 99 rlinecurve
          98 hlineto
          4 20 rlineto
          -120 hlineto
          -19 -100 -39 -90 -51 -70 -181 259 rcurveline
          -43 62 -19 42 36 vvcurveto
          76 83 70 90 67 55 -37 -62 26 vhcurveto
          14 12 rlineto
          66 -29 -59 39 -71 hhcurveto
          -103 -93 -78 -87 -37 16 -38 45 -69 hvcurveto
          -151 -84 -54 -79 -91 vvcurveto
          hintmask 10111100
          -98 69 -68 99 85 84 49 81 67 vhcurveto
          hintmask 01111100
          hintmask 10111100
          -233 -109 rmoveto
          -88 -61 60 87 86 58 72 135 78 hvcurveto
          177 -257 rlineto
          -78 -63 -79 -48 -79 hhcurveto
          endchar
        </CharString>
        <CharString name="aogonek">
          -39 -138 -21 149 -59 callsubr
          -8 -13 callsubr
          278 20 hintmask 11011100
          367 -159 rmoveto
          -76 callgsubr
          4 20 rlineto
          -9 -3 5 7 4 1 5 1 3 hvcurveto
          102 475 -1 callgsubr
          -26 -121 rlineto
          hintmask 11101100
          69 -25 -58 60 -93 hhcurveto
          -150 -140 -157 -160 -113 70 -107 115 78 85 49 69 56 hvcurveto
          -14 -70 -1 -3 -6 vvcurveto
          -10 2 -7 6 -5 vhcurveto
          -74 -49 -25 -31 -37 -54 callgsubr
          -149 169 rmoveto
          -96 -71 94 106 140 123 157 139 94 70 -72 -79 11 hvcurveto
          -40 -187 rlineto
          -84 -23 -122 -75 -85 hhcurveto
          endchar
        </CharString>
        <CharString name="apostrophe">
          -80 -3 callgsubr
          360 730 18 callgsubr
        </CharString>
        <CharString name="approxequal">
          -176 213 20 21 20 8 20 21 20 hstem
          346 313 -38 callsubr
          -12 -53 -38 callsubr
          endchar
        </CharString>
        <CharString name="aring">
          -53 callgsubr
          -20 125 -113 -20 117 114 -16 -13 callsubr
          258 111 hintmask 1010010110000000
          -92 callsubr
          hintmask 0100110110000000
          -98 callsubr
          hintmask 1010010110000000
          -105 callsubr
          91 652 -68 callsubr
          hintmask 1001001110000000
          64 52 -73 callsubr
          endchar
        </CharString>
        <CharString name="aringacute">
          -53 callgsubr
          -20 125 -113 -20 117 114 -16 -20 171 -13 callsubr
          259 111 hintmask 1010010111000000
          -92 callsubr
          hintmask 0100110111000000
          -98 callsubr
          hintmask 1010010111000000
          -105 callsubr
          92 652 -68 callsubr
          hintmask 1001001111000000
          64 52 -73 callsubr
          81 151 -95 callsubr
        </CharString>
        <CharString name="asciicircum">
          -114 324 -21 407 -20 hstem
          76 303 rmoveto
          186 378 183 -378 rlineto
          23 hlineto
          -197 407 rlineto
          -18 hlineto
          -198 -407 rlineto
          endchar
        </CharString>
        <CharString name="asciitilde">
          -177 251 20 41 20 hstem
          56 251 1 callgsubr
          2 23 59 41 vhcurveto
          42 44 -61 63 hhcurveto
          68 22 73 0 hvcurveto
          -20 1 rlineto
          -5 -22 -49 -48 vhcurveto
          -53 -42 61 -54 hhcurveto
          -60 -24 -77 -4 hvcurveto
          endchar
        </CharString>
        <CharString name="asterisk">
          -326 573 -21 158 -20 hstem
          157 552 rmoveto
          51 57 27 -57 19 12 -28 57 68 22 rlineto
          19 vlineto
          -70 -22 15 70 rlineto
          -19 hlineto
          -15 -70 -59 22 -10 -19 59 -22 -51 -57 rlineto
          endchar
        </CharString>
        <CharString name="at">
          172 -146 20 110 20 8 20 396 21 134 20 hstem
          26 20 132 20 281 22 206 20 vstem
          540 4 rmoveto
          -26 -13 14 29 8 1 15 6 29 hvcurveto
          75 351 -92 callgsubr
          -18 -88 rlineto
          56 -22 -47 31 -62 hhcurveto
          -126 -110 -124 -141 -102 57 -70 85 54 64 28 44 45 hvcurveto
          -3 -14 -1 -15 -11 vvcurveto
          -42 15 -18 36 106 91 162 157 180 -120 120 -158 -212 -211 -216 -230 -170 115 -133 156 51 59 14 26 55 vhcurveto
          -6 18 rlineto
          -26 -51 -49 -12 -48 hhcurveto
          -153 -109 121 163 219 197 206 203 151 110 -114 -169 -146 -82 -150 -85 hvcurveto
          -215 28 rmoveto
          -77 -50 65 89 128 102 114 111 62 47 -35 -59 17 hvcurveto
          -40 -195 rlineto
          -59 -24 -81 -48 -67 hhcurveto
          endchar
        </CharString>
        <CharString name="atilde">
          -53 callgsubr
          -20 175 -163 -20 164 57 10 -13 callsubr
          hintmask 10100101
          -92 callsubr
          hintmask 01001101
          -98 callsubr
          hintmask 10100101
          -105 callsubr
          199 653 rmoveto
          hintmask 10010011
          -87 callsubr
          hintmask 10100101
          -97 callgsubr
        </CharString>
        <CharString name="b">
          -43 2 callgsubr
          508 21 hintmask 10111000
          231 -10 rmoveto
          148 150 156 167 104 -58 110 -122 -85 -76 -54 -75 -66 hvcurveto
          70 332 -92 callgsubr
          hintmask 01111000
          -155 -730 -51 callsubr
          23 108 rlineto
          hintmask 10111000
          -62 24 59 -56 88 hhcurveto
          2 20 rmoveto
          -82 -69 50 81 -14 hvcurveto
          46 225 rlineto
          74 65 72 67 91 hhcurveto
          107 59 -94 -101 -151 -133 -151 -142 hvcurveto
          endchar
        </CharString>
        <CharString name="backslash">
          -139 -4 callsubr
          104 710 rmoveto
          263 -710 rlineto
          25 hlineto
          -262 710 rlineto
          endchar
        </CharString>
        <CharString name="bar">
          -365 -109 -21 905 -20 hstem
          122 20 vstem
          142 -130 rmoveto
          905 -20 -905 vlineto
          endchar
        </CharString>
        <CharString name="braceleft">
          -402 -10 -21 771 -20 hstem
          256 720 rmoveto
          4 20 rlineto
          -50 hlineto
          -6 -17 -4 -26 -5 hvcurveto
          -63 -294 rlineto
          -9 -2 -9 -36 -27 hhcurveto
          -4 -20 rlineto
          16 -2 5 -13 -15 vvcurveto
          -6 -1 -6 -1 -5 vhcurveto
          -65 -305 rlineto
          -1 -4 0 -4 -3 vvcurveto
          -14 8 -5 8 vhcurveto
          50 -48 callsubr
          -53 hlineto
          67 315 rlineto
          3 2 9 10 vvcurveto
          12 -2 13 -8 9 vhcurveto
          24 19 7 30 1 7 65 304 rcurveline
          endchar
        </CharString>
        <CharString name="braceright">
          -401 -10 -21 771 -20 hstem
          192 720 rmoveto
          -65 -304 rlineto
          -1 -3 -1 -9 -10 vvcurveto
          -11 2 -13 8 -10 vhcurveto
          -23 -18 -8 -32 -1 -6 -67 -315 rcurveline
          -52 -85 callgsubr
          50 hlineto
          11 13 8 22 5 hvcurveto
          64 305 4 20 12 24 23 3 rlinecurve
          4 20 rlineto
          -17 -4 15 13 7 1 7 1 3 hvcurveto
          63 294 rlineto
          1 3 0 3 3 vvcurveto
          18 -13 3 -4 vhcurveto
          -50 -85 callgsubr
          endchar
        </CharString>
        <CharString name="bracketleft">
          -403 -19 -21 760 -20 40 -20 hstemhm
          hintmask 11000000
          91 -40 rmoveto
          4 20 rlineto
          -48 hlineto
          157 740 rlineto
          48 hlineto
          hintmask 10100000
          4 20 rlineto
          -67 hlineto
          -166 -780 rlineto
          endchar
        </CharString>
        <CharString name="bracketright">
          -404 -19 -21 780 -20 hstem
          48 -40 rmoveto
          165 780 rlineto
          -67 -85 callgsubr
          47 hlineto
          -157 -740 rlineto
          -48 -85 callgsubr
          endchar
        </CharString>
        <CharString name="breve">
          -383 674 -21 77 -20 hstem
          106 670 -104 callsubr
        </CharString>
        <CharString name="brokenbar">
          -371 -109 -21 905 -20 hstem
          119 20 vstem
          119 285 rmoveto
          -415 20 415 vlineto
          -20 490 rmoveto
          -415 20 415 vlineto
          endchar
        </CharString>
        <CharString name="bullet">
          -288 264 157 hstem
          97 153 vstem
          250 357 rmoveto
          35 -23 29 -36 -46 -48 -43 -49 -37 25 -28 35 48 45 43 50 vhcurveto
          endchar
        </CharString>
        <CharString name="c">
          -105 -51 callgsubr
          -94 callgsubr
          endchar
        </CharString>
        <CharString name="c_t">
          168 -10 20 6 -21 512 20 -8 -20 234 20 hstemhm
          30 20 378 20 106 21 97 21 hintmask 1010111110000000
          217 -10 rmoveto
          72 103 42 81 43 hvcurveto
          -18 6 rlineto
          -66 -31 -103 -43 -62 hhcurveto
          4 callgsubr
          131 116 163 152 74 57 -31 -72 22 hvcurveto
          20 7 rlineto
          -6 29 -37 88 67 vvcurveto
          69 47 69 84 72 21 -35 -50 vhcurveto
          hintmask 0101111110000000
          -37 -12 -46 -9 -46 vhcurveto
          -72 -85 callgsubr
          71 hlineto
          -90 -424 rlineto
          -1 -6 -1 -6 -5 vvcurveto
          -38 30 -25 41 38 21 10 19 38 vhcurveto
          -7 16 rlineto
          -14 -27 -27 -11 -31 hhcurveto
          -30 -25 18 33 3 0 3 1 3 hvcurveto
          90 424 -39 callsubr
          -118 hlineto
          12 56 10 48 38 vvcurveto
          59 -25 33 -84 -94 -62 -79 -84 -42 14 -40 12 -27 vhcurveto
          hintmask 1010111110000000
          29 -27 -42 17 -62 hhcurveto
          -156 -137 -162 -154 -15 callgsubr
          hvcurveto
          endchar
        </CharString>
        <CharString name="cacute">
          -105 -51 callgsubr
          203 -20 -94 callgsubr
          206 740 -95 callsubr
        </CharString>
        <CharString name="caron">
          -331 665 -21 86 -20 hstem
          121 644 -91 callgsubr
        </CharString>
        <CharString name="caron.alt">
          -431 -3 callgsubr
          53 645 rmoveto
          -28 callsubr
        </CharString>
        <CharString name="ccaron">
          -105 -51 callgsubr
          203 -20 -94 callgsubr
          130 654 -91 callgsubr
        </CharString>
        <CharString name="ccedilla">
          -105 -163 111 -16 78 -31 callgsubr
          hstemhm
          31 20 hintmask 10110000
          110 -144 -79 callgsubr
          37 48 83 3 90 52 36 68 rlinecurve
          -19 6 rlineto
          hintmask 01110000
          -57 -27 -93 -52 -77 hhcurveto
          -100 -69 91 113 158 33 callgsubr
          139 72 56 -39 -64 18 hvcurveto
          22 7 rlineto
          73 -18 -60 43 -83 hhcurveto
          -155 -146 -145 -172 -117 69 -94 104 -8 hvcurveto
          -56 -75 rlineto
          -80 callsubr
        </CharString>
        <CharString name="ccircumflex">
          -105 -51 callgsubr
          203 -20 -94 callgsubr
          65 654 -100 callsubr
        </CharString>
        <CharString name="cdotaccent">
          -105 -51 callgsubr
          203 -20 -94 callgsubr
          153 663 -74 callsubr
          endchar
        </CharString>
        <CharString name="cedilla">
          -380 -162 111 62 -20 hstem
          -9 -143 -79 callgsubr
          44 57 -15 11 -71 -94 rlineto
          -80 callsubr
        </CharString>
        <CharString name="cent">
          -97 -99 -21 110 -59 callsubr
          118 -20 hstem
          31 20 vstem
          194 -120 rmoveto
          24 110 rlineto
          72 103 42 81 43 -21 callsubr
          -66 -30 -104 -43 -61 hhcurveto
          106 497 69 -3 53 -31 21 -69 rlinecurve
          21 7 -18 66 -44 47 -98 3 rlinecurve
          25 118 rlineto
          -19 hlineto
          -25 -118 rlineto
          -151 -8 -131 -158 -151 vvcurveto
          -107 61 -103 107 -9 vhcurveto
          -24 -111 rlineto
          -124 332 rmoveto
          128 109 159 148 8 vhcurveto
          -105 -496 rlineto
          -93 9 -59 90 102 vvcurveto
          endchar
        </CharString>
        <CharString name="circumflex">
          -331 665 -21 86 -20 hstem
          61 644 -100 callsubr
        </CharString>
        <CharString name="colon">
          -464 21 -21 517 -20 hstem
          119 453 rmoveto
          14 callgsubr
          -76 -453 rmoveto
          3 callsubr
          endchar
        </CharString>
        <CharString name="colonmonetary">
          -105 -99 -21 131 -21 537 -20 138 -20 hstem
          30 20 vstem
          134 -120 rmoveto
          19 hlineto
          25 115 rlineto
          -3 13 13 -2 14 hhcurveto
          8 9 1 1 8 hvcurveto
          -23 -112 rlineto
          19 hlineto
          25 115 71 14 69 46 31 58 rlinecurve
          -19 6 rlineto
          -57 -27 -93 -52 -77 hhcurveto
          -100 -69 91 113 158 33 callgsubr
          139 72 56 -39 -64 18 hvcurveto
          22 7 -15 59 -42 39 -59 13 rlinecurve
          26 123 -92 callgsubr
          -26 -120 rlineto
          1 -8 -8 1 -9 hhcurveto
          -14 -15 -2 -2 -12 hvcurveto
          26 122 rlineto
          -19 hlineto
          -27 -126 rlineto
          -130 -31 -110 -129 -149 vvcurveto
          -99 50 -84 79 -27 vhcurveto
          endchar
        </CharString>
        <CharString name="comma">
          -362 -60 -21 92 -21 74 -20 hstem
          46 -81 rmoveto
          27 71 -18 callsubr
          -25 -71 rlineto
          endchar
        </CharString>
        <CharString name="commaaccent">
          -504 -146 -21 117 -20 hstem
          29 -167 -90 callsubr
        </CharString>
        <CharString name="copyright">
          217 -7 20 114 20 419 20 109 20 hstem
          68 21 128 20 532 -43 callsubr
          1 20 rmoveto
          -197 -144 146 195 196 145 145 196 195 144 -145 -198 -201 -148 -138 -191 hvcurveto
          6 114 rmoveto
          93 69 71 35 10 hvcurveto
          -19 5 rlineto
          -56 -24 -75 -35 -58 hhcurveto
          -85 -110 75 133 97 59 114 132 44 76 -13 -73 31 hvcurveto
          19 7 rlineto
          67 -26 -70 32 -74 hhcurveto
          -147 -64 -125 -106 -145 118 -83 101 hvcurveto
          endchar
        </CharString>
        <CharString name="currency">
          -68 155 -21 400 -20 hstem
          104 21 310 21 vstem
          93 534 rmoveto
          -15 -14 68 -68 rlineto
          -26 -32 -16 -41 -44 vvcurveto
          -45 16 -41 28 -32 vhcurveto
          -70 -69 15 -14 69 68 rlineto
          -28 31 40 -17 46 hhcurveto
          47 41 18 30 32 hvcurveto
          72 -71 15 14 -73 71 rlineto
          27 32 16 41 43 vvcurveto
          43 -16 40 -25 32 vhcurveto
          71 70 -15 14 -70 -69 rlineto
          31 -31 -43 19 -48 hhcurveto
          -46 -42 -18 -30 -31 hvcurveto
          -35 -133 rmoveto
          90 71 72 83 85 71 -71 -89 -87 -71 -74 -85 -84 -70 71 88 vhcurveto
          endchar
        </CharString>
        <CharString name="d">
          -40 -10 -30 callsubr
          hintmask 10111000
          -68 callgsubr
          hintmask 01111000
          -89 callgsubr
          hintmask 10111000
          -86 callsubr
          endchar
        </CharString>
        <CharString name="d.alt">
          -42 -10 -30 callsubr
          hintmask 10111000
          218 -10 rmoveto
          -5 callsubr
          hintmask 01111000
          -23 -108 -51 callsubr
          155 730 -92 callgsubr
          -70 -332 rlineto
          69 -31 -53 60 -90 hhcurveto
          -152 -140 -157 -159 hvcurveto
          hintmask 10111000
          -15 callgsubr
          vhcurveto
          4 20 rmoveto
          4 callgsubr
          138 121 156 147 80 80 -68 -83 9 hvcurveto
          -40 -187 rlineto
          -85 -23 -126 -74 -77 hhcurveto
          endchar
        </CharString>
        <CharString name="dagger">
          -261 -109 -21 391 20 494 -20 hstem
          98 -130 rmoveto
          83 391 rlineto
          125 hlineto
          4 20 rlineto
          -124 hlineto
          105 494 -92 callgsubr
          -105 -494 rlineto
          -126 -85 callgsubr
          125 hlineto
          -83 -391 rlineto
          endchar
        </CharString>
        <CharString name="daggerdbl">
          -253 -109 -21 331 20 110 20 424 -20 hstem
          102 -130 rmoveto
          70 331 rlineto
          125 hlineto
          4 20 rlineto
          -124 hlineto
          23 110 rlineto
          124 -48 callsubr
          -125 hlineto
          90 424 -92 callgsubr
          -90 -424 rlineto
          -125 -85 callgsubr
          125 hlineto
          -23 -110 rlineto
          -126 -85 callgsubr
          125 hlineto
          -70 -331 rlineto
          endchar
        </CharString>
        <CharString name="dcaron">
          -40 -10 -30 callsubr
          hintmask 10111000
          -68 callgsubr
          hintmask 01111000
          -89 callgsubr
          hintmask 10111000
          -86 callsubr
          405 635 rmoveto
          -28 callsubr
        </CharString>
        <CharString name="dcroat">
          -40 -64 callsubr
          106 20 77 -13 callsubr
          hintmask 10111100
          429 633 rmoveto
          117 hlineto
          -49 -235 rlineto
          69 -25 -59 60 -90 hhcurveto
          -152 -140 -157 -159 -15 callgsubr
          -5 callsubr
          -14 -68 rlineto
          -1 -3 0 -4 -3 vvcurveto
          hintmask 01111100
          -17 8 -13 20 vhcurveto
          4 16 callgsubr
          126 593 rlineto
          72 hlineto
          4 20 rlineto
          -72 hlineto
          17 77 -1 callgsubr
          -17 -77 rlineto
          -117 hlineto
          hintmask 10111100
          -211 -643 rmoveto
          4 callgsubr
          138 121 156 147 80 78 -68 -83 11 hvcurveto
          -40 -187 rlineto
          -85 -23 -126 -74 -77 hhcurveto
          endchar
        </CharString>
        <CharString name="ddotbelow">
          -40 -106 -21 117 -30 callsubr
          hintmask 11011100
          -68 callgsubr
          hintmask 10111100
          -89 callgsubr
          hintmask 11011100
          -86 callsubr
          -17 -137 -74 callsubr
          endchar
        </CharString>
        <CharString name="degree">
          -374 586 20 95 23 hstem
          127 23 93 20 vstem
          180 586 rmoveto
          42 41 38 43 32 -22 25 -31 -45 -38 -43 -41 -31 22 -23 31 hvcurveto
          5 20 rmoveto
          -23 -12 18 22 31 26 24 29 23 15 -11 -26 -32 -33 -26 -25 hvcurveto
          endchar
        </CharString>
        <CharString name="dieresis">
          -392 674 -21 77 -20 hstem
          60 653 -95 callgsubr
        </CharString>
        <CharString name="divide">
          -71 113 -21 169 20 168 -20 hstem
          257 20 vstem
          277 385 rmoveto
          64 -20 -64 vlineto
          20 -293 rmoveto
          64 -20 -64 vlineto
          212 169 rmoveto
          20 -403 -20 vlineto
          endchar
        </CharString>
        <CharString name="dollar">
          -30 -72 -21 109 -21 820 -20 hstem
          113 21 370 21 vstem
          577 630 rmoveto
          -40 60 -56 24 -85 1 22 100 rcurveline
          -20 hlineto
          -22 -100 rlineto
          -155 -6 -108 -84 -134 vvcurveto
          -88 69 -29 117 -25 vhcurveto
          -72 -337 -91 5 -64 32 -49 69 rlinecurve
          -17 -13 52 -70 69 -35 97 -4 rlinecurve
          -19 -89 -51 callsubr
          18 88 rlineto
          171 111 80 133 95 -81 33 -123 28 hvcurveto
          71 332 rlineto
          80 49 -18 -62 40 hvcurveto
          -57 -413 rmoveto
          -125 -100 -66 -158 vhcurveto
          71 5 callsubr
          126 -28 61 -34 -80 vvcurveto
          -370 292 rmoveto
          108 69 87 170 6 vhcurveto
          -70 -328 rlineto
          -114 27 -55 26 74 vvcurveto
          endchar
        </CharString>
        <CharString name="dotaccent">
          -505 674 -21 77 -20 hstem
          59 653 -74 callsubr
          endchar
        </CharString>
        <CharString name="dotbelow">
          -504 -106 -21 77 -20 hstem
          41 -127 -74 callsubr
          endchar
        </CharString>
        <CharString name="dotlessi">
          21 -21 519 -20 hstem
          2 callsubr
          endchar
        </CharString>
        <CharString name="dotlessj">
          -170 20 669 -50 callgsubr
          endchar
        </CharString>
        <CharString name="e">
          -64 callgsubr
          hstem
          -25 callsubr
          vstem
          -107 callgsubr
          endchar
        </CharString>
        <CharString name="eacute">
          -64 callgsubr
          203 -20 hstem
          -25 callsubr
          vstem
          -107 callgsubr
          97 223 -95 callsubr
        </CharString>
        <CharString name="ebreve">
          -64 callgsubr
          -20 163 60 -20 hstemhm
          -25 callsubr
          hintmask 11101110
          -107 callgsubr
          hintmask 11011110
          35 163 -104 callsubr
        </CharString>
        <CharString name="ecaron">
          -64 callgsubr
          203 -20 hstem
          -25 callsubr
          vstem
          -107 callgsubr
          17 137 -91 callgsubr
        </CharString>
        <CharString name="ecircumflex">
          -64 callgsubr
          203 -20 hstem
          -25 callsubr
          vstem
          -107 callgsubr
          -42 137 -100 callsubr
        </CharString>
        <CharString name="edblgrave">
          -64 callgsubr
          -20 223 hstemhm
          -25 callsubr
          hintmask 11101100
          -107 callgsubr
          72 138 rmoveto
          19 12 rlineto
          hintmask 11011100
          -88 callgsubr
        </CharString>
        <CharString name="edieresis">
          -64 callgsubr
          203 -20 hstem
          -25 callsubr
          vstem
          -107 callgsubr
          -14 146 -95 callgsubr
        </CharString>
        <CharString name="edotaccent">
          -64 callgsubr
          203 -20 hstem
          -25 callsubr
          vstem
          -107 callgsubr
          44 146 -74 callsubr
          endchar
        </CharString>
        <CharString name="edotbelow">
          -98 -106 -21 117 -59 callgsubr
          hstem
          -25 callsubr
          vstem
          -107 callgsubr
          -128 -634 -74 callsubr
          endchar
        </CharString>
        <CharString name="egrave">
          -64 callgsubr
          203 -20 hstem
          -25 callsubr
          vstem
          -107 callgsubr
          61 138 -75 callsubr
        </CharString>
        <CharString name="eight">
          1 callsubr
          210 -7 rmoveto
          136 139 91 136 78 -50 60 -70 23 hvcurveto
          -38 callgsubr
          vhcurveto
          8 17 rmoveto
          7 callsubr
          -126 -138 -83 -109 hvcurveto
          79 381 rmoveto
          -74 -78 45 81 8 callgsubr
          hvcurveto
          endchar
        </CharString>
        <CharString name="eight.denominator">
          -253 -4 -8 callsubr
          hstemhm
          -2 -35 callgsubr
          hintmask 10101010
          117 -4 -41 callsubr
          hintmask 01110100
          -82 callgsubr
          hintmask 10110100
          -49 callgsubr
          hintmask 01110100
          -48 callgsubr
          hintmask 10110010
          -66 callsubr
          endchar
        </CharString>
        <CharString name="eight.lnum">
          1 callsubr
          485 220 rmoveto
          78 -50 60 -70 23 vhcurveto
          -38 callgsubr
          136 139 91 136 vhcurveto
          -20 -1 rmoveto
          -126 -138 -83 -109 7 callsubr
          vhcurveto
          -320 298 rmoveto
          8 callgsubr
          -74 -78 45 81 vhcurveto
          endchar
        </CharString>
        <CharString name="eight.numerator">
          -252 343 -8 callsubr
          -18 -20 hstemhm
          72 20 35 20 192 20 4 20 hintmask 01011110
          359 466 -33 callsubr
          hintmask 10111110
          -1 callsubr
          hintmask 01011110
          62 78 43 65 51 53 14 callsubr
          hintmask 10111110
          52 63 34 60 49 44 -24 -41 32 callsubr
          -44 -47 24 41 vhcurveto
          endchar
        </CharString>
        <CharString name="eightinferior">
          -253 -84 -8 callsubr
          hstemhm
          -19 20 35 20 192 44 -20 20 hintmask 01111000
          267 39 rmoveto
          42 -30 32 -44 13 vhcurveto
          -82 callgsubr
          hintmask 10111000
          -51 43 -43 76 84 83 49 74 vhcurveto
          -19 -2 rmoveto
          -63 -78 -40 -64 -51 -54 29 49 vhcurveto
          hintmask 01111000
          62 78 43 64 51 54 14 callsubr
          52 63 34 60 vhcurveto
          hintmask 10110100
          49 44 -24 -41 32 callsubr
          -44 -47 24 41 hvcurveto
          endchar
        </CharString>
        <CharString name="eightsuperior">
          -252 423 -8 callsubr
          hstemhm
          89 20 35 20 192 20 4 20 hintmask 01111100
          376 546 -33 callsubr
          hintmask 10111100
          -1 callsubr
          hintmask 01111100
          62 78 43 65 51 53 14 callsubr
          52 63 34 60 49 44 -24 -41 vhcurveto
          hintmask 10111100
          32 callsubr
          -44 -47 24 41 vhcurveto
          endchar
        </CharString>
        <CharString name="einvertedbreve">
          -64 callgsubr
          -20 223 -17 -20 hstemhm
          -25 callsubr
          hintmask 11101110
          -107 callgsubr
          -38 146 -98 callgsubr
          hintmask 11010110
          -78 callsubr
        </CharString>
        <CharString name="ellipsis">
          -277 21 -21 64 -20 hstem
          28 hmoveto
          3 callsubr
          111 hmoveto
          3 callsubr
          111 hmoveto
          14 callgsubr
          endchar
        </CharString>
        <CharString name="emacron">
          -64 callgsubr
          159 20 hstem
          -25 callsubr
          vstem
          -107 callgsubr
          175 179 -72 callsubr
        </CharString>
        <CharString name="emdash">
          219 261 20 hstem
          762 261 rmoveto
          4 20 rlineto
          -703 -85 callgsubr
          endchar
        </CharString>
        <CharString name="emspace">
          242 endchar
        </CharString>
        <CharString name="endash">
          0 callsubr
        </CharString>
        <CharString name="eng">
          -79 -170 20 171 7 callgsubr
          hintmask 11101000
          238 -170 rmoveto
          59 79 56 78 17 hvcurveto
          69 325 rlineto
          9 43 5 37 32 vvcurveto
          86 -36 40 -74 -88 -101 -58 -84 -58 vhcurveto
          hintmask 11011000
          28 134 -92 callgsubr
          -110 -519 24 callgsubr
          hintmask 11101000
          102 49 112 77 94 hhcurveto
          63 30 -35 -76 -29 -4 -36 -9 -42 hvcurveto
          -69 -325 rlineto
          -64 -14 -66 -50 -52 hhcurveto
          -27 -28 -70 callgsubr
          endchar
        </CharString>
        <CharString name="enspace">
          -84 endchar
        </CharString>
        <CharString name="eogonek">
          -98 -147 -21 158 -59 callgsubr
          hstem
          31 21 72 20 321 21 vstem
          162 -168 rmoveto
          -76 callgsubr
          82 8 79 50 41 73 -19 6 rcurveline
          -72 -39 -87 -46 -73 hhcurveto
          -115 -60 92 109 14 1 14 2 14 hvcurveto
          -4 67 51 -1 51 hhcurveto
          176 86 49 93 90 -85 47 -68 -172 -130 -159 -158 -117 66 -98 114 -5 hvcurveto
          17 callsubr
          167 675 rmoveto
          59 77 -35 -81 -72 -61 -51 -177 -51 -50 1 4 -67 hvcurveto
          121 30 109 113 131 hhcurveto
          endchar
        </CharString>
        <CharString name="equal">
          -166 231 20 50 20 hstem
          367 231 rmoveto
          20 -293 -20 vlineto
          293 70 rmoveto
          20 -293 -20 vlineto
          endchar
        </CharString>
        <CharString name="estimated">
          -1 -10 20 245 20 236 20 hstem
          43 72 384 71 vstem
          306 10 rmoveto
          -78 -69 37 58 -44 hvcurveto
          150 455 vlineto
          152 -108 124 -156 -155 -108 -125 -146 -145 106 -125 157 100 68 36 47 47 vhcurveto
          -13 15 rlineto
          -45 -38 -72 -33 -92 hhcurveto
          501 vmoveto
          75 73 -38 -60 45 hvcurveto
          -138 -384 139 vlineto
          59 44 69 38 78 hhcurveto
          endchar
        </CharString>
        <CharString name="eth">
          -51 -10 20 445 20 255 -20 hstem
          27 20 443 34 vstem
          527 713 rmoveto
          -107 -65 -25 28 -29 28 -36 26 rlinecurve
          -29 hlineto
          43 -30 34 -30 27 -30 -130 -79 rcurveline
          7 -14 134 81 rlineto
          70 -81 20 -80 -77 vvcurveto
          -21 -1 -19 -2 -20 vhcurveto
          85 -15 -71 60 -98 hhcurveto
          -144 -148 -134 -151 -110 76 -90 113 146 162 144 235 88 -23 93 -71 86 hvcurveto
          104 63 rlineto
          -487 -507 rmoveto
          139 136 124 132 102 73 -78 -97 -137 -138 -133 -133 -102 -70 81 101 vhcurveto
          endchar
        </CharString>
        <CharString name="etilde">
          -64 callgsubr
          -20 175 -19 -12 callsubr
          -25 callsubr
          hintmask 11101011
          -107 callgsubr
          86 156 rmoveto
          hintmask 11010111
          -87 callsubr
          hintmask 11101011
          -97 callgsubr
        </CharString>
        <CharString name="exclam">
          -395 21 -21 717 -20 hstem
          101 200 rmoveto
          109 517 -92 callgsubr
          -109 -517 rlineto
          -23 -200 rmoveto
          23 84 rlineto
          -25 hlineto
          -18 -84 rlineto
          endchar
        </CharString>
        <CharString name="exclamdown">
          -395 21 -21 717 -20 hstem
          148 517 rmoveto
          -110 -517 -51 callsubr
          110 517 rlineto
          22 200 rmoveto
          -22 -84 rlineto
          25 hlineto
          17 84 rlineto
          endchar
        </CharString>
        <CharString name="f">
          -327 -192 -21 712 20 -20 241 hstemhm
          hintmask 11000000
          -12 -213 1 callgsubr
          151 712 rlineto
          147 hlineto
          4 20 rlineto
          -146 hlineto
          4 21 rlineto
          117 23 55 16 callsubr
          hintmask 10100000
          20 -13 -34 14 -36 hhcurveto
          -82 -66 -74 -126 -25 hvcurveto
          hintmask 11000000
          -4 -21 rlineto
          -72 -85 callgsubr
          71 hlineto
          endchar
        </CharString>
        <CharString name="f_f">
          -99 -31 callsubr
          176 hlineto
          4 20 rlineto
          -175 hlineto
          4 21 rlineto
          81 16 56 99 105 hhcurveto
          46 10 -19 -7 4 hvcurveto
          18 12 rlineto
          3 -12 31 -65 -58 -42 -26 -40 -34 vhcurveto
          11 -12 -33 15 -43 hhcurveto
          -103 -57 -89 -81 -15 hvcurveto
          -2 -11 rlineto
          -72 -85 callgsubr
          71 hlineto
          24 20 rmoveto
          3 11 rlineto
          58 15 40 20 callgsubr
          -17 -35 -12 -66 rrcurveto
          endchar
        </CharString>
        <CharString name="f_f_i">
          9 -31 callsubr
          213 hlineto
          -106 -499 -51 callsubr
          111 519 rlineto
          -233 hlineto
          4 21 rlineto
          82 16 56 98 105 hhcurveto
          40 41 -14 -12 8 hvcurveto
          18 12 rlineto
          3 -41 31 -64 -59 -42 -26 -40 -34 vhcurveto
          11 -12 -33 15 -42 hhcurveto
          -104 -57 -90 -81 -16 hvcurveto
          -2 -10 rlineto
          -71 -85 callgsubr
          71 hlineto
          24 20 rmoveto
          2 10 rlineto
          59 12 44 20 callgsubr
          -16 -44 -13 -57 rrcurveto
          endchar
        </CharString>
        <CharString name="f_f_l">
          81 16 -21 26 -21 499 20 161 20 20 20 hstemhm
          631 20 hintmask 10111100
          577 -5 rmoveto
          25 38 8 1 2 hvcurveto
          -5 19 rlineto
          -2 -34 -9 -21 hhcurveto
          -35 -13 24 24 5 1 5 1 5 hvcurveto
          114 537 rlineto
          2 10 1 9 9 vvcurveto
          56 -39 42 -74 -57 -42 -25 -40 -31 vhcurveto
          10 -12 -22 15 -45 hhcurveto
          -100 -62 -74 -98 -22 hvcurveto
          -2 -9 rlineto
          -71 -85 callgsubr
          71 hlineto
          hintmask 01111100
          -35 callsubr
          182 22 callsubr
          118 -48 callsubr
          -118 hlineto
          4 21 rlineto
          86 17 53 94 99 hhcurveto
          62 30 -37 -46 -8 -1 -8 22 callgsubr
          -8 -6 vvcurveto
          hintmask 10111100
          -35 19 -26 46 vhcurveto
          -414 524 rmoveto
          2 9 rlineto
          73 16 50 79 95 hhcurveto
          22 29 -4 -19 17 hvcurveto
          -21 -33 -14 -41 -14 -64 rrcurveto
          endchar
        </CharString>
        <CharString name="f_i">
          -188 21 -21 499 20 201 20 hstem
          33 -55 callsubr
          106 499 rlineto
          213 hlineto
          -106 -499 -51 callsubr
          -44 callsubr
          -232 hlineto
          4 21 rlineto
          82 16 59 98 97 hhcurveto
          49 36 -14 -12 9 hvcurveto
          18 12 rlineto
          3 -39 31 -68 -117 -64 -116 -84 -16 vhcurveto
          -4 -21 rlineto
          -72 -85 callgsubr
          71 hlineto
          endchar
        </CharString>
        <CharString name="f_l">
          -121 16 -21 26 -21 499 20 201 20 hstemhm
          429 20 hintmask 10111000
          370 -5 rmoveto
          33 36 8 1 1 hvcurveto
          -5 19 rlineto
          -1 -33 -9 -26 hhcurveto
          -31 -14 24 25 4 1 5 1 5 hvcurveto
          114 537 rlineto
          2 10 1 9 10 vvcurveto
          56 -39 41 -75 -105 -61 -91 -109 -21 vhcurveto
          -4 -21 rlineto
          -72 -85 callgsubr
          71 hlineto
          hintmask 01111000
          -35 callsubr
          118 -48 callsubr
          -118 hlineto
          4 21 rlineto
          85 16 57 95 90 hhcurveto
          71 27 -39 -43 -8 -1 -9 22 callgsubr
          -7 -7 vvcurveto
          hintmask 10111000
          -34 20 -27 40 vhcurveto
          endchar
        </CharString>
        <CharString name="five">
          -97 -149 20 147 -21 289 20 245 20 hstem
          417 20 vstem
          159 -149 -66 callgsubr
        </CharString>
        <CharString name="five.denominator">
          -269 -5 246 -19 161 hstemhm
          255 20 hintmask 10100000
          105 -5 rmoveto
          86 84 60 86 59 -47 41 -67 -50 callsubr
          hintmask 01100000
          -79 callsubr
          -51 -39 26 39 -13 hvcurveto
          -18 -6 rlineto
          hintmask 10100000
          -46 13 44 -31 59 hhcurveto
          endchar
        </CharString>
        <CharString name="five.lnum">
          -86 -10 20 415 20 245 20 hstem
          452 20 vstem
          194 -10 -66 callgsubr
        </CharString>
        <CharString name="five.numerator">
          -269 342 30 callsubr
          329 20 hintmask 10011000
          235 588 11 callsubr
          hintmask 01101000
          -79 callsubr
          -52 -38 26 39 -13 hvcurveto
          -18 -6 rlineto
          hintmask 10011000
          -47 callgsubr
        </CharString>
        <CharString name="fiveeighths">
          136 -4 -8 callsubr
          -41 30 callsubr
          331 20 39 -35 callgsubr
          hintmask 1010011101010000
          47 -1 -82 callsubr
          475 -15 -41 callsubr
          hintmask 0101101110100000
          -82 callgsubr
          hintmask 1010011110100000
          -49 callgsubr
          hintmask 0101101110100000
          -48 callgsubr
          hintmask 1010011110010000
          -66 callsubr
          -319 374 11 callsubr
          hintmask 1001101110100000
          -79 callsubr
          -52 -38 26 39 -13 hvcurveto
          -18 -6 rlineto
          hintmask 1010011110100000
          -47 callgsubr
        </CharString>
        <CharString name="fiveinferior">
          -269 -85 246 -19 161 hstemhm
          238 20 hintmask 10100000
          144 161 -65 callgsubr
        </CharString>
        <CharString name="fivesuperior">
          -268 422 246 -19 161 hstemhm
          346 20 hintmask 10100000
          252 668 -65 callgsubr
        </CharString>
        <CharString name="florin">
          -132 -170 20 588 20 282 -20 hstem
          26 -170 rmoveto
          59 79 56 78 17 hvcurveto
          101 474 rlineto
          147 hlineto
          4 20 rlineto
          -146 hlineto
          17 82 rlineto
          117 24 54 16 callsubr
          20 -13 -34 14 -36 hhcurveto
          -82 -65 -74 -126 -26 hvcurveto
          -17 -82 rlineto
          -72 -85 callgsubr
          71 hlineto
          -101 -474 rlineto
          -64 -14 -66 -50 -52 hhcurveto
          -26 -29 -70 callgsubr
          endchar
        </CharString>
        <CharString name="four">
          -120 -106 -21 199 20 479 -20 hstem
          277 -127 1 callgsubr
          42 199 12 callgsubr
          -454 -482 -4 -17 rlineto
          346 hlineto
          -314 20 rmoveto
          412 442 -94 -442 rlineto
          endchar
        </CharString>
        <CharString name="four.denominator">
          -267 21 4 callsubr
          184 hmoveto
          19 hlineto
          -83 callgsubr
          -190 19 rmoveto
          241 219 -47 -219 rlineto
          endchar
        </CharString>
        <CharString name="four.lnum">
          -92 21 -21 211 20 479 -20 hstem
          347 hmoveto
          45 211 12 callgsubr
          -473 -482 -4 -17 rlineto
          365 hlineto
          -45 -211 rlineto
          -288 231 rmoveto
          431 442 -94 -442 rlineto
          endchar
        </CharString>
        <CharString name="four.numerator">
          -266 368 4 callsubr
          277 347 rmoveto
          -83 callgsubr
          -23 -110 rlineto
          74 348 rmoveto
          -47 -219 rlineto
          -194 hlineto
          endchar
        </CharString>
        <CharString name="fourinferior">
          -267 -59 4 callsubr
          186 -80 rmoveto
          -83 callgsubr
          -23 -110 rlineto
          74 348 rmoveto
          -47 -219 rlineto
          -194 hlineto
          endchar
        </CharString>
        <CharString name="foursuperior">
          -266 448 4 callsubr
          294 427 rmoveto
          -83 callgsubr
          -23 -110 rlineto
          74 348 rmoveto
          -47 -219 rlineto
          -194 hlineto
          endchar
        </CharString>
        <CharString name="fraction">
          -499 20 -21 712 -20 hstem
          -262 -1 12 callsubr
        </CharString>
        <CharString name="franc">
          -24 21 -21 151 20 183 20 316 20 hstem
          74 hmoveto
          32 151 rlineto
          160 hlineto
          4 20 rlineto
          -160 hlineto
          39 183 -11 callsubr
          -115 -539 rlineto
          -89 -85 callgsubr
          89 hlineto
          -32 -151 rlineto
          endchar
        </CharString>
        <CharString name="g">
          -45 callgsubr
          hstemhm
          30 20 hintmask 11011000
          -80 callgsubr
          hintmask 11101000
          -103 callgsubr
          endchar
        </CharString>
        <CharString name="gacute">
          -45 callgsubr
          231 -20 hstemhm
          30 20 hintmask 11011100
          -80 callgsubr
          hintmask 11101100
          -103 callgsubr
          194 720 -95 callsubr
        </CharString>
        <CharString name="gbreve">
          -43 -223 20 193 -59 callsubr
          -20 163 -151 -3 callsubr
          hstemhm
          30 20 hintmask 11001110
          -80 callgsubr
          hintmask 11100110
          -103 callgsubr
          hintmask 11010110
          130 660 -104 callsubr
        </CharString>
        <CharString name="gcircumflex">
          -45 callgsubr
          231 -20 hstemhm
          30 20 hintmask 11011100
          -80 callgsubr
          hintmask 11101100
          -103 callgsubr
          53 634 -100 callsubr
        </CharString>
        <CharString name="gcommaaccent">
          -45 callgsubr
          231 -20 hstemhm
          30 20 hintmask 11011100
          -80 callgsubr
          hintmask 11101100
          -103 callgsubr
          146 720 rmoveto
          -25 -58 -12 -59 rlineto
          25 hlineto
          13 59 rlineto
          -9 hlineto
          22 58 rlineto
          endchar
        </CharString>
        <CharString name="gdotaccent">
          -45 callgsubr
          231 -20 hstemhm
          30 20 hintmask 11011100
          -80 callgsubr
          hintmask 11101100
          -103 callgsubr
          142 643 -74 callsubr
          endchar
        </CharString>
        <CharString name="germandbls">
          -96 15 -21 27 -21 393 20 281 20 hstemhm
          441 21 2 21 hintmask 10111100
          155 -6 rmoveto
          196 7 111 94 150 vvcurveto
          81 -44 59 -83 19 vhcurveto
          76 15 74 81 83 vvcurveto
          75 -56 56 -85 -104 -89 -82 -123 -26 vhcurveto
          hintmask 01111100
          -108 -509 -51 callsubr
          108 509 rlineto
          112 24 76 73 94 hhcurveto
          75 50 -50 -68 -90 -84 -73 -95 hvcurveto
          -15 -85 callgsubr
          16 hlineto
          99 60 -61 -92 -138 -105 -86 -177 -3 hvcurveto
          endchar
        </CharString>
        <CharString name="grave">
          -430 -3 callgsubr
          115 645 -75 callsubr
        </CharString>
        <CharString name="greater">
          -78 21 -21 517 -20 hstem
          492 268 rmoveto
          -417 249 rlineto
          -22 vlineto
          388 -236 -388 -237 rlineto
          -22 vlineto
          417 250 rlineto
          endchar
        </CharString>
        <CharString name="greaterequal">
          -149 85 20 409 -20 hstem
          73 85 rmoveto
          300 20 -300 hlineto
          10 92 rmoveto
          290 150 rlineto
          18 vlineto
          -300 149 10 -22 261 -136 -261 -137 rlineto
          endchar
        </CharString>
        <CharString name="guillemotleft">
          -122 -28 callgsubr
          159 -18 rmoveto
          189 -170 4 22 -173 157 240 156 5 22 -262 -169 rlineto
          endchar
        </CharString>
        <CharString name="guillemotright">
          -122 101 -21 357 -20 hstem
          447 268 rmoveto
          -190 169 -4 -22 173 -156 -240 -157 -4 -22 261 170 rlineto
          -159 18 -14 callsubr
        </CharString>
        <CharString name="guilsinglleft">
          -285 -28 callgsubr
          endchar
        </CharString>
        <CharString name="guilsinglright">
          -285 101 -21 357 -20 hstem
          284 268 -14 callsubr
        </CharString>
        <CharString name="h">
          -79 21 -53 callsubr
          203 -20 hstem
          454 20 vstem
          17 -55 callsubr
          -11 callgsubr
          rlineto
          101 47 106 78 92 hhcurveto
          67 35 -42 -81 -27 -5 -32 -7 -36 -42 callsubr
          8 37 4 34 28 vvcurveto
          92 -40 47 -78 -85 -93 -56 -86 -59 vhcurveto
          73 345 -92 callgsubr
          endchar
        </CharString>
        <CharString name="hbar">
          -79 21 -53 callsubr
          106 20 77 -20 hstem
          454 20 vstem
          82 633 rmoveto
          69 hlineto
          -134 -633 24 callgsubr
          101 47 106 78 92 hhcurveto
          67 35 -42 -81 -27 -4 -32 -8 -36 -42 callsubr
          8 37 4 34 28 vvcurveto
          92 -40 47 -78 -85 -93 -56 -86 -59 vhcurveto
          52 248 rlineto
          120 hlineto
          4 20 rlineto
          -120 hlineto
          17 77 -92 callgsubr
          -17 -77 rlineto
          -69 hlineto
          endchar
        </CharString>
        <CharString name="hcircumflex">
          -79 21 -53 callsubr
          203 -20 hstem
          454 20 vstem
          17 -55 callsubr
          -11 callgsubr
          rlineto
          101 47 106 78 92 hhcurveto
          67 35 -42 -81 -27 -5 -32 -7 -36 -42 callsubr
          8 37 4 34 28 vvcurveto
          92 -40 47 -78 -85 -93 -56 -86 -59 vhcurveto
          73 345 -92 callgsubr
          125 -86 -100 callsubr
        </CharString>
        <CharString name="hdotbelow">
          -79 -106 -21 148 -53 callsubr
          203 -20 hstem
          454 20 vstem
          17 -55 callsubr
          -11 callgsubr
          rlineto
          101 47 106 78 92 hhcurveto
          67 35 -42 -81 -27 -5 -32 -7 -36 -42 callsubr
          8 37 4 34 28 vvcurveto
          92 -40 47 -78 -85 -93 -56 -86 -59 vhcurveto
          73 345 -92 callgsubr
          32 -857 -74 callsubr
          endchar
        </CharString>
        <CharString name="hungarumlaut">
          -335 -3 callgsubr
          149 29 callsubr
          192 85 -95 callsubr
        </CharString>
        <CharString name="hyphen">
          -215 261 20 hstem
          328 261 rmoveto
          4 20 rlineto
          -269 -85 callgsubr
          endchar
        </CharString>
        <CharString name="i">
          21 -27 callgsubr
          endchar
        </CharString>
        <CharString name="iacute">
          21 -84 callsubr
          130 211 -95 callsubr
        </CharString>
        <CharString name="ibreve">
          21 -84 callsubr
          34 151 -104 callsubr
        </CharString>
        <CharString name="icircumflex">
          21 -84 callsubr
          -47 125 -100 callsubr
        </CharString>
        <CharString name="idblgrave">
          21 -84 callsubr
          84 126 rmoveto
          19 12 -88 callgsubr
        </CharString>
        <CharString name="idieresis">
          21 -84 callsubr
          -7 134 -95 callgsubr
        </CharString>
        <CharString name="idotbelow">
          -106 -21 148 -27 callgsubr
          -162 -857 -74 callsubr
          endchar
        </CharString>
        <CharString name="igrave">
          21 -84 callsubr
          25 126 -75 callsubr
        </CharString>
        <CharString name="iinvertedbreve">
          21 27 callsubr
          214 -20 37 -20 hstemhm
          hintmask 11100000
          2 callsubr
          -29 134 -98 callgsubr
          hintmask 11010000
          -78 callsubr
        </CharString>
        <CharString name="ij">
          -247 -170 20 171 -27 callgsubr
          -108 -900 rmoveto
          59 79 56 78 17 hvcurveto
          118 555 -92 callgsubr
          -118 -555 rlineto
          -64 -14 -66 -50 -52 hhcurveto
          -26 -29 -70 callgsubr
          282 823 3 callgsubr
          endchar
        </CharString>
        <CharString name="imacron">
          21 27 callsubr
          187 20 hstem
          2 callsubr
          169 167 -72 callsubr
        </CharString>
        <CharString name="infinity">
          83 186 20 291 20 hstem
          60 20 559 20 vstem
          210 517 rmoveto
          -85 -65 -74 -91 -91 65 -75 85 83 40 63 70 29 hvcurveto
          -70 30 40 -63 77 hhcurveto
          85 65 74 91 91 -58 75 -91 -81 -38 -62 -70 -31 hvcurveto
          70 -31 -39 62 -80 hhcurveto
          -311 vmoveto
          -62 -68 52 94 97 68 48 62 73 36 -67 -80 32 hvcurveto
          -78 -32 -37 -66 -72 hhcurveto
          300 hmoveto
          -71 -37 64 76 -31 hvcurveto
          81 30 34 69 75 hhcurveto
          62 67 -47 -97 -94 -67 -52 -62 hvcurveto
          endchar
        </CharString>
        <CharString name="integral">
          -358 -146 -21 987 -20 hstem
          146 -24 rmoveto
          2 -32 0 -4 -5 vvcurveto
          -56 -23 -28 -35 -18 -29 10 10 -21 vhcurveto
          -6 -17 rlineto
          -12 22 31 -9 22 hhcurveto
          46 29 36 62 4 0 4 -2 34 hvcurveto
          -38 708 rlineto
          -2 29 0 4 3 vvcurveto
          54 22 31 36 15 35 -10 -10 18 vhcurveto
          7 17 rlineto
          12 -22 -32 9 -22 hhcurveto
          -46 -30 -43 -56 -4 0 -4 2 -30 hvcurveto
          endchar
        </CharString>
        <CharString name="iogonek">
          -436 -138 -21 678 -3 callsubr
          hstem
          -81 20 vstem
          -43 -159 rmoveto
          -76 callgsubr
          -63 callsubr
          -108 -510 rlineto
          -74 -50 -27 -31 -38 -54 callgsubr
          200 812 3 callgsubr
          endchar
        </CharString>
        <CharString name="itilde">
          21 27 callsubr
          164 -12 callsubr
          hintmask 11100000
          2 callsubr
          86 144 rmoveto
          hintmask 11010000
          -87 callsubr
          hintmask 11100000
          -97 callgsubr
        </CharString>
        <CharString name="j">
          -429 -170 20 669 -3 callsubr
          hstem
          -118 -46 callsubr
          282 823 3 callgsubr
          endchar
        </CharString>
        <CharString name="j.alt">
          -192 -21 930 -20 hstem
          -28 -213 1 callgsubr
          155 730 -92 callgsubr
          29 136 1 callgsubr
          14 64 -92 callgsubr
          endchar
        </CharString>
        <CharString name="jcircumflex">
          -170 20 669 -20 231 -50 callgsubr
          203 814 -100 callsubr
        </CharString>
        <CharString name="k">
          -98 21 -21 730 -20 hstem
          489 22 vstem
          17 -55 callsubr
          66 311 rlineto
          138 103 89 63 87 hhcurveto
          67 40 -33 -56 -79 -82 -60 -150 -29 hvcurveto
          124 -255 rlineto
          24 hlineto
          -120 242 rlineto
          139 25 87 71 88 vvcurveto
          66 -47 39 -79 -93 -97 -64 -127 -86 vhcurveto
          83 390 -92 callgsubr
          endchar
        </CharString>
        <CharString name="kcommaaccent">
          -98 -146 -21 188 -21 730 -20 hstem
          489 22 vstem
          17 -55 callsubr
          66 311 rlineto
          138 103 89 63 87 hhcurveto
          67 40 -33 -56 -79 -82 -60 -150 -29 hvcurveto
          124 -255 rlineto
          24 hlineto
          -120 242 rlineto
          139 25 87 71 88 vvcurveto
          66 -47 39 -79 -93 -97 -64 -127 -86 vhcurveto
          83 390 -92 callgsubr
          -21 -897 -90 callsubr
        </CharString>
        <CharString name="kgreenlandic">
          -135 29 callgsubr
          36 169 160 128 147 -297 rlineto
          24 hlineto
          -153 311 258 206 rlineto
          -27 hlineto
          -403 -321 68 323 -92 callgsubr
          endchar
        </CharString>
        <CharString name="l">
          -395 16 -21 735 -91 callsubr
          endchar
        </CharString>
        <CharString name="l.alt">
          -421 21 -21 730 -20 hstem
          25 -55 callsubr
          155 730 -92 callgsubr
          endchar
        </CharString>
        <CharString name="lacute">
          -395 16 -21 735 -20 154 -91 callsubr
          187 869 -95 callsubr
        </CharString>
        <CharString name="lcaron">
          -402 16 -21 735 -91 callsubr
          150 650 rmoveto
          -28 callsubr
        </CharString>
        <CharString name="lcommaaccent">
          -395 -146 -21 183 -21 735 -91 callsubr
          -42 -162 -90 callsubr
        </CharString>
        <CharString name="ldot">
          -380 16 -21 735 -91 callsubr
          119 255 -20 callgsubr
        </CharString>
        <CharString name="less">
          -78 21 -21 517 -20 hstem
          31 250 rmoveto
          417 -250 rlineto
          22 vlineto
          -388 237 388 236 rlineto
          22 vlineto
          -417 -249 rlineto
          endchar
        </CharString>
        <CharString name="lessequal">
          -162 85 20 409 -20 hstem
          364 85 rmoveto
          20 -300 -20 vlineto
          262 vmoveto
          290 -150 rlineto
          22 vlineto
          -261 137 261 136 rlineto
          22 vlineto
          -290 -149 rlineto
          endchar
        </CharString>
        <CharString name="lira">
          -181 -15 20 0 20 236 20 65 20 329 20 hstemhm
          124 22 28 21 hintmask 10111110
          55 28 callsubr
          -24 vvcurveto
          -94 -85 callgsubr
          97 hlineto
          -4 -75 -29 -41 -150 -135 6 -17 rcurveline
          -15 callsubr
          hintmask 01111110
          21 callsubr
          131 121 29 52 4 70 rrcurveto
          152 hlineto
          4 20 rlineto
          -155 hlineto
          26 -3 20 -4 19 vhcurveto
          157 -48 callsubr
          -166 hlineto
          -15 57 -24 49 53 vvcurveto
          92 84 78 82 56 45 -37 -60 18 vhcurveto
          19 12 rlineto
          64 -19 -50 41 -63 hhcurveto
          -96 -98 -91 -104 -53 23 -47 15 -54 hvcurveto
          -103 hlineto
          endchar
        </CharString>
        <CharString name="logicalnot">
          -79 161 -21 178 20 hstem
          94 338 rmoveto
          -4 -20 rlineto
          364 hlineto
          -38 -178 -51 callsubr
          42 198 rlineto
          endchar
        </CharString>
        <CharString name="lozenge">
          -154 21 -21 730 -20 hstem
          234 730 rmoveto
          -186 -364 186 -366 rlineto
          24 hlineto
          186 366 -186 364 rlineto
          -8 -705 rmoveto
          -174 350 165 335 175 -356 rlineto
          endchar
        </CharString>
        <CharString name="lslash">
          -381 16 -21 735 -20 hstem
          32 304 rmoveto
          84 72 -63 -299 rlineto
          -2 -8 0 -7 -7 vvcurveto
          -37 22 -23 38 18 33 6 6 18 vhcurveto
          -3 16 rlineto
          -5 -18 -22 -4 -14 hhcurveto
          -33 -19 17 30 5 1 5 1 6 hvcurveto
          68 320 125 107 -12 14 -107 -92 65 304 -92 callgsubr
          -70 -325 -101 -87 rlineto
          endchar
        </CharString>
        <CharString name="m">
          247 21 -53 callsubr
          -8 -20 hstemhm
          436 22 322 21 hintmask 11011000
          17 -55 callsubr
          -11 callgsubr
          rlineto
          107 51 89 72 92 hhcurveto
          66 31 -37 -77 -28 -4 -35 -9 -41 -19 callsubr
          69 327 rlineto
          107 50 90 73 91 hhcurveto
          66 32 -38 -79 -28 -4 -34 -8 -39 -42 callsubr
          9 41 4 37 29 vvcurveto
          88 -37 43 -76 -85 -96 -55 -102 -50 vhcurveto
          1 8 0 8 8 vvcurveto
          84 -44 49 -74 -78 -81 -52 -90 -62 vhcurveto
          hintmask 10111000
          28 134 -92 callgsubr
          endchar
        </CharString>
        <CharString name="macron">
          -258 686 20 hstem
          312 686 -72 callsubr
        </CharString>
        <CharString name="minus">
          -71 261 20 hstem
          469 261 rmoveto
          20 -403 -20 vlineto
          endchar
        </CharString>
        <CharString name="mu">
          -39 10 callsubr
          -19 -69 callgsubr
        </CharString>
        <CharString name="multiply">
          -159 142 -21 300 -20 hstem
          236 270 rmoveto
          136 136 -14 15 -136 -136 -135 135 -15 -14 135 -136 -134 -134 14 -15 135 33 callgsubr
          -135 15 14 rlineto
          endchar
        </CharString>
        <CharString name="n">
          -79 21 7 callgsubr
          hintmask 11010000
          -100 callgsubr
          hintmask 10110000
          28 134 -92 callgsubr
          endchar
        </CharString>
        <CharString name="nacute">
          -79 21 -49 callsubr
          hintmask 11011000
          -100 callgsubr
          hintmask 10111000
          28 134 -92 callgsubr
          312 211 -95 callsubr
        </CharString>
        <CharString name="napostrophe">
          -79 21 -49 callsubr
          hintmask 11011000
          -100 callgsubr
          hintmask 10111000
          28 134 -92 callgsubr
          -120 211 18 callgsubr
        </CharString>
        <CharString name="ncaron">
          -79 21 -49 callsubr
          hintmask 11011000
          -100 callgsubr
          hintmask 10111000
          28 134 -92 callgsubr
          211 125 -91 callgsubr
        </CharString>
        <CharString name="ncommaaccent">
          -79 -146 -21 188 7 callgsubr
          hintmask 11101000
          -100 callgsubr
          hintmask 11011000
          28 134 -92 callgsubr
          54 -686 -90 callsubr
        </CharString>
        <CharString name="ndotaccent">
          -79 21 -49 callsubr
          hintmask 11011000
          -100 callgsubr
          hintmask 10111000
          28 134 -92 callgsubr
          238 134 -74 callsubr
          endchar
        </CharString>
        <CharString name="nine">
          -54 -156 20 220 20 445 20 hstem
          38 21 436 22 vstem
          173 -156 rmoveto
          204 140 254 259 131 -76 19 callsubr
          -111 74 -88 110 108 109 63 104 50 hvcurveto
          -228 -42 -122 -159 -148 hhcurveto
          -82 -59 54 80 -7 hvcurveto
          -20 -7 rlineto
          -90 8 64 -57 92 hhcurveto
          57 260 rmoveto
          -100 -71 28 callgsubr
          101 71 31 callgsubr
          hvcurveto
          endchar
        </CharString>
        <CharString name="nine.denominator">
          -239 -5 147 244 -20 hstem
          24 21 256 20 vstem
          116 -5 rmoveto
          122 83 -10 callsubr
          -86 -69 -83 -61 48 -49 70 60 61 34 49 29 hvcurveto
          -123 -27 -68 -71 -78 hhcurveto
          -49 -18 callgsubr
          41 -29 57 hhcurveto
          33 147 rmoveto
          -61 -43 43 54 69 74 60 77 61 44 -44 -52 -69 -75 -61 -77 hvcurveto
          endchar
        </CharString>
        <CharString name="nine.lnum">
          -39 -10 20 220 20 445 20 hstem
          75 21 435 22 vstem
          75 429 rmoveto
          -111 74 -88 110 100 105 68 99 50 vhcurveto
          -246 -52 -118 -141 -131 hhcurveto
          -81 -60 54 80 -7 hvcurveto
          -20 -7 rlineto
          -90 9 64 -57 92 hhcurveto
          204 139 254 259 131 -75 19 callsubr
          hvcurveto
          285 266 rmoveto
          101 70 31 callgsubr
          -100 -70 28 callgsubr
          hvcurveto
          endchar
        </CharString>
        <CharString name="nine.numerator">
          -239 339 147 226 -20 38 -20 hstemhm
          98 20 256 20 hintmask 10111000
          98 578 -33 callgsubr
          123 82 -10 callsubr
          -85 -69 -83 hvcurveto
          hintmask 11011000
          -13 callgsubr
        </CharString>
        <CharString name="nineinferior">
          -239 -85 147 244 -20 hstem
          7 21 256 20 vstem
          7 154 rmoveto
          -61 48 -49 70 20 callsubr
          -78 hhcurveto
          -49 -18 callgsubr
          41 -29 57 hhcurveto
          122 83 -10 callsubr
          -86 -69 -83 hvcurveto
          172 134 rmoveto
          61 44 -44 -52 -69 -75 -61 -77 -60 -44 43 54 69 74 60 77 hvcurveto
          endchar
        </CharString>
        <CharString name="ninesuperior">
          -240 419 147 244 -20 hstem
          114 20 256 20 vstem
          114 658 -33 callgsubr
          122 83 -10 callsubr
          -85 -69 -83 hvcurveto
          -13 callgsubr
        </CharString>
        <CharString name="notequal">
          -165 149 -21 103 20 50 20 102 -20 hstem
          74 301 rmoveto
          146 hlineto
          -31 -50 rlineto
          -115 -20 102 hlineto
          -65 -103 rlineto
          25 hlineto
          65 103 rlineto
          166 20 -153 hlineto
          32 50 rlineto
          121 20 -108 hlineto
          65 102 rlineto
          -26 hlineto
          -65 -102 rlineto
          -159 hlineto
          endchar
        </CharString>
        <CharString name="ntilde">
          -79 21 -53 callsubr
          -20 175 -163 -20 164 -12 callsubr
          455 21 hintmask 11001010
          -100 callgsubr
          hintmask 10011010
          28 134 -92 callgsubr
          287 144 rmoveto
          hintmask 10100110
          -87 callsubr
          hintmask 11001010
          -97 callgsubr
        </CharString>
        <CharString name="numbersign">
          4 21 -21 221 20 240 20 209 -20 hstem
          627 501 rmoveto
          -107 hlineto
          94 209 -1 callgsubr
          -93 -209 rlineto
          -227 hlineto
          94 209 -1 callgsubr
          -92 -209 rlineto
          -134 hlineto
          -5 -20 rlineto
          129 hlineto
          -105 -240 rlineto
          -113 -85 callgsubr
          107 21 callgsubr
          227 21 callgsubr
          134 hlineto
          4 20 rlineto
          -129 hlineto
          106 240 rlineto
          112 hlineto
          -465 -240 rmoveto
          106 240 rlineto
          227 hlineto
          -106 -240 rlineto
          endchar
        </CharString>
        <CharString name="o">
          -58 -51 callgsubr
          hstem
          -43 callgsubr
          vstem
          -106 callsubr
          endchar
        </CharString>
        <CharString name="oacute">
          -58 -51 callgsubr
          203 -20 hstem
          -43 callgsubr
          vstem
          -106 callsubr
          229 720 -95 callsubr
        </CharString>
        <CharString name="obreve">
          25 callgsubr
          163 60 -20 hstemhm
          -43 callgsubr
          hintmask 11011100
          -106 callsubr
          hintmask 10111100
          136 660 -104 callsubr
        </CharString>
        <CharString name="ocircumflex">
          -58 -51 callgsubr
          203 -20 hstem
          -43 callgsubr
          vstem
          -106 callsubr
          59 634 -100 callsubr
        </CharString>
        <CharString name="odblgrave">
          25 callgsubr
          223 hstemhm
          -43 callgsubr
          hintmask 11011000
          -106 callsubr
          212 635 rmoveto
          19 12 rlineto
          hintmask 10111000
          -88 callgsubr
        </CharString>
        <CharString name="odieresis">
          -58 -51 callgsubr
          203 -20 hstem
          -43 callgsubr
          vstem
          -106 callsubr
          89 643 -95 callgsubr
        </CharString>
        <CharString name="odotbelow">
          -58 -106 -21 117 -59 callsubr
          hstem
          -43 callgsubr
          vstem
          -106 callsubr
          -19 -137 -74 callsubr
          endchar
        </CharString>
        <CharString name="oe">
          381 -63 callgsubr
          hstem
          30 20 431 21 vstem
          213 -10 rmoveto
          105 108 78 117 55 hvcurveto
          -113 7 82 -82 106 hhcurveto
          85 95 52 72 44 hvcurveto
          -18 5 rlineto
          -64 -39 -82 -45 -79 hhcurveto
          -107 -73 85 113 13 1 13 2 14 hvcurveto
          450 hlineto
          3 7 3 9 41 vvcurveto
          137 -67 85 -116 -112 -103 -75 -120 -52 vhcurveto
          117 -3 -73 78 -104 hhcurveto
          -151 -150 -150 -173 -120 73 -94 110 hvcurveto
          5 20 rmoveto
          -101 -67 86 111 159 140 141 136 100 67 -88 -112 -159 -138 -138 -137 hvcurveto
          291 258 rmoveto
          137 36 112 102 117 hhcurveto
          102 67 -78 -113 -16 -2 -16 -2 -16 hvcurveto
          endchar
        </CharString>
        <CharString name="ogonek">
          -426 -138 -21 173 -20 hstem
          23 20 vstem
          61 -159 rmoveto
          -76 callgsubr
          -9 14 rlineto
          -83 -54 -27 -31 -39 -54 callgsubr
          endchar
        </CharString>
        <CharString name="ograve">
          -58 -51 callgsubr
          203 -20 hstem
          -43 callgsubr
          vstem
          -106 callsubr
          166 635 -75 callsubr
        </CharString>
        <CharString name="ohungarumlaut">
          25 callgsubr
          223 hstemhm
          -43 callgsubr
          hintmask 11011000
          -106 callsubr
          hintmask 10111000
          152 720 rmoveto
          -33 hlineto
          -76 -73 13 -12 rlineto
          192 85 -95 callsubr
        </CharString>
        <CharString name="oinvertedbreve">
          25 callgsubr
          223 -17 -20 hstemhm
          -43 callgsubr
          hintmask 11011100
          -106 callsubr
          70 643 -98 callgsubr
          hintmask 10101100
          -78 callsubr
        </CharString>
        <CharString name="omacron">
          -58 -51 callgsubr
          159 20 hstem
          -43 callgsubr
          vstem
          -106 callsubr
          277 676 -72 callsubr
        </CharString>
        <CharString name="one">
          -266 0 20 432 24 95 -20 hstem
          2 hmoveto
          276 hlineto
          4 20 rlineto
          -121 hlineto
          117 551 -92 callgsubr
          -4 -3 -105 -91 -69 hhcurveto
          -5 -24 rlineto
          52 96 55 31 27 hvcurveto
          -110 -518 rlineto
          -135 hlineto
          endchar
        </CharString>
        <CharString name="one.denominator">
          -379 21 -21 389 -20 hstem
          -16 hmoveto
          173 -37 callgsubr
          -74 hlineto
          78 370 rlineto
          -19 hlineto
          -3 -3 -60 -51 -41 hhcurveto
          -4 -19 rlineto
          31 54 30 17 17 hvcurveto
          -73 -344 rlineto
          -79 hlineto
          endchar
        </CharString>
        <CharString name="one.lnum">
          -283 0 20 581 20 99 -20 hstem
          -3 hmoveto
          266 hlineto
          4 20 rlineto
          -120 hlineto
          149 700 -1 callgsubr
          -4 -2 -100 -95 -66 hhcurveto
          -4 -20 rlineto
          51 87 55 31 27 hvcurveto
          -141 -667 rlineto
          -126 hlineto
          endchar
        </CharString>
        <CharString name="one.numerator">
          -379 363 -21 389 -20 hstem
          159 361 rmoveto
          79 370 -92 callgsubr
          -3 -2 -60 -51 -41 hhcurveto
          -4 -19 rlineto
          31 54 30 17 17 hvcurveto
          -73 -344 rlineto
          -79 hlineto
          -4 -19 rlineto
          172 -37 callgsubr
          endchar
        </CharString>
        <CharString name="oneeighth">
          133 -4 -8 callsubr
          348 -20 hstemhm
          388 -35 callgsubr
          hintmask 10110101
          34 -1 -82 callsubr
          147 350 rmoveto
          79 370 -92 callgsubr
          -3 -2 -60 -51 -41 hhcurveto
          -4 -19 rlineto
          31 54 30 17 17 hvcurveto
          -73 -344 rlineto
          -79 hlineto
          -4 -19 rlineto
          172 -37 callgsubr
          265 -365 -41 callsubr
          hintmask 01111010
          -82 callgsubr
          hintmask 10111010
          -49 callgsubr
          hintmask 01111010
          -48 callgsubr
          hintmask 10111001
          -66 callsubr
          endchar
        </CharString>
        <CharString name="onehalf">
          135 20 -21 22 -21 731 -20 hstemhm
          691 21 hintmask 10110000
          20 -1 -82 callsubr
          165 350 rmoveto
          79 370 -92 callgsubr
          -3 -2 -60 -51 -41 hhcurveto
          -4 -19 rlineto
          31 54 30 17 17 hvcurveto
          -73 -344 rlineto
          -79 hlineto
          -4 -19 rlineto
          172 -37 callgsubr
          hintmask 01110000
          134 -361 rmoveto
          271 hlineto
          -83 callsubr
          -78 callgsubr
        </CharString>
        <CharString name="oneinferior">
          -379 -59 -21 389 -20 hstem
          70 -61 rmoveto
          78 370 rlineto
          -19 hlineto
          -3 -3 -60 -51 -41 hhcurveto
          -4 -19 rlineto
          31 54 30 17 17 hvcurveto
          -73 -344 rlineto
          -79 hlineto
          -4 -19 rlineto
          173 -37 callgsubr
          endchar
        </CharString>
        <CharString name="onequarter">
          91 20 -21 22 -21 731 -20 hstemhm
          hintmask 10100000
          43 -1 -82 callsubr
          136 350 rmoveto
          79 370 -92 callgsubr
          -3 -2 -60 -51 -41 hhcurveto
          -4 -19 rlineto
          31 54 30 17 17 hvcurveto
          -73 -344 rlineto
          -79 hlineto
          -4 -19 rlineto
          172 -37 callgsubr
          hintmask 01100000
          297 -361 rmoveto
          19 hlineto
          -83 callgsubr
          -190 19 rmoveto
          241 219 -47 -219 rlineto
          endchar
        </CharString>
        <CharString name="onesuperior">
          -379 443 -21 316 -20 93 -20 hstem
          176 441 rmoveto
          79 370 -92 callgsubr
          -3 -2 -60 -51 -41 hhcurveto
          -4 -19 rlineto
          31 54 30 17 17 hvcurveto
          -73 -344 rlineto
          -79 hlineto
          -4 -19 rlineto
          172 -37 callgsubr
          endchar
        </CharString>
        <CharString name="onethird">
          133 -5 -6 callgsubr
          343 -20 hstemhm
          653 20 7 21 hintmask 10111000
          24 -1 -82 callsubr
          159 350 rmoveto
          79 370 -92 callgsubr
          -3 -2 -60 -51 -41 hhcurveto
          -4 -19 rlineto
          31 54 30 17 17 hvcurveto
          -73 -344 rlineto
          -79 hlineto
          -4 -19 rlineto
          172 -37 callgsubr
          265 -366 -77 callsubr
          hintmask 01111000
          -71 callsubr
          hintmask 10111000
          -58 -55 -32 -92 vhcurveto
          -21 hlineto
          hintmask 01111000
          -7 callsubr
          77 47 -60 callgsubr
          hintmask 10111000
          5 callgsubr
        </CharString>
        <CharString name="oogonek">
          -58 -147 -21 158 -59 callsubr
          hstem
          30 20 68 20 355 20 vstem
          156 -168 rmoveto
          -76 callgsubr
          140 14 136 145 158 vvcurveto
          121 -75 98 -109 -146 -153 -151 -169 -116 69 -95 106 -6 vhcurveto
          17 callsubr
          62 178 rmoveto
          -100 -68 89 110 156 142 142 133 99 69 -91 -111 -155 -141 -140 -134 hvcurveto
          endchar
        </CharString>
        <CharString name="ordfeminine">
          -215 351 26 160 23 124 25 hstem
          79 30 251 30 vstem
          171 351 rmoveto
          57 58 24 41 40 hvcurveto
          -5 -29 rlineto
          -1 -3 0 -2 -2 vvcurveto
          -18 12 -5 22 vhcurveto
          6 29 rlineto
          -7 -4 4 6 2 0 2 1 2 hvcurveto
          36 171 rlineto
          3 13 1 13 12 vvcurveto
          62 -39 36 -69 -39 -44 -15 -31 -51 vhcurveto
          8 -20 rlineto
          27 45 41 14 33 hhcurveto
          54 31 -31 -49 -9 -1 -9 -2 -10 hvcurveto
          -7 -35 rlineto
          12 -28 -39 7 -38 hhcurveto
          -92 -74 -49 -71 -50 37 -39 55 hvcurveto
          11 26 rmoveto
          -44 -29 30 38 57 58 35 77 37 34 -5 -14 30 hvcurveto
          -13 -61 rlineto
          -45 -10 -78 -35 -62 hhcurveto
          endchar
        </CharString>
        <CharString name="ordmasculine">
          -188 372 -21 338 20 hstem
          91 21 300 22 vstem
          223 351 rmoveto
          108 103 101 110 81 -54 66 -81 -106 -102 -101 -111 -79 51 -67 81 hvcurveto
          4 19 rmoveto
          -68 -47 57 72 102 94 88 89 69 48 -57 -73 -100 -93 -89 -92 hvcurveto
          endchar
        </CharString>
        <CharString name="oslash">
          -58 -64 callsubr
          -8 -20 hstemhm
          -43 callgsubr
          hintmask 01101100
          55 hmoveto
          24 hlineto
          24 30 rlineto
          hintmask 10011100
          -23 callgsubr
          hintmask 01101100
          -52 callgsubr
          hintmask 10101100
          -32 callsubr
        </CharString>
        <CharString name="oslashacute">
          -58 -10 20 11 -21 507 -19 callgsubr
          -43 callgsubr
          hintmask 01101110
          447 29 callsubr
          -296 -645 rmoveto
          24 hlineto
          24 30 rlineto
          hintmask 10011110
          -23 callgsubr
          hintmask 01101110
          -52 callgsubr
          hintmask 10101110
          -32 callsubr
        </CharString>
        <CharString name="otilde">
          25 callgsubr
          175 -19 -12 callsubr
          -43 callgsubr
          hintmask 11010110
          -106 callsubr
          194 653 rmoveto
          hintmask 10101110
          -87 callsubr
          hintmask 11010110
          -97 callgsubr
        </CharString>
        <CharString name="p">
          -42 -10 callgsubr
          -8 -20 hstemhm
          508 20 hintmask 11101000
          -28 -213 1 callgsubr
          71 332 rlineto
          -70 27 59 -59 87 hhcurveto
          160 132 159 157 113 -68 108 -118 -75 -87 -49 -69 -56 hvcurveto
          hintmask 11011000
          23 110 rlineto
          -19 hlineto
          112 -509 rmoveto
          -87 -64 67 84 -18 hvcurveto
          40 187 rlineto
          hintmask 11101000
          83 23 127 76 76 hhcurveto
          104 67 -95 -108 -138 -121 -156 -147 hvcurveto
          endchar
        </CharString>
        <CharString name="paragraph">
          -78 -59 -21 328 20 422 20 hstem
          64 20 vstem
          64 433 rmoveto
          -114 81 -68 143 -3 vhcurveto
          -70 -328 24 callgsubr
          86 hlineto
          -70 -328 -51 callsubr
          164 770 rlineto
          66 -48 callsubr
          -192 hlineto
          -196 -127 -112 -165 hvcurveto
          20 5 rmoveto
          150 108 102 190 vhcurveto
          -90 -422 rlineto
          -115 5 -93 49 116 vvcurveto
          314 -170 rmoveto
          -86 hlineto
          90 422 rlineto
          86 hlineto
          endchar
        </CharString>
        <CharString name="parenleft">
          -391 -5 -21 752 -20 hstem
          49 20 vstem
          49 256 rmoveto
          -88 20 -106 39 -88 vhcurveto
          18 12 rlineto
          -38 84 -19 111 83 vvcurveto
          158 118 182 94 110 vhcurveto
          -13 12 rlineto
          -119 -152 -100 -139 -179 vvcurveto
          endchar
        </CharString>
        <CharString name="parenright">
          -391 -5 -21 752 -20 hstem
          177 21 vstem
          198 433 rmoveto
          99 -25 105 -32 89 vhcurveto
          -18 -12 rlineto
          30 -70 24 -122 -98 vvcurveto
          -142 -84 -154 -125 -142 vhcurveto
          13 -12 rlineto
          138 160 79 142 157 vvcurveto
          endchar
        </CharString>
        <CharString name="partialdiff">
          -49 -10 21 403 20 261 20 hstemhm
          36 20 419 48 -20 20 hintmask 11110100
          255 -10 rmoveto
          159 109 140 269 224 -75 92 -145 -75 -74 -25 -54 -44 hvcurveto
          13 -12 rlineto
          41 34 68 30 78 hhcurveto
          120 80 -72 -209 -47 -4 -75 -8 -34 hvcurveto
          114 -21 -86 62 -100 hhcurveto
          -135 -113 -112 -127 -114 91 -91 128 hvcurveto
          -2 21 rmoveto
          -116 -81 82 102 118 107 101 119 hvcurveto
          hintmask 11111000
          109 84 -85 -95 -90 -74 -133 -148 hvcurveto
          endchar
        </CharString>
        <CharString name="percent">
          25 -10 20 236 20 178 20 236 20 hstem
          105 20 168 20 41 20 168 20 vstem
          210 444 rmoveto
          82 82 76 87 63 -43 50 -62 -83 -81 -76 -87 -63 42 -50 63 32 callgsubr
          -52 -37 42 55 71 68 68 71 51 39 -42 -55 -71 -69 -68 -71 hvcurveto
          184 -474 rmoveto
          83 81 75 88 63 -43 50 -62 -82 -82 -76 -87 -64 43 -49 62 32 callgsubr
          -53 -36 42 54 72 69 68 71 51 38 -43 -55 -71 -69 -67 -71 hvcurveto
          -402 8 callsubr
        </CharString>
        <CharString name="period">
          -460 21 -21 64 -20 hstem
          28 hmoveto
          3 callsubr
          endchar
        </CharString>
        <CharString name="periodcentered">
          -464 271 -21 83 -20 hstem
          76 250 -20 callgsubr
        </CharString>
        <CharString name="perthousand">
          331 -10 20 236 20 178 20 236 20 hstem
          111 20 168 20 41 20 168 20 46 20 229 20 vstem
          218 444 rmoveto
          80 82 76 88 63 -42 49 13 callgsubr
          -54 -37 42 53 73 69 68 68 53 39 -42 -54 -72 -69 -68 -69 hvcurveto
          184 -474 rmoveto
          80 82 75 88 63 -42 50 13 callgsubr
          -55 -36 42 53 73 70 68 68 54 37 -43 -53 -73 -69 -67 -69 hvcurveto
          311 -20 rmoveto
          79 83 75 88 63 -42 50 -65 -80 -82 -76 -88 -64 43 -48 64 32 callgsubr
          -55 -36 42 53 73 69 68 68 54 38 -43 -54 -72 -69 -67 -69 hvcurveto
          -719 8 callsubr
        </CharString>
        <CharString name="pi">
          3 16 -21 26 -21 499 20 hstemhm
          134 20 246 20 hintmask 10111000
          479 -5 rmoveto
          18 33 6 6 18 hvcurveto
          -7 16 rlineto
          -5 -17 -23 -4 -15 hhcurveto
          -40 -26 24 39 hvcurveto
          422 110 20 -476 -20 80 vlineto
          hintmask 01111000
          -499 20 499 246 -422 vlineto
          hintmask 10111000
          -49 32 -33 47 vhcurveto
          endchar
        </CharString>
        <CharString name="plus">
          -209 216 -21 150 20 150 -20 hstem
          205 20 vstem
          225 365 -5 callgsubr
        </CharString>
        <CharString name="plusminus">
          -136 85 20 240 20 150 -20 hstem
          217 20 vstem
          377 85 rmoveto
          20 -300 -20 vlineto
          160 280 -5 callgsubr
        </CharString>
        <CharString name="product">
          47 -69 -21 780 20 hstem
          163 20 341 20 vstem
          524 -90 rmoveto
          20 780 80 20 -551 -20 90 -780 20 780 341 hlineto
          endchar
        </CharString>
        <CharString name="q">
          -43 -10 callgsubr
          -8 -20 hstemhm
          29 20 hintmask 11011000
          208 -10 rmoveto
          77 78 45 84 73 hvcurveto
          -62 -292 rlineto
          -1 -3 0 -3 -3 vvcurveto
          -10 3 -9 6 -6 vhcurveto
          -4 5 6 -2 8 hhcurveto
          -46 callgsubr
          2 1 3 hvcurveto
          147 692 -92 callgsubr
          -23 -110 rlineto
          hintmask 11101000
          66 -25 -65 52 -77 hhcurveto
          -151 -151 -156 -166 -112 62 -103 117 32 callgsubr
          -102 -61 91 107 145 132 154 146 92 56 -68 -81 13 hvcurveto
          -43 -197 rlineto
          -79 -54 -85 -72 -94 hhcurveto
          endchar
        </CharString>
        <CharString name="q.alt">
          -43 -10 callgsubr
          -8 -20 hstemhm
          29 20 hintmask 11011000
          366 -213 1 callgsubr
          155 732 -92 callgsubr
          -23 -110 rlineto
          hintmask 11101000
          66 -25 -65 52 -77 hhcurveto
          -151 -151 -156 -166 -112 62 -103 117 77 78 45 84 73 hvcurveto
          -224 -109 rmoveto
          -102 -61 91 107 145 132 154 146 92 63 -71 -71 8 hvcurveto
          -45 -204 rlineto
          -79 -54 -85 -72 -94 hhcurveto
          endchar
        </CharString>
        <CharString name="question">
          -170 21 -21 699 20 hstem
          443 20 vstem
          162 179 rmoveto
          25 118 35 27 46 23 rrcurveto
          90 46 105 25 154 vvcurveto
          96 -65 51 -79 -79 -93 -46 -83 -53 vhcurveto
          16 -8 rlineto
          72 48 82 45 76 hhcurveto
          68 59 -40 -87 -146 -101 -21 -79 -39 hvcurveto
          -52 -25 -42 -34 -27 -128 rrcurveto
          -18 -179 rmoveto
          18 84 -92 callgsubr
          -18 -84 rlineto
          endchar
        </CharString>
        <CharString name="questiondown">
          -174 -213 20 699 -20 hstem
          -37 20 vstem
          264 327 rmoveto
          -25 -118 -35 -27 -46 -23 rrcurveto
          -90 -46 -105 -25 -154 vvcurveto
          -96 65 -51 79 79 93 46 83 53 vhcurveto
          -16 8 rlineto
          -72 -48 -82 -45 -76 hhcurveto
          -68 -59 40 87 146 101 21 79 39 hvcurveto
          52 25 42 34 27 128 rrcurveto
          18 179 rmoveto
          -18 -84 -51 callsubr
          18 84 rlineto
          endchar
        </CharString>
        <CharString name="quotedbl">
          -407 591 -21 140 -20 hstem
          147 570 rmoveto
          30 140 -92 callgsubr
          -30 -140 rlineto
          68 hmoveto
          30 140 -92 callgsubr
          -30 -140 rlineto
          endchar
        </CharString>
        <CharString name="quotedblbase">
          -294 -14 callgsubr
          81 hmoveto
          29 76 16 74 rlineto
          -26 hlineto
          -16 -74 rlineto
          9 hlineto
          -25 -76 rlineto
          endchar
        </CharString>
        <CharString name="quotedblleft">
          -381 591 -21 160 -20 hstem
          170 730 rmoveto
          -22 callgsubr
          63 hmoveto
          -22 callgsubr
          endchar
        </CharString>
        <CharString name="quotedblright">
          -384 591 -21 160 -20 hstem
          137 570 rmoveto
          -22 callsubr
          89 hmoveto
          -22 callsubr
          endchar
        </CharString>
        <CharString name="quoteleft">
          -457 591 -21 160 -20 hstem
          170 730 rmoveto
          -22 callgsubr
          endchar
        </CharString>
        <CharString name="quoteright">
          -460 591 -21 160 -20 hstem
          137 570 rmoveto
          -22 callsubr
          endchar
        </CharString>
        <CharString name="quotesinglbase">
          -362 -14 callgsubr
          endchar
        </CharString>
        <CharString name="quotesingle">
          -456 590 -21 141 -20 hstem
          147 569 rmoveto
          30 141 -92 callgsubr
          -30 -141 rlineto
          endchar
        </CharString>
        <CharString name="r">
          -302 21 -21 519 -20 hstem
          -90 callgsubr
          endchar
        </CharString>
        <CharString name="racute">
          -302 21 -40 callgsubr
          -90 callgsubr
          192 211 -95 callsubr
        </CharString>
        <CharString name="radical">
          -243 21 -21 345 20 425 -20 hstem
          24 345 rmoveto
          79 hlineto
          97 -345 rlineto
          31 hlineto
          136 790 -1 callgsubr
          -132 -763 -93 338 rlineto
          -97 hlineto
          endchar
        </CharString>
        <CharString name="rcaron">
          -302 21 -40 callgsubr
          -90 callgsubr
          105 125 -91 callgsubr
        </CharString>
        <CharString name="rcommaaccent">
          -302 -146 -21 188 27 callsubr
          hstem
          -90 callgsubr
          -138 -686 -90 callsubr
        </CharString>
        <CharString name="rdblgrave">
          -302 21 -21 499 231 -211 -20 hstemhm
          hintmask 10100000
          -90 callgsubr
          176 126 rmoveto
          19 12 rlineto
          hintmask 11000000
          -88 callgsubr
        </CharString>
        <CharString name="rdotbelow">
          -302 -106 -21 148 27 callsubr
          hstem
          -90 callgsubr
          -117 -646 -74 callsubr
          endchar
        </CharString>
        <CharString name="registered">
          217 -7 20 290 20 239 21 112 20 hstem
          68 21 195 21 277 20 167 -43 callsubr
          20 vmoveto
          -196 -144 146 196 194 145 146 195 196 144 -146 -194 -206 -148 -136 -192 hvcurveto
          -145 108 rmoveto
          21 182 156 hlineto
          116 -182 rlineto
          24 hlineto
          -117 182 rlineto
          70 5 48 63 72 vvcurveto
          69 -54 71 -76 vhcurveto
          -188 hlineto
          21 -260 rmoveto
          239 167 vlineto
          65 45 -54 -65 -64 -36 -56 -69 hvcurveto
          endchar
        </CharString>
        <CharString name="ring">
          -393 616 114 -16 -20 hstemhm
          58 111 hintmask 10100000
          58 662 -68 callsubr
          hintmask 01100000
          64 52 -73 callsubr
          endchar
        </CharString>
        <CharString name="rinvertedbreve">
          -302 21 -21 499 235 -215 -20 218 -20 hstemhm
          hintmask 10110000
          -90 callgsubr
          50 138 -98 callgsubr
          hintmask 11000000
          -78 callsubr
        </CharString>
        <CharString name="s">
          24 callsubr
          -102 callgsubr
          endchar
        </CharString>
        <CharString name="s_t">
          112 -10 20 6 -21 512 246 -234 -20 28 -20 226 20 hstemhm
          66 21 285 147 -21 21 98 21 hintmask 1010001101000000
          167 -10 rmoveto
          93 128 47 117 100 -94 8 -72 6 hvcurveto
          -67 6 -68 9 84 vvcurveto
          102 99 38 88 49 54 -12 -51 20 vhcurveto
          20 8 rlineto
          -7 23 -19 46 64 vvcurveto
          hintmask 0101011011000000
          70 23 78 125 55 23 -15 -55 -32 -8 -47 -14 -65 vhcurveto
          -71 hlineto
          -5 -20 rlineto
          71 hlineto
          -90 -424 rlineto
          -1 -5 -1 -7 -7 vvcurveto
          -36 30 -25 44 46 46 27 2 2 vhcurveto
          -7 16 rlineto
          -2 -3 -40 -23 -40 hhcurveto
          -32 -25 15 34 2 0 4 1 5 hvcurveto
          90 424 -39 callsubr
          -118 hlineto
          13 63 10 49 38 vvcurveto
          57 -23 27 -73 vhcurveto
          hintmask 1000111101000000
          -135 -35 -92 -72 -34 8 -26 6 -32 hvcurveto
          19 -24 -36 11 -48 hhcurveto
          -94 -118 -42 -125 -96 70 -8 78 -7 hvcurveto
          84 -8 69 -8 -80 vvcurveto
          -103 -112 -40 -82 -65 -53 25 50 -41 vhcurveto
          -17 -13 rlineto
          -45 33 55 -37 82 hhcurveto
          endchar
        </CharString>
        <CharString name="sacute">
          24 callsubr
          203 -20 -102 callgsubr
          228 740 -95 callsubr
        </CharString>
        <CharString name="scaron">
          24 callsubr
          203 -20 -102 callgsubr
          133 654 -91 callgsubr
        </CharString>
        <CharString name="schwa">
          -71 -10 20 239 20 238 20 hstem
          16 22 441 20 vstem
          203 -10 rmoveto
          149 147 147 169 123 -75 98 -111 -86 -95 -53 -71 -41 hvcurveto
          17 -5 rlineto
          64 41 83 45 76 hhcurveto
          102 69 -83 -113 -14 -1 -14 -2 -14 hvcurveto
          -451 hlineto
          -8 -22 -1 -30 -22 vvcurveto
          -118 75 -87 112 vhcurveto
          4 20 rmoveto
          -103 -66 77 114 15 1 16 3 17 hvcurveto
          429 hlineto
          -137 -35 -113 -102 -116 hhcurveto
          endchar
        </CharString>
        <CharString name="scircumflex">
          24 callsubr
          203 -20 -102 callgsubr
          70 654 -100 callsubr
        </CharString>
        <CharString name="sdotbelow">
          -169 -106 -21 117 -59 callsubr
          -102 callgsubr
          -7 -117 -74 callsubr
          endchar
        </CharString>
        <CharString name="section">
          -151 -88 20 258 236 -20 20 269 20 hstemhm
          78 20 0 21 238 22 6 20 hintmask 11010111
          346 181 rmoveto
          33 28 26 50 48 vvcurveto
          85 -74 34 -79 -79 -54 28 74 105 106 62 82 49 63 -11 -52 14 vhcurveto
          20 8 rlineto
          48 -22 -36 27 -84 hhcurveto
          -89 -124 -68 -122 -38 13 -36 22 -16 hvcurveto
          hintmask 11011011
          -28 -26 -27 -49 -48 vvcurveto
          -84 67 -36 82 -2 vhcurveto
          63 -2 67 -14 -75 vvcurveto
          -104 -107 -63 -83 -63 -44 25 50 -40 vhcurveto
          -18 -13 rlineto
          -45 33 46 -37 81 hhcurveto
          91 126 68 126 33 -11 27 -22 15 hvcurveto
          -248 131 rmoveto
          47 24 43 28 23 vhcurveto
          hintmask 10111011
          -13 26 35 -6 37 hhcurveto
          63 74 -25 -78 hvcurveto
          hintmask 11011011
          -43 -25 -46 -32 -24 vhcurveto
          -68 31 -162 -35 126 vvcurveto
          endchar
        </CharString>
        <CharString name="semicolon">
          -458 -60 -21 92 -21 527 -20 hstem
          122 453 rmoveto
          14 callgsubr
          -102 -534 rmoveto
          27 71 -18 callsubr
          -25 -71 rlineto
          endchar
        </CharString>
        <CharString name="servicemark">
          11 451 -21 265 20 -5 -20 hstemhm
          136 20 124 20 hintmask 10111000
          479 501 rmoveto
          -55 209 -1 callgsubr
          -59 -277 -51 callsubr
          50 239 51 -197 rlineto
          17 hlineto
          135 197 -51 -239 rlineto
          19 hlineto
          59 277 rlineto
          -22 hlineto
          -302 -29 rmoveto
          hintmask 11011000
          25 -16 -23 9 -33 hhcurveto
          -66 -46 -34 -56 -39 43 -12 39 -12 hvcurveto
          32 -10 30 -11 -29 vvcurveto
          -42 -35 -21 -52 -40 -25 12 30 -20 vhcurveto
          -14 -17 rlineto
          -30 22 30 -14 42 hhcurveto
          67 45 31 56 37 -34 15 -35 11 hvcurveto
          -37 12 -38 8 29 vvcurveto
          39 26 27 62 27 18 -7 -24 12 vhcurveto
          endchar
        </CharString>
        <CharString name="seven">
          -109 -106 -21 690 20 hstem
          21 -127 rmoveto
          6 callsubr
        </CharString>
        <CharString name="seven.denominator">
          -306 21 4 callsubr
          -1 hmoveto
          -34 callgsubr
          -8 callgsubr
        </CharString>
        <CharString name="seven.lnum">
          -156 21 -21 690 20 hstem
          23 hmoveto
          6 callsubr
        </CharString>
        <CharString name="seven.numerator">
          -307 368 -21 364 31 callsubr
          hintmask 10100000
          73 347 23 callgsubr
          hintmask 11000000
          -8 callgsubr
        </CharString>
        <CharString name="seveneighths">
          134 -4 -8 callsubr
          328 31 callsubr
          390 -35 callgsubr
          hintmask 1010101010000000
          -4 -1 -82 callsubr
          526 -15 -41 callsubr
          hintmask 0101110100000000
          -82 callgsubr
          hintmask 1001110100000000
          -49 callgsubr
          hintmask 0101110100000000
          -48 callgsubr
          hintmask 1001110010000000
          -66 callsubr
          -465 133 23 callgsubr
          hintmask 1010110100000000
          -8 callgsubr
        </CharString>
        <CharString name="seveninferior">
          -306 -59 4 callsubr
          -18 -80 23 callgsubr
          -8 callgsubr
        </CharString>
        <CharString name="sevensuperior">
          -307 448 4 callsubr
          90 427 23 callgsubr
          -8 callgsubr
        </CharString>
        <CharString name="six">
          -36 callsubr
          -108 -109 -63 -104 -50 hvcurveto
          228 42 122 159 148 -58 callgsubr
        </CharString>
        <CharString name="six.denominator">
          -239 16 -21 244 147 hstem
          12 20 vstem
          132 -5 rmoveto
          91 85 69 83 -9 callgsubr
          hvcurveto
          -27 callsubr
          47 -8 -42 29 -56 hhcurveto
          -120 -85 -123 -147 -75 48 -46 72 hvcurveto
          5 18 rmoveto
          -61 -44 43 53 69 75 61 77 61 44 -44 -53 -69 -75 -60 -77 hvcurveto
          endchar
        </CharString>
        <CharString name="six.lnum">
          -36 callsubr
          -100 -105 -68 -99 -51 hvcurveto
          246 53 118 141 130 -58 callgsubr
        </CharString>
        <CharString name="six.numerator">
          -240 360 -21 244 147 -18 -20 hstemhm
          85 20 hintmask 10110000
          381 491 rmoveto
          -9 callgsubr
          vhcurveto
          -27 callsubr
          hintmask 11010000
          -70 callsubr
        </CharString>
        <CharString name="sixinferior">
          -240 -64 -21 244 147 hstem
          -5 20 vstem
          291 67 rmoveto
          -9 callgsubr
          vhcurveto
          -27 callsubr
          -70 callsubr
        </CharString>
        <CharString name="sixsuperior">
          -240 440 -21 244 147 hstem
          102 20 vstem
          398 571 rmoveto
          -9 callgsubr
          vhcurveto
          -27 callsubr
          -70 callsubr
        </CharString>
        <CharString name="slash">
          -88 -4 callsubr
          558 710 rmoveto
          -584 -710 rlineto
          25 hlineto
          584 710 rlineto
          endchar
        </CharString>
        <CharString name="space">
          -364 endchar
        </CharString>
        <CharString name="sterling">
          -173 -15 20 0 20 321 20 329 20 hstemhm
          129 22 29 21 hintmask 10111100
          60 28 callsubr
          -22 vvcurveto
          -85 -16 -36 -168 -152 vhcurveto
          6 -17 rlineto
          -15 callsubr
          hintmask 01111100
          21 callsubr
          147 135 18 50 83 vvcurveto
          21 -3 20 -4 19 vhcurveto
          157 -48 callsubr
          -166 hlineto
          -15 57 -24 49 53 vvcurveto
          92 84 78 82 56 45 -37 -60 18 vhcurveto
          19 12 rlineto
          64 -19 -50 41 -63 hhcurveto
          -96 -98 -91 -104 -53 23 -47 15 -54 hvcurveto
          -103 hlineto
          endchar
        </CharString>
        <CharString name="summation">
          -57 0 25 665 20 hstem
          482 710 rmoveto
          -402 -22 hlineto
          230 -317 -233 -348 rlineto
          -23 420 25 -393 4 vlineto
          231 340 -231 317 rlineto
          4 378 vlineto
          endchar
        </CharString>
        <CharString name="t">
          -338 -5 20 484 20 181 -93 callgsubr
          endchar
        </CharString>
        <CharString name="t.alt">
          -355 21 -21 499 20 182 -20 hstem
          33 -55 callsubr
          106 499 -39 callsubr
          -119 hlineto
          39 182 -92 callgsubr
          -39 -182 rlineto
          -71 -85 callgsubr
          71 hlineto
          endchar
        </CharString>
        <CharString name="tbar">
          -336 -5 20 324 20 140 20 181 -20 hstem
          49 21 vstem
          36 339 rmoveto
          71 hlineto
          -56 -264 rlineto
          -1 -6 -1 -6 -5 vvcurveto
          -38 30 -25 41 52 43 27 2 2 vhcurveto
          -7 16 rlineto
          -2 -3 -39 -23 -43 hhcurveto
          -31 -24 17 33 11 4 16 5 24 hvcurveto
          47 223 rlineto
          120 hlineto
          4 20 rlineto
          -119 hlineto
          30 140 -39 callsubr
          -119 hlineto
          39 181 -92 callgsubr
          -39 -181 rlineto
          -71 -85 callgsubr
          71 hlineto
          -30 -140 rlineto
          -71 hlineto
          endchar
        </CharString>
        <CharString name="tcaron">
          -338 -5 20 484 20 211 -93 callgsubr
          159 650 rmoveto
          -28 callsubr
        </CharString>
        <CharString name="tdotbelow">
          -338 -106 -21 122 20 484 20 181 -93 callgsubr
          -22 -122 -74 callsubr
          endchar
        </CharString>
        <CharString name="thorn">
          -43 -10 callgsubr
          183 -20 hstem
          508 21 vstem
          -28 -213 1 callgsubr
          68 321 rlineto
          -69 28 58 -49 90 hhcurveto
          171 122 178 153 106 -59 100 -119 -87 -76 -54 -75 -66 hvcurveto
          66 312 -92 callgsubr
          75 -700 rmoveto
          -87 -85 63 81 2 0 5 2 8 hvcurveto
          40 187 rlineto
          83 57 84 68 93 hhcurveto
          103 58 -81 -110 -168 -135 -138 -130 hvcurveto
          endchar
        </CharString>
        <CharString name="three">
          -129 -147 20 354 20 309 20 hstemhm
          375 80 -21 21 hintmask 11101000
          146 -147 rmoveto
          136 112 99 135 78 -42 60 -73 11 hvcurveto
          102 13 74 79 99 vvcurveto
          86 -61 63 -95 -87 -85 -50 -76 -42 vhcurveto
          16 -7 rlineto
          68 40 74 45 80 hhcurveto
          84 55 -54 -80 -107 -77 -68 -130 hvcurveto
          -22 -85 callgsubr
          21 hlineto
          hintmask 11110000
          98 55 -54 -85 -125 -95 -90 -128 -88 -62 46 69 -7 hvcurveto
          -20 -7 rlineto
          -78 10 67 -50 94 hhcurveto
          endchar
        </CharString>
        <CharString name="three.denominator">
          -256 -5 -6 callgsubr
          hstemhm
          259 20 7 21 hintmask 10110000
          115 -5 -77 callsubr
          hintmask 01110000
          -71 callsubr
          hintmask 10110000
          -58 -55 -32 -92 vhcurveto
          -21 hlineto
          hintmask 01110000
          -7 callsubr
          77 47 -60 callgsubr
          hintmask 10110000
          5 callgsubr
        </CharString>
        <CharString name="three.lnum">
          -64 -9 20 339 20 329 20 hstem
          23 20 416 21 33 21 vstem
          217 -9 rmoveto
          135 128 96 123 73 -45 60 -77 16 hvcurveto
          113 29 63 68 95 vvcurveto
          100 -71 68 -108 -94 -92 -50 -77 -46 vhcurveto
          16 -8 rlineto
          70 42 82 45 87 hhcurveto
          99 64 -59 -92 -109 -89 -69 -160 hvcurveto
          -34 -85 callgsubr
          33 hlineto
          125 75 -57 -88 -108 -114 -86 -123 -99 -80 55 110 hvcurveto
          -20 hlineto
          -121 83 -64 111 vhcurveto
          endchar
        </CharString>
        <CharString name="three.numerator">
          -256 338 -6 callgsubr
          -18 -20 hstemhm
          332 20 7 21 hintmask 10111000
          188 338 -77 callsubr
          hintmask 01011000
          52 -46 39 -70 -58 -56 -26 -40 -27 vhcurveto
          12 -12 rlineto
          hintmask 10111000
          -30 callgsubr
          hintmask 01011000
          -7 callsubr
          76 48 -60 callgsubr
          hintmask 10111000
          5 callgsubr
        </CharString>
        <CharString name="threeeighths">
          138 -4 -8 callsubr
          -45 -6 callgsubr
          -18 -20 hstemhm
          336 20 7 21 7 -35 callgsubr
          hintmask 1010111101010000
          55 -1 -82 callsubr
          468 -15 -41 callsubr
          hintmask 0101011110100000
          -82 callgsubr
          hintmask 1010111110100000
          -49 callgsubr
          hintmask 0101011110100000
          -48 callgsubr
          hintmask 1010111110010000
          -66 callsubr
          -365 124 -77 callsubr
          hintmask 1001011110100000
          52 -46 39 -70 -58 -56 -26 -40 -27 vhcurveto
          12 -12 rlineto
          hintmask 1010111110100000
          -30 callgsubr
          hintmask 1001011110100000
          -7 callsubr
          76 48 -60 callgsubr
          hintmask 1010111110100000
          5 callgsubr
        </CharString>
        <CharString name="threeinferior">
          -256 -85 -6 callgsubr
          hstemhm
          242 20 7 21 hintmask 10110000
          98 -85 -77 callsubr
          hintmask 01110000
          -71 callsubr
          hintmask 10110000
          -58 -54 -32 -93 vhcurveto
          -21 hlineto
          hintmask 01110000
          -7 callsubr
          76 48 -29 -46 -55 -65 -42 -75 -68 -40 32 52 hvcurveto
          -17 -7 rlineto
          hintmask 10110000
          -78 70 -18 51 vhcurveto
          endchar
        </CharString>
        <CharString name="threequarters">
          110 20 -21 22 -21 110 247 -19 -6 callgsubr
          -18 -20 hstemhm
          333 20 7 21 hintmask 10101011
          79 -1 -82 callsubr
          hintmask 01101011
          483 -11 rmoveto
          19 hlineto
          -83 callgsubr
          -190 19 rmoveto
          241 219 -47 -219 rlineto
          hintmask 10010111
          -387 209 -77 callsubr
          hintmask 10101011
          52 -46 39 -70 -58 -56 -26 -40 -27 vhcurveto
          12 -12 rlineto
          hintmask 10010111
          -30 callgsubr
          hintmask 10101011
          -7 callsubr
          76 48 -60 callgsubr
          hintmask 10010111
          5 callgsubr
        </CharString>
        <CharString name="threesuperior">
          -256 418 -6 callgsubr
          hstemhm
          349 20 7 21 hintmask 10110000
          205 418 -77 callsubr
          hintmask 01110000
          -71 callsubr
          hintmask 10110000
          -58 -54 -32 -93 vhcurveto
          -21 hlineto
          hintmask 01110000
          -7 callsubr
          77 47 -29 -46 -55 -65 -42 -75 -68 -40 30 54 hvcurveto
          -17 -7 rlineto
          hintmask 10110000
          -56 42 -40 79 vhcurveto
          endchar
        </CharString>
        <CharString name="tilde">
          -255 663 57 -46 -21 77 -20 hstemhm
          hintmask 10000000
          231 663 rmoveto
          hintmask 01100000
          -87 callsubr
          hintmask 10000000
          -49 -13 38 -49 hhcurveto
          hintmask 01100000
          -63 -20 -61 -6 -1 hvcurveto
          19 hlineto
          6 2 16 42 41 hhcurveto
          hintmask 10000000
          39 16 -38 56 hhcurveto
          endchar
        </CharString>
        <CharString name="trademark">
          2 454 -21 259 20 -2 -20 hstemhm
          hintmask 11000000
          342 712 rmoveto
          -200 -85 callgsubr
          90 hlineto
          -55 -259 -51 callsubr
          55 259 rlineto
          90 hlineto
          -11 -259 rmoveto
          19 hlineto
          51 239 51 -197 rlineto
          17 hlineto
          134 197 -50 -239 rlineto
          19 hlineto
          hintmask 10100000
          59 277 rlineto
          -22 hlineto
          -144 -209 -54 209 -1 callgsubr
          endchar
        </CharString>
        <CharString name="two">
          -142 0 20 541 20 hstem
          428 21 vstem
          -7 hmoveto
          371 -48 callsubr
          -352 hlineto
          7 36 48 128 143 60 rrcurveto
          170 72 64 37 103 vvcurveto
          63 -46 62 -99 -111 -87 -94 -1 vhcurveto
          13 -12 rlineto
          13 13 73 74 95 hhcurveto
          90 38 -55 -53 -90 -58 -37 -159 -63 hvcurveto
          -167 -67 -41 -147 -10 -49 rrcurveto
          endchar
        </CharString>
        <CharString name="two.denominator">
          -265 21 15 callgsubr
          288 21 vstem
          -23 hmoveto
          271 hlineto
          -83 callsubr
          -78 callgsubr
        </CharString>
        <CharString name="two.lnum">
          -86 0 20 679 20 hstem
          513 21 vstem
          -12 hmoveto
          431 hlineto
          4 20 rlineto
          -411 hlineto
          13 78 41 131 186 72 rrcurveto
          107 42 175 35 181 vvcurveto
          83 -49 77 -114 -151 -97 -123 -3 vhcurveto
          14 -10 rlineto
          40 34 77 76 117 hhcurveto
          105 43 -68 -74 -164 -152 -29 -114 -45 hvcurveto
          -125 -49 -108 -86 -26 -184 rrcurveto
          endchar
        </CharString>
        <CharString name="two.numerator">
          -265 364 -21 369 31 callsubr
          361 21 hintmask 10110000
          321 343 -32 callgsubr
          hintmask 11010000
          -78 callgsubr
        </CharString>
        <CharString name="twoinferior">
          -265 -59 15 callgsubr
          271 21 vstem
          231 -80 -32 callgsubr
          -78 callgsubr
        </CharString>
        <CharString name="twosuperior">
          -265 444 15 callgsubr
          378 21 vstem
          338 423 rmoveto
          4 19 rlineto
          -246 hlineto
          8 40 22 65 107 36 rrcurveto
          63 21 103 21 97 vvcurveto
          48 -32 41 -73 -92 -58 -62 -5 -4 vhcurveto
          12 -12 rlineto
          -78 callgsubr
        </CharString>
        <CharString name="twothirds">
          150 -5 -6 callgsubr
          324 31 callsubr
          365 21 280 20 7 21 hintmask 10011110
          76 -1 -82 callsubr
          459 -16 -77 callsubr
          hintmask 01011110
          -71 callsubr
          hintmask 10011110
          -58 -55 -32 -92 vhcurveto
          -21 hlineto
          hintmask 01011110
          -7 callsubr
          77 47 -60 callgsubr
          hintmask 10011110
          -68 70 -28 51 vhcurveto
          -197 348 -32 callgsubr
          hintmask 10101110
          -78 callgsubr
        </CharString>
        <CharString name="u">
          -17 callgsubr
          hstemhm
          47 20 hintmask 10110000
          167 -10 rmoveto
          89 95 55 87 61 hvcurveto
          -20 -96 0 -3 -4 vvcurveto
          -13 5 -10 10 -4 vhcurveto
          hintmask 01110000
          -1 3 4 -1 5 hhcurveto
          -21 callgsubr
          -5 5 9 2 4 16 3 15 hvcurveto
          96 452 -92 callgsubr
          -70 -330 rlineto
          hintmask 10110000
          -104 -51 -106 -75 -95 hhcurveto
          -70 -35 39 82 27 4 33 8 37 hvcurveto
          62 291 -92 callgsubr
          -62 -291 rlineto
          -8 -37 -4 -33 -29 vvcurveto
          -92 41 -47 79 vhcurveto
          endchar
        </CharString>
        <CharString name="u.alt">
          -70 -20 callsubr
          hstemhm
          47 20 hintmask 10110000
          171 -10 rmoveto
          86 97 58 84 58 hvcurveto
          hintmask 01110000
          -28 -132 -51 callsubr
          111 519 -92 callgsubr
          -71 -330 rlineto
          hintmask 10110000
          -92 -44 -104 -87 -101 hhcurveto
          -82 -26 49 69 30 5 34 8 36 hvcurveto
          62 291 -92 callgsubr
          -62 -291 rlineto
          -8 -35 -5 -36 -33 vvcurveto
          -75 28 -59 96 vhcurveto
          endchar
        </CharString>
        <CharString name="uacute">
          -17 callgsubr
          231 -20 -105 callgsubr
          244 740 -95 callsubr
        </CharString>
        <CharString name="ubreve">
          -17 callgsubr
          231 -20 -105 callgsubr
          165 680 -104 callsubr
        </CharString>
        <CharString name="ucircumflex">
          -17 callgsubr
          231 -20 -105 callgsubr
          91 654 -100 callsubr
        </CharString>
        <CharString name="udblgrave">
          -17 callgsubr
          231 -20 -105 callgsubr
          242 655 rmoveto
          19 12 -88 callgsubr
        </CharString>
        <CharString name="udieresis">
          -17 callgsubr
          231 -20 -105 callgsubr
          127 663 -95 callgsubr
        </CharString>
        <CharString name="udotbelow">
          -68 -106 -21 117 -26 callsubr
          hstemhm
          47 20 hintmask 11011000
          167 -10 rmoveto
          89 95 55 87 61 hvcurveto
          -20 -96 0 -3 -4 vvcurveto
          -13 5 -10 10 -4 vhcurveto
          hintmask 10111000
          -1 3 4 -1 5 hhcurveto
          -21 callgsubr
          -5 5 9 2 4 16 3 15 hvcurveto
          96 452 -92 callgsubr
          -70 -330 rlineto
          hintmask 11011000
          -104 -51 -106 -75 -95 hhcurveto
          -70 -35 39 82 27 4 33 8 37 hvcurveto
          62 291 -92 callgsubr
          -62 -291 rlineto
          -8 -37 -4 -33 -29 vvcurveto
          -92 41 -47 79 vhcurveto
          17 -117 -74 callsubr
          endchar
        </CharString>
        <CharString name="ugrave">
          -17 callgsubr
          231 -20 -105 callgsubr
          168 655 -75 callsubr
        </CharString>
        <CharString name="uhungarumlaut">
          -17 callgsubr
          231 -20 -105 callgsubr
          186 740 rmoveto
          -33 hlineto
          -76 -73 13 -12 rlineto
          192 85 -95 callsubr
        </CharString>
        <CharString name="uinvertedbreve">
          -17 callgsubr
          214 -20 37 -73 callgsubr
          108 663 -98 callgsubr
          hintmask 10101100
          -78 callsubr
        </CharString>
        <CharString name="umacron">
          -17 callgsubr
          187 20 -105 callgsubr
          307 696 -72 callsubr
        </CharString>
        <CharString name="underscore">
          -106 -20 20 hstem
          372 -20 rmoveto
          4 20 rlineto
          -373 -85 callgsubr
          endchar
        </CharString>
        <CharString name="uni00A0">
          -364 endchar
        </CharString>
        <CharString name="uni00AD">
          0 callsubr
        </CharString>
        <CharString name="uni015E">
          -38 -162 111 -16 79 703 -20 hstemhm
          108 21 165 226 -21 21 hintmask 10110100
          137 -143 -79 callgsubr
          40 52 rlineto
          159 5 104 79 129 vvcurveto
          97 -83 32 -126 28 vhcurveto
          -123 28 -59 25 77 vvcurveto
          112 74 89 184 80 49 -18 -62 40 vhcurveto
          16 14 rlineto
          61 -40 -57 24 -86 hhcurveto
          -165 -116 -85 -139 -91 74 -28 125 -26 hvcurveto
          129 -28 63 -34 -81 vvcurveto
          hintmask 01111000
          -125 -100 -66 -154 -103 -71 32 74 -53 vhcurveto
          -17 -13 55 -74 73 -34 105 -2 rlinecurve
          -59 -78 rlineto
          -80 callsubr
        </CharString>
        <CharString name="uni015F">
          -169 -167 111 -16 82 -20 -59 callsubr
          hstemhm
          72 21 112 172 -21 21 hintmask 10111010
          48 -148 -79 callgsubr
          40 52 rlineto
          120 4 89 69 99 vvcurveto
          70 -65 19 -99 26 vhcurveto
          -79 21 -41 13 51 vvcurveto
          99 87 46 93 63 56 -22 -41 15 vhcurveto
          19 8 rlineto
          43 -13 -52 32 -80 hhcurveto
          -107 -102 -55 -116 -62 49 -15 87 -22 hvcurveto
          93 -24 55 -19 -59 vvcurveto
          -88 -84 -57 -109 -70 -48 25 52 -40 vhcurveto
          -17 -13 34 -54 54 -26 69 -3 rlinecurve
          -59 -79 rlineto
          hintmask 01011100
          -80 callsubr
        </CharString>
        <CharString name="uni0162">
          -46 -162 111 741 20 hstem
          104 -143 -79 callgsubr
          44 57 -65 callsubr
          -146 -684 -67 -89 rlineto
          -80 callsubr
        </CharString>
        <CharString name="uni0163">
          -338 -162 111 -16 82 -20 20 484 20 181 -20 hstemhm
          48 21 hintmask 10111100
          8 -143 -79 callgsubr
          40 52 48 3 39 25 1 1 rlinecurve
          -7 16 rlineto
          -2 -3 -39 -23 -43 hhcurveto
          -30 -25 18 33 9 3 14 8 37 hvcurveto
          80 373 -39 callsubr
          -118 hlineto
          38 181 -92 callgsubr
          -38 -181 rlineto
          -72 -85 callgsubr
          71 hlineto
          -90 -424 rlineto
          -1 -6 -1 -6 -5 vvcurveto
          -34 23 -23 34 -5 vhcurveto
          -59 -79 rlineto
          hintmask 01011100
          -80 callsubr
        </CharString>
        <CharString name="uni01C4">
          652 27 callgsubr
          208 -20 hstem
          633 20 vstem
          -99 callsubr
          390 -20 rmoveto
          -88 callsubr
          431 812 -91 callgsubr
        </CharString>
        <CharString name="uni01C5">
          522 26 callsubr
          171 20 20 -20 hstemhm
          633 20 hintmask 11101000
          -99 callsubr
          394 -20 rmoveto
          -93 callsubr
          326 624 rmoveto
          16 hlineto
          104 74 rlineto
          hintmask 11011000
          -13 12 -94 -63 -68 63 -18 -12 rlineto
          endchar
        </CharString>
        <CharString name="uni01C6">
          -86 callgsubr
          326 624 -91 callgsubr
        </CharString>
        <CharString name="uni01C7">
          391 0 20 -10 -21 720 -20 21 -20 hstemhm
          hintmask 10010000
          -56 callsubr
          -37 callsubr
          -20 hlineto
          hintmask 01100000
          473 -721 rmoveto
          178 52 144 216 46 hvcurveto
          77 360 -92 callgsubr
          -77 -360 rlineto
          -212 -45 -46 -128 -161 hhcurveto
          -54 -43 14 26 -30 hvcurveto
          -14 -16 rlineto
          -29 34 45 -15 58 hhcurveto
          endchar
        </CharString>
        <CharString name="uni01C8">
          123 -170 20 150 20 499 -20 211 -20 40 -20 hstemhm
          hintmask 11110000
          -56 callsubr
          -37 callsubr
          -20 hlineto
          250 -880 rmoveto
          59 79 56 78 17 hvcurveto
          118 555 -92 callgsubr
          -118 -555 rlineto
          -64 -14 -66 -50 -52 hhcurveto
          -26 -29 -70 callgsubr
          282 823 1 callgsubr
          hintmask 11101000
          16 77 -92 callgsubr
          endchar
        </CharString>
        <CharString name="uni01C9">
          -205 -170 20 -20 184 2 -21 524 -3 callsubr
          hstemhm
          hintmask 10111000
          96 -5 rmoveto
          18 33 6 6 18 hvcurveto
          -3 16 rlineto
          hintmask 01011000
          -5 -17 -23 -4 -14 hhcurveto
          -33 -19 17 30 5 1 5 1 6 hvcurveto
          139 653 -92 callgsubr
          -139 -653 rlineto
          -2 -8 0 -7 -6 vvcurveto
          hintmask 10111000
          -37 23 -24 37 vhcurveto
          10 -165 rmoveto
          59 79 56 78 17 hvcurveto
          118 555 -92 callgsubr
          -118 -555 rlineto
          -64 -14 -66 -50 -52 hhcurveto
          -26 -29 -70 callgsubr
          282 823 3 callgsubr
          endchar
        </CharString>
        <CharString name="uni01CA">
          582 -11 20 12 23 callsubr
          hintmask 01100000
          -87 callgsubr
          rlineto
          hintmask 01010000
          -45 callsubr
          hintmask 10100000
          664 -721 rmoveto
          178 52 144 216 46 hvcurveto
          77 360 -92 callgsubr
          -77 -360 rlineto
          -212 -45 -46 -128 -161 hhcurveto
          -54 -43 14 26 -30 hvcurveto
          -14 -16 rlineto
          -29 34 45 -15 58 hhcurveto
          endchar
        </CharString>
        <CharString name="uni01CB">
          314 -170 20 171 27 callsubr
          211 -20 40 -20 hstemhm
          hintmask 11110000
          -87 callgsubr
          -45 callsubr
          441 -880 rmoveto
          59 79 56 78 17 hvcurveto
          118 555 -92 callgsubr
          -118 -555 rlineto
          -64 -14 -66 -50 -52 hhcurveto
          -26 -29 -70 callgsubr
          282 823 1 callgsubr
          hintmask 11101000
          16 77 -92 callgsubr
          endchar
        </CharString>
        <CharString name="uni01CC">
          111 -170 20 171 -49 callsubr
          hintmask 11101100
          -100 callgsubr
          hintmask 11011100
          28 134 -92 callgsubr
          295 -689 rmoveto
          59 79 56 78 17 hvcurveto
          118 555 -92 callgsubr
          -118 -555 rlineto
          -64 -14 -66 -50 -52 hhcurveto
          -26 -29 -70 callgsubr
          282 823 3 callgsubr
          endchar
        </CharString>
        <CharString name="uni01F1">
          640 27 callgsubr
          hstem
          633 20 vstem
          -99 callsubr
          378 -20 rmoveto
          -88 callsubr
          endchar
        </CharString>
        <CharString name="uni01F2">
          522 26 callsubr
          171 20 hstem
          633 20 vstem
          -99 callsubr
          394 -20 rmoveto
          -93 callsubr
          endchar
        </CharString>
        <CharString name="uni01F3">
          -86 callgsubr
          endchar
        </CharString>
        <CharString name="uni0218">
          -40 -146 -21 183 -21 720 -104 callgsubr
          -35 -162 -90 callsubr
        </CharString>
        <CharString name="uni0219">
          -169 -146 -21 157 -59 callsubr
          -102 callgsubr
          -26 -157 -90 callsubr
        </CharString>
        <CharString name="uni021A">
          -45 -146 -21 188 -21 690 20 hstem
          209 -55 callsubr
          -65 callsubr
          -174 -857 -90 callsubr
        </CharString>
        <CharString name="uni021B">
          -338 -146 -21 162 20 484 20 181 -93 callgsubr
          -36 -162 -90 callsubr
        </CharString>
        <CharString name="uni02C9">
          -258 686 20 hstem
          46 686 rmoveto
          266 hlineto
          4 20 rlineto
          -266 hlineto
          endchar
        </CharString>
        <CharString name="uni030F">
          -335 -3 callgsubr
          210 645 rmoveto
          19 12 -88 callgsubr
        </CharString>
        <CharString name="uni0311">
          -383 674 -21 60 -20 37 -20 hstemhm
          hintmask 11000000
          46 653 -98 callgsubr
          hintmask 10100000
          -78 callsubr
        </CharString>
        <CharString name="uni0394">
          -3 0 20 690 -20 hstem
          -24 hmoveto
          599 20 hlineto
          -290 690 rlineto
          -18 hlineto
          -291 -690 rlineto
          22 18 callsubr
        </CharString>
        <CharString name="uni03A9">
          -74 callgsubr
        </CharString>
        <CharString name="uni03BC">
          -62 10 callsubr
          -28 -69 callgsubr
        </CharString>
        <CharString name="uni20A6">
          161 21 -21 286 20 70 20 313 -20 21 -20 hstemhm
          hintmask 11110000
          762 396 rmoveto
          -78 hlineto
          67 313 -92 callgsubr
          -67 -313 rlineto
          -277 hlineto
          hintmask 11101000
          -170 314 rlineto
          -15 hlineto
          -67 -314 rlineto
          -77 -85 callgsubr
          77 hlineto
          -15 -70 rlineto
          -77 -85 callgsubr
          77 hlineto
          -61 -286 -51 callsubr
          61 286 rlineto
          291 hlineto
          155 -286 rlineto
          23 hlineto
          60 286 rlineto
          78 hlineto
          4 20 rlineto
          -78 hlineto
          15 70 rlineto
          78 hlineto
          -544 295 rmoveto
          149 -275 rlineto
          -208 hlineto
          292 -110 rmoveto
          194 hlineto
          -54 -257 rlineto
          -436 347 rmoveto
          223 hlineto
          38 -70 rlineto
          -276 hlineto
          262 70 rmoveto
          262 hlineto
          -15 -70 rlineto
          -209 hlineto
          endchar
        </CharString>
        <CharString name="uni20A9">
          401 21 -21 349 20 70 20 251 -20 hstem
          51 349 rmoveto
          140 hlineto
          70 -349 rlineto
          22 hlineto
          243 389 77 -389 rlineto
          22 hlineto
          218 349 rlineto
          140 hlineto
          4 20 rlineto
          -131 hlineto
          43 70 rlineto
          103 -48 callsubr
          -95 hlineto
          157 251 rlineto
          -22 hlineto
          -157 -251 rlineto
          -321 hlineto
          154 245 rlineto
          -22 hlineto
          -166 -266 -52 266 rlineto
          -22 hlineto
          50 -245 rlineto
          -320 hlineto
          -50 251 rlineto
          -22 hlineto
          50 -251 rlineto
          -95 -85 callgsubr
          103 hlineto
          14 -70 rlineto
          -132 hlineto
          499 -20 rmoveto
          267 hlineto
          -202 -324 rlineto
          -406 324 rmoveto
          266 hlineto
          -202 -324 rlineto
          264 389 rmoveto
          15 25 rlineto
          321 hlineto
          -43 -70 rlineto
          -284 hlineto
          -30 45 rmoveto
          -28 -45 rlineto
          -283 hlineto
          -14 70 rlineto
          320 hlineto
          endchar
        </CharString>
        <CharString name="uni20B9">
          -225 21 -21 279 20 301 20 70 20 hstem
          317 21 vstem
          418 620 rmoveto
          -98 hlineto
          -13 29 -21 25 -26 16 rrcurveto
          173 hlineto
          4 20 rlineto
          -310 -85 callgsubr
          67 hlineto
          47 37 -30 -40 21 hvcurveto
          -187 -85 callgsubr
          200 hlineto
          8 -22 5 -23 -25 vvcurveto
          -108 -92 -123 -117 vhcurveto
          -25 hlineto
          120 -299 rlineto
          24 hlineto
          -112 279 rlineto
          120 9 103 123 122 vvcurveto
          23 -4 23 -7 21 vhcurveto
          87 hlineto
          endchar
        </CharString>
        <CharString name="uni2113">
          -310 16 -21 725 20 hstem
          79 20 112 21 vstem
          160 -5 rmoveto
          24 25 7 10 23 hvcurveto
          -7 16 rlineto
          -8 -20 -22 -7 -17 hhcurveto
          -41 -26 24 39 hvcurveto
          227 vlineto
          70 76 63 128 103 vvcurveto
          77 -31 53 -45 -44 -33 -56 -74 vhcurveto
          -523 vlineto
          -62 30 -30 51 vhcurveto
          51 609 rmoveto
          -76 -52 -127 -60 -71 vhcurveto
          280 vlineto
          65 24 45 34 35 19 -42 -74 vhcurveto
          endchar
        </CharString>
        <CharString name="uni2215">
          -77 20 -21 712 -20 hstem
          -50 -1 12 callsubr
        </CharString>
        <CharString name="uni2219">
          -464 271 -21 83 -20 hstem
          76 250 -20 callgsubr
        </CharString>
        <CharString name="uogonek">
          -68 -138 -21 149 20 509 -20 hstem
          47 20 233 20 vstem
          338 -159 rmoveto
          -76 callgsubr
          -21 callgsubr
          -5 5 9 2 4 16 3 15 hvcurveto
          96 452 -92 callgsubr
          -70 -330 rlineto
          -104 -51 -106 -75 -95 hhcurveto
          -70 -35 39 82 27 4 33 8 37 hvcurveto
          62 291 -92 callgsubr
          -62 -291 rlineto
          -8 -37 -4 -33 -29 vvcurveto
          -92 41 -47 79 89 95 55 87 61 vhcurveto
          -20 -96 0 -3 -4 vvcurveto
          -9 2 -8 5 -5 vhcurveto
          -74 -49 -25 -31 -37 -54 callgsubr
          endchar
        </CharString>
        <CharString name="uring">
          -17 callgsubr
          117 114 -16 -20 hstemhm
          47 20 219 111 hintmask 10110110
          167 -10 rmoveto
          89 95 55 87 61 hvcurveto
          -20 -96 0 -3 -4 vvcurveto
          -13 5 -10 10 -4 vhcurveto
          hintmask 01110110
          -1 3 4 -1 5 hhcurveto
          -21 callgsubr
          -5 5 9 2 4 16 3 15 hvcurveto
          96 452 -92 callgsubr
          -70 -330 rlineto
          hintmask 10110110
          -104 -51 -106 -75 -95 hhcurveto
          -70 -35 39 82 27 4 33 8 37 hvcurveto
          62 291 -92 callgsubr
          -62 -291 rlineto
          -8 -37 -4 -33 -29 vvcurveto
          -92 41 -47 79 vhcurveto
          119 672 -68 callsubr
          hintmask 10101110
          64 52 -73 callsubr
          endchar
        </CharString>
        <CharString name="utilde">
          -17 callgsubr
          164 57 10 -73 callgsubr
          229 673 rmoveto
          hintmask 10101100
          -87 callsubr
          hintmask 10110100
          -97 callgsubr
        </CharString>
        <CharString name="v">
          -168 10 callgsubr
          147 hmoveto
          18 hlineto
          145 164 87 181 54 174 rrcurveto
          -20 hlineto
          -47 -148 -89 -195 -132 -148 -78 491 rcurveline
          -21 hlineto
          endchar
        </CharString>
        <CharString name="w">
          104 21 -21 519 -99 callgsubr
          endchar
        </CharString>
</ttFont>
